M48
; DRILL file KiCad 10.0.1 date 2026-06-16T10:50:39
; FORMAT={-:-/ absolute / metric / decimal}
; #@! TF.CreationDate,2026-06-16T10:50:39+08:00
; #@! TF.GenerationSoftware,Kicad,Pcbnew,10.0.1
; #@! TF.FileFunction,MixedPlating,1,2
FMAT,2
METRIC
; #@! TA.AperFunction,Plated,PTH,ViaDrill
T1C0.300
; #@! TA.AperFunction,Plated,PTH,ComponentDrill
T2C0.800
; #@! TA.AperFunction,Plated,PTH,ComponentDrill
T3C1.000
; #@! TA.AperFunction,Plated,PTH,ComponentDrill
T4C1.100
; #@! TA.AperFunction,Plated,PTH,ComponentDrill
T5C2.800
; #@! TA.AperFunction,NonPlated,NPTH,ComponentDrill
T6C2.700
%
G90
G05
T1
X103.3Y-98.6
X103.7Y-83.6
X105.2Y-114.6
X106.0Y-102.2
X106.4Y-87.0
X107.5Y-134.7
X108.0Y-62.8
X109.3Y-98.7
X109.4Y-83.7
X110.35Y-74.425
X110.35Y-89.425
X114.0Y-81.6
X114.3Y-103.8
X115.5Y-55.296
X116.2Y-78.2
X116.586Y-145.6
X117.5Y-134.7
X117.6Y-81.3
X118.0Y-62.8
X119.5Y-72.1
X122.5Y-81.3
X123.2Y-139.0
X124.0Y-75.2
X125.5Y-55.296
X125.6Y-94.6
X126.586Y-145.6
X126.8Y-87.2
X127.5Y-134.7
X128.0Y-62.8
X133.2Y-139.0
X134.0Y-75.2
X134.4Y-127.1
X135.5Y-55.296
X136.0Y-96.4
X136.586Y-145.6
X136.8Y-87.2
X137.5Y-113.1
X138.0Y-62.8
X143.2Y-139.0
X144.0Y-75.2
X144.4Y-127.1
X145.5Y-55.296
X145.7Y-104.9
X146.0Y-96.4
X146.586Y-145.6
X146.8Y-87.2
X147.5Y-113.1
X148.0Y-62.8
X153.2Y-139.0
X154.0Y-75.2
X154.4Y-127.1
X155.5Y-55.296
X155.7Y-104.9
X156.0Y-96.4
X156.586Y-145.6
X156.8Y-87.2
X157.5Y-113.1
X158.0Y-62.8
X164.0Y-75.2
X164.4Y-127.1
X165.5Y-55.296
X165.7Y-104.9
X166.0Y-96.4
X166.586Y-145.6
X166.8Y-87.2
X167.5Y-113.1
X172.6Y-77.7
X172.6Y-124.84
X172.9Y-134.9
X175.5Y-55.296
X175.7Y-104.9
X176.0Y-96.4
X176.3Y-77.7
X176.3Y-124.84
X176.586Y-145.6
X176.8Y-87.2
X177.5Y-113.1
X180.5Y-67.9
X182.9Y-134.9
X185.5Y-55.296
X185.7Y-104.9
X186.0Y-96.4
X186.586Y-145.6
X187.5Y-113.1
X188.91Y-77.7
X188.91Y-124.84
X190.5Y-67.9
X192.26Y-77.7
X192.26Y-124.84
X192.9Y-134.9
X195.5Y-55.296
X195.7Y-104.9
X196.586Y-145.6
X200.5Y-67.9
X201.3Y-116.0
X202.9Y-134.9
X205.5Y-55.296
X206.586Y-145.6
X210.5Y-67.9
X211.057Y-87.1
X211.2Y-134.9
X211.3Y-116.0
X212.5Y-108.0
X213.0Y-77.7
X213.0Y-124.84
X215.5Y-55.296
X216.586Y-145.6
X217.0Y-77.7
X217.0Y-124.84
X220.5Y-67.9
X221.057Y-87.1
X221.2Y-134.9
X221.3Y-116.0
X222.5Y-108.0
X225.5Y-55.296
X226.586Y-145.6
X230.5Y-67.9
X231.057Y-87.1
X231.2Y-134.9
X231.3Y-116.0
X232.5Y-108.0
X235.5Y-55.296
X236.586Y-145.6
X241.057Y-87.1
X241.2Y-134.9
X242.5Y-108.0
X245.5Y-55.296
X246.586Y-145.6
X257.4Y-86.0
X257.4Y-91.1
X257.4Y-96.2
X257.4Y-101.3
X257.4Y-106.4
X257.4Y-111.4
X257.4Y-116.5
T2
X103.5Y-76.23
X103.5Y-78.77
X103.5Y-91.23
X103.5Y-93.77
X103.5Y-106.23
X103.5Y-108.77
X103.5Y-121.23
X103.5Y-123.77
T3
X249.38Y-63.17
X249.38Y-68.25
X249.38Y-73.33
X249.38Y-78.41
X249.38Y-83.49
X249.38Y-88.57
X249.38Y-93.65
X249.38Y-98.73
X249.38Y-103.81
X249.38Y-108.89
X249.38Y-113.97
X249.38Y-119.05
X249.38Y-124.13
X249.38Y-129.21
X249.38Y-134.29
X249.38Y-139.37
X251.92Y-63.17
X251.92Y-68.25
X251.92Y-73.33
X251.92Y-78.41
X251.92Y-83.49
X251.92Y-88.57
X251.92Y-93.65
X251.92Y-98.73
X251.92Y-103.81
X251.92Y-108.89
X251.92Y-113.97
X251.92Y-119.05
X251.92Y-124.13
X251.92Y-129.21
X251.92Y-134.29
X251.92Y-139.37
X254.46Y-63.17
X254.46Y-68.25
X254.46Y-73.33
X254.46Y-78.41
X254.46Y-83.49
X254.46Y-88.57
X254.46Y-93.65
X254.46Y-98.73
X254.46Y-103.81
X254.46Y-108.89
X254.46Y-113.97
X254.46Y-119.05
X254.46Y-124.13
X254.46Y-129.21
X254.46Y-134.29
X254.46Y-139.37
T4
X200.0Y-73.33
X200.0Y-129.21
X202.54Y-73.33
X202.54Y-129.21
X205.08Y-73.33
X205.08Y-129.21
T5
X257.0Y-55.55
X257.0Y-144.45
T6
X103.57Y-55.55
X103.57Y-144.45
M30
