G04 #@! TF.GenerationSoftware,KiCad,Pcbnew,10.0.1*
G04 #@! TF.CreationDate,2026-06-16T10:50:30+08:00*
G04 #@! TF.ProjectId,powersupplies_kicadproject,706f7765-7273-4757-9070-6c6965735f6b,rev?*
G04 #@! TF.SameCoordinates,Original*
G04 #@! TF.FileFunction,Copper,L1,Top*
G04 #@! TF.FilePolarity,Positive*
%FSLAX46Y46*%
G04 Gerber Fmt 4.6, Leading zero omitted, Abs format (unit mm)*
G04 Created by KiCad (PCBNEW 10.0.1) date 2026-06-16 10:50:30*
%MOMM*%
%LPD*%
G01*
G04 APERTURE LIST*
G04 Aperture macros list*
%AMRoundRect*
0 Rectangle with rounded corners*
0 $1 Rounding radius*
0 $2 $3 $4 $5 $6 $7 $8 $9 X,Y pos of 4 corners*
0 Add a 4 corners polygon primitive as box body*
4,1,4,$2,$3,$4,$5,$6,$7,$8,$9,$2,$3,0*
0 Add four circle primitives for the rounded corners*
1,1,$1+$1,$2,$3*
1,1,$1+$1,$4,$5*
1,1,$1+$1,$6,$7*
1,1,$1+$1,$8,$9*
0 Add four rect primitives between the rounded corners*
20,1,$1+$1,$2,$3,$4,$5,0*
20,1,$1+$1,$4,$5,$6,$7,0*
20,1,$1+$1,$6,$7,$8,$9,0*
20,1,$1+$1,$8,$9,$2,$3,0*%
G04 Aperture macros list end*
G04 #@! TA.AperFunction,SMDPad,CuDef*
%ADD10RoundRect,0.250000X-0.625000X0.400000X-0.625000X-0.400000X0.625000X-0.400000X0.625000X0.400000X0*%
G04 #@! TD*
G04 #@! TA.AperFunction,ComponentPad*
%ADD11RoundRect,0.250000X0.600000X-0.600000X0.600000X0.600000X-0.600000X0.600000X-0.600000X-0.600000X0*%
G04 #@! TD*
G04 #@! TA.AperFunction,ComponentPad*
%ADD12C,1.700000*%
G04 #@! TD*
G04 #@! TA.AperFunction,SMDPad,CuDef*
%ADD13RoundRect,0.250000X0.650000X-0.412500X0.650000X0.412500X-0.650000X0.412500X-0.650000X-0.412500X0*%
G04 #@! TD*
G04 #@! TA.AperFunction,SMDPad,CuDef*
%ADD14RoundRect,0.241935X-0.708065X0.508065X-0.708065X-0.508065X0.708065X-0.508065X0.708065X0.508065X0*%
G04 #@! TD*
G04 #@! TA.AperFunction,ComponentPad*
%ADD15C,1.500000*%
G04 #@! TD*
G04 #@! TA.AperFunction,ComponentPad*
%ADD16R,1.500000X1.500000*%
G04 #@! TD*
G04 #@! TA.AperFunction,SMDPad,CuDef*
%ADD17RoundRect,0.241935X0.708065X-0.508065X0.708065X0.508065X-0.708065X0.508065X-0.708065X-0.508065X0*%
G04 #@! TD*
G04 #@! TA.AperFunction,SMDPad,CuDef*
%ADD18RoundRect,0.614515X1.505485X-1.290485X1.505485X1.290485X-1.505485X1.290485X-1.505485X-1.290485X0*%
G04 #@! TD*
G04 #@! TA.AperFunction,ComponentPad*
%ADD19C,4.500000*%
G04 #@! TD*
G04 #@! TA.AperFunction,ViaPad*
%ADD20C,0.600000*%
G04 #@! TD*
G04 #@! TA.AperFunction,ViaPad*
%ADD21C,0.500000*%
G04 #@! TD*
G04 #@! TA.AperFunction,Conductor*
%ADD22C,0.400000*%
G04 #@! TD*
G04 #@! TA.AperFunction,Conductor*
%ADD23C,3.000000*%
G04 #@! TD*
G04 #@! TA.AperFunction,Conductor*
%ADD24C,2.000000*%
G04 #@! TD*
G04 #@! TA.AperFunction,Conductor*
%ADD25C,0.200000*%
G04 #@! TD*
G04 #@! TA.AperFunction,Conductor*
%ADD26C,1.000000*%
G04 #@! TD*
G04 #@! TA.AperFunction,Profile*
%ADD27C,0.050000*%
G04 #@! TD*
G04 APERTURE END LIST*
D10*
G04 #@! TO.P,R4,1*
G04 #@! TO.N,/6.5V Dual Rail Power/-15V*
X110350000Y-105670000D03*
G04 #@! TO.P,R4,2*
G04 #@! TO.N,Net-(D4-K)*
X110350000Y-108770000D03*
G04 #@! TD*
D11*
G04 #@! TO.P,U3,1,Vin_1*
G04 #@! TO.N,GND*
X200000000Y-73330000D03*
D12*
G04 #@! TO.P,U3,2,GND_2*
G04 #@! TO.N,Net-(U3-GND)*
X202540000Y-73330000D03*
G04 #@! TO.P,U3,3,Vout_3*
G04 #@! TO.N,Net-(U3-Vout)*
X205080000Y-73330000D03*
G04 #@! TD*
D13*
G04 #@! TO.P,C5,1*
G04 #@! TO.N,Net-(U2-Vin)*
X188910000Y-129210000D03*
G04 #@! TO.P,C5,2*
G04 #@! TO.N,GND*
X188910000Y-126085000D03*
G04 #@! TD*
D14*
G04 #@! TO.P,L2,1,1_1*
G04 #@! TO.N,Net-(U3-GND)*
X184200000Y-73330000D03*
G04 #@! TO.P,L2,2,2_2*
G04 #@! TO.N,/6.5V Dual Rail Power/-15V*
X180100000Y-73330000D03*
G04 #@! TD*
D15*
G04 #@! TO.P,D4,1,K_1*
G04 #@! TO.N,Net-(D4-K)*
X103500000Y-108770000D03*
D16*
G04 #@! TO.P,D4,2,A_2*
G04 #@! TO.N,GND*
X103500000Y-106230000D03*
G04 #@! TD*
D13*
G04 #@! TO.P,C9,1*
G04 #@! TO.N,/6.5V Dual Rail Power/+15V*
X172600000Y-129210000D03*
G04 #@! TO.P,C9,2*
G04 #@! TO.N,GND*
X172600000Y-126085000D03*
G04 #@! TD*
G04 #@! TO.P,C6,1*
G04 #@! TO.N,Net-(U2-Vin)*
X192260000Y-129210000D03*
G04 #@! TO.P,C6,2*
G04 #@! TO.N,GND*
X192260000Y-126085000D03*
G04 #@! TD*
D10*
G04 #@! TO.P,R2,1*
G04 #@! TO.N,GND*
X110350000Y-90670000D03*
G04 #@! TO.P,R2,2*
G04 #@! TO.N,Net-(D1-K)*
X110350000Y-93770000D03*
G04 #@! TD*
D15*
G04 #@! TO.P,D2,1,K_1*
G04 #@! TO.N,Net-(D2-K)*
X103500000Y-123770000D03*
D16*
G04 #@! TO.P,D2,2,A_2*
G04 #@! TO.N,GND*
X103500000Y-121230000D03*
G04 #@! TD*
D11*
G04 #@! TO.P,U2,1,Vin_1*
G04 #@! TO.N,Net-(U2-Vin)*
X200000000Y-129210000D03*
D12*
G04 #@! TO.P,U2,2,GND_2*
G04 #@! TO.N,GND*
X202540000Y-129210000D03*
G04 #@! TO.P,U2,3,Vout_3*
G04 #@! TO.N,Net-(U2-Vout)*
X205080000Y-129210000D03*
G04 #@! TD*
D17*
G04 #@! TO.P,L1,1,1_1*
G04 #@! TO.N,/6.5V Dual Rail Power/+15V*
X180100000Y-129210000D03*
G04 #@! TO.P,L1,2,2_2*
G04 #@! TO.N,Net-(U2-Vin)*
X184200000Y-129210000D03*
G04 #@! TD*
D15*
G04 #@! TO.P,D3,1,K_1*
G04 #@! TO.N,Net-(D3-K)*
X103500000Y-78770000D03*
D16*
G04 #@! TO.P,D3,2,A_2*
G04 #@! TO.N,/6.5V Dual Rail Power/+15V*
X103500000Y-76230000D03*
G04 #@! TD*
D10*
G04 #@! TO.P,R3,1*
G04 #@! TO.N,GND*
X110350000Y-75670000D03*
G04 #@! TO.P,R3,2*
G04 #@! TO.N,Net-(D3-K)*
X110350000Y-78770000D03*
G04 #@! TD*
D18*
G04 #@! TO.P,F2,1*
G04 #@! TO.N,Net-(U3-Vout)*
X226815000Y-73330000D03*
G04 #@! TO.P,F2,2*
G04 #@! TO.N,/6.5V Dual Rail Power/-6.5V*
X233185000Y-73330000D03*
G04 #@! TD*
D13*
G04 #@! TO.P,C3,1*
G04 #@! TO.N,GND*
X213000000Y-76455000D03*
G04 #@! TO.P,C3,2*
G04 #@! TO.N,Net-(U3-Vout)*
X213000000Y-73330000D03*
G04 #@! TD*
G04 #@! TO.P,C4,1*
G04 #@! TO.N,GND*
X217000000Y-76455000D03*
G04 #@! TO.P,C4,2*
G04 #@! TO.N,Net-(U3-Vout)*
X217000000Y-73330000D03*
G04 #@! TD*
G04 #@! TO.P,C2,1*
G04 #@! TO.N,Net-(U2-Vout)*
X217000000Y-129210000D03*
G04 #@! TO.P,C2,2*
G04 #@! TO.N,GND*
X217000000Y-126085000D03*
G04 #@! TD*
G04 #@! TO.P,C12,1*
G04 #@! TO.N,GND*
X176300000Y-76455000D03*
G04 #@! TO.P,C12,2*
G04 #@! TO.N,/6.5V Dual Rail Power/-15V*
X176300000Y-73330000D03*
G04 #@! TD*
D15*
G04 #@! TO.P,D1,1,K_1*
G04 #@! TO.N,Net-(D1-K)*
X103500000Y-93770000D03*
D16*
G04 #@! TO.P,D1,2,A_2*
G04 #@! TO.N,/6.5V Dual Rail Power/+6.5V*
X103500000Y-91230000D03*
G04 #@! TD*
D19*
G04 #@! TO.P,U1,1,Mounting_Hole_1_1*
G04 #@! TO.N,unconnected-(U1D-Mounting_Hole_1-Pad1)*
X257000000Y-55550000D03*
G04 #@! TO.P,U1,2,Mounting_Hole_2_2*
G04 #@! TO.N,unconnected-(U1D-Mounting_Hole_2-Pad2)*
X257000000Y-144450000D03*
D15*
G04 #@! TO.P,U1,a2,a2_a2*
G04 #@! TO.N,/6.5V Dual Rail Power/-15V*
X254460000Y-63170000D03*
G04 #@! TO.P,U1,a4,a4_a4*
G04 #@! TO.N,GND*
X254460000Y-68250000D03*
G04 #@! TO.P,U1,a6,a6_a6*
G04 #@! TO.N,/6.5V Dual Rail Power/-6.5V*
X254460000Y-73330000D03*
G04 #@! TO.P,U1,a8,a8_a8*
G04 #@! TO.N,GND*
X254460000Y-78410000D03*
G04 #@! TO.P,U1,a10,a10_a10*
G04 #@! TO.N,unconnected-(U1-Pada10)*
X254460000Y-83490000D03*
G04 #@! TO.P,U1,a12,a12_a12*
G04 #@! TO.N,unconnected-(U1-Pada12)*
X254460000Y-88570000D03*
G04 #@! TO.P,U1,a14,a14_a14*
G04 #@! TO.N,unconnected-(U1-Pada14)*
X254460000Y-93650000D03*
G04 #@! TO.P,U1,a16,a16_a16*
G04 #@! TO.N,unconnected-(U1-Pada16)*
X254460000Y-98730000D03*
G04 #@! TO.P,U1,a18,a18_a18*
G04 #@! TO.N,unconnected-(U1-Pada18)*
X254460000Y-103810000D03*
G04 #@! TO.P,U1,a20,a20_a20*
G04 #@! TO.N,unconnected-(U1-Pada20)*
X254460000Y-108890000D03*
G04 #@! TO.P,U1,a22,a22_a22*
G04 #@! TO.N,unconnected-(U1-Pada22)*
X254460000Y-113970000D03*
G04 #@! TO.P,U1,a24,a24_a24*
G04 #@! TO.N,unconnected-(U1-Pada24)*
X254460000Y-119050000D03*
G04 #@! TO.P,U1,a26,a26_a26*
G04 #@! TO.N,GND*
X254460000Y-124130000D03*
G04 #@! TO.P,U1,a28,a28_a28*
G04 #@! TO.N,/6.5V Dual Rail Power/+6.5V*
X254460000Y-129210000D03*
G04 #@! TO.P,U1,a30,a30_a30*
G04 #@! TO.N,GND*
X254460000Y-134290000D03*
G04 #@! TO.P,U1,a32,a32_a32*
G04 #@! TO.N,/6.5V Dual Rail Power/+15V*
X254460000Y-139370000D03*
G04 #@! TO.P,U1,c2,c2_c2*
G04 #@! TO.N,/6.5V Dual Rail Power/-15V*
X251920000Y-63170000D03*
G04 #@! TO.P,U1,c4,c4_c4*
G04 #@! TO.N,GND*
X251920000Y-68250000D03*
G04 #@! TO.P,U1,c6,c6_c6*
G04 #@! TO.N,/6.5V Dual Rail Power/-6.5V*
X251920000Y-73330000D03*
G04 #@! TO.P,U1,c8,c8_c8*
G04 #@! TO.N,GND*
X251920000Y-78410000D03*
G04 #@! TO.P,U1,c10,c10_c10*
G04 #@! TO.N,unconnected-(U1-Padc10)*
X251920000Y-83490000D03*
G04 #@! TO.P,U1,c12,c12_c12*
G04 #@! TO.N,unconnected-(U1-Padc12)*
X251920000Y-88570000D03*
G04 #@! TO.P,U1,c14,c14_c14*
G04 #@! TO.N,unconnected-(U1-Padc14)*
X251920000Y-93650000D03*
G04 #@! TO.P,U1,c16,c16_c16*
G04 #@! TO.N,unconnected-(U1-Padc16)*
X251920000Y-98730000D03*
G04 #@! TO.P,U1,c18,c18_c18*
G04 #@! TO.N,unconnected-(U1-Padc18)*
X251920000Y-103810000D03*
G04 #@! TO.P,U1,c20,c20_c20*
G04 #@! TO.N,unconnected-(U1-Padc20)*
X251920000Y-108890000D03*
G04 #@! TO.P,U1,c22,c22_c22*
G04 #@! TO.N,unconnected-(U1-Padc22)*
X251920000Y-113970000D03*
G04 #@! TO.P,U1,c24,c24_c24*
G04 #@! TO.N,unconnected-(U1-Padc24)*
X251920000Y-119050000D03*
G04 #@! TO.P,U1,c26,c26_c26*
G04 #@! TO.N,GND*
X251920000Y-124130000D03*
G04 #@! TO.P,U1,c28,c28_c28*
G04 #@! TO.N,/6.5V Dual Rail Power/+6.5V*
X251920000Y-129210000D03*
G04 #@! TO.P,U1,c30,c30_c30*
G04 #@! TO.N,GND*
X251920000Y-134290000D03*
G04 #@! TO.P,U1,c32,c32_c32*
G04 #@! TO.N,/6.5V Dual Rail Power/+15V*
X251920000Y-139370000D03*
G04 #@! TO.P,U1,e2,e2_e2*
G04 #@! TO.N,/6.5V Dual Rail Power/-15V*
X249380000Y-63170000D03*
G04 #@! TO.P,U1,e4,e4_e4*
G04 #@! TO.N,GND*
X249380000Y-68250000D03*
G04 #@! TO.P,U1,e6,e6_e6*
G04 #@! TO.N,/6.5V Dual Rail Power/-6.5V*
X249380000Y-73330000D03*
G04 #@! TO.P,U1,e8,e8_e8*
G04 #@! TO.N,GND*
X249380000Y-78410000D03*
G04 #@! TO.P,U1,e10,e10_e10*
G04 #@! TO.N,unconnected-(U1-Pade10)*
X249380000Y-83490000D03*
G04 #@! TO.P,U1,e12,e12_e12*
G04 #@! TO.N,unconnected-(U1-Pade12)*
X249380000Y-88570000D03*
G04 #@! TO.P,U1,e14,e14_e14*
G04 #@! TO.N,unconnected-(U1-Pade14)*
X249380000Y-93650000D03*
G04 #@! TO.P,U1,e16,e16_e16*
G04 #@! TO.N,unconnected-(U1-Pade16)*
X249380000Y-98730000D03*
G04 #@! TO.P,U1,e18,e18_e18*
G04 #@! TO.N,unconnected-(U1-Pade18)*
X249380000Y-103810000D03*
G04 #@! TO.P,U1,e20,e20_e20*
G04 #@! TO.N,unconnected-(U1-Pade20)*
X249380000Y-108890000D03*
G04 #@! TO.P,U1,e22,e22_e22*
G04 #@! TO.N,unconnected-(U1-Pade22)*
X249380000Y-113970000D03*
G04 #@! TO.P,U1,e24,e24_e24*
G04 #@! TO.N,unconnected-(U1-Pade24)*
X249380000Y-119050000D03*
G04 #@! TO.P,U1,e26,e26_e26*
G04 #@! TO.N,GND*
X249380000Y-124130000D03*
G04 #@! TO.P,U1,e28,e28_e28*
G04 #@! TO.N,/6.5V Dual Rail Power/+6.5V*
X249380000Y-129210000D03*
G04 #@! TO.P,U1,e30,e30_e30*
G04 #@! TO.N,GND*
X249380000Y-134290000D03*
G04 #@! TO.P,U1,e32,e32_e32*
G04 #@! TO.N,/6.5V Dual Rail Power/+15V*
X249380000Y-139370000D03*
G04 #@! TD*
D13*
G04 #@! TO.P,C8,1*
G04 #@! TO.N,GND*
X192260000Y-76455000D03*
G04 #@! TO.P,C8,2*
G04 #@! TO.N,Net-(U3-GND)*
X192260000Y-73330000D03*
G04 #@! TD*
G04 #@! TO.P,C11,1*
G04 #@! TO.N,GND*
X172600000Y-76455000D03*
G04 #@! TO.P,C11,2*
G04 #@! TO.N,/6.5V Dual Rail Power/-15V*
X172600000Y-73330000D03*
G04 #@! TD*
D18*
G04 #@! TO.P,F1,1*
G04 #@! TO.N,Net-(U2-Vout)*
X226815000Y-129210000D03*
G04 #@! TO.P,F1,2*
G04 #@! TO.N,/6.5V Dual Rail Power/+6.5V*
X233185000Y-129210000D03*
G04 #@! TD*
D10*
G04 #@! TO.P,R1,1*
G04 #@! TO.N,/6.5V Dual Rail Power/-6.5V*
X110350000Y-120700000D03*
G04 #@! TO.P,R1,2*
G04 #@! TO.N,Net-(D2-K)*
X110350000Y-123800000D03*
G04 #@! TD*
D13*
G04 #@! TO.P,C1,1*
G04 #@! TO.N,Net-(U2-Vout)*
X213000000Y-129210000D03*
G04 #@! TO.P,C1,2*
G04 #@! TO.N,GND*
X213000000Y-126085000D03*
G04 #@! TD*
G04 #@! TO.P,C10,1*
G04 #@! TO.N,/6.5V Dual Rail Power/+15V*
X176300000Y-129210000D03*
G04 #@! TO.P,C10,2*
G04 #@! TO.N,GND*
X176300000Y-126085000D03*
G04 #@! TD*
G04 #@! TO.P,C7,1*
G04 #@! TO.N,GND*
X188910000Y-76455000D03*
G04 #@! TO.P,C7,2*
G04 #@! TO.N,Net-(U3-GND)*
X188910000Y-73330000D03*
G04 #@! TD*
D20*
G04 #@! TO.N,GND*
X257400000Y-116500000D03*
X257400000Y-86000000D03*
X257400000Y-91100000D03*
X257400000Y-96200000D03*
X257400000Y-101300000D03*
X257400000Y-106400000D03*
X257400000Y-111400000D03*
X116200000Y-78200000D03*
X106400000Y-87000000D03*
X109400000Y-83700000D03*
X103700000Y-83600000D03*
X106000000Y-102200000D03*
X103300000Y-98600000D03*
X109300000Y-98700000D03*
X114300000Y-103800000D03*
X105200000Y-114600000D03*
X127500000Y-134700000D03*
X117500000Y-134700000D03*
X107500000Y-134700000D03*
X153200000Y-139000000D03*
X123200000Y-139000000D03*
X143200000Y-139000000D03*
X133200000Y-139000000D03*
X231200000Y-134900000D03*
X221200000Y-134900000D03*
X211200000Y-134900000D03*
X241200000Y-134900000D03*
X192900000Y-134900000D03*
X182900000Y-134900000D03*
X172900000Y-134900000D03*
X202900000Y-134900000D03*
X231056537Y-87100000D03*
X221056537Y-87100000D03*
X211056537Y-87100000D03*
X241056537Y-87100000D03*
X232500000Y-108000000D03*
X222500000Y-108000000D03*
X212500000Y-108000000D03*
X242500000Y-108000000D03*
X221300000Y-116000000D03*
X211300000Y-116000000D03*
X201300000Y-116000000D03*
X231300000Y-116000000D03*
X154400000Y-127100000D03*
X144400000Y-127100000D03*
X134400000Y-127100000D03*
X164400000Y-127100000D03*
X196586000Y-145600000D03*
X166586000Y-145600000D03*
X136586000Y-145600000D03*
X186586000Y-145600000D03*
X176586000Y-145600000D03*
X226586000Y-145600000D03*
X156586000Y-145600000D03*
X116586000Y-145600000D03*
X206586000Y-145600000D03*
X246586000Y-145600000D03*
X126586000Y-145600000D03*
X146586000Y-145600000D03*
X216586000Y-145600000D03*
X236586000Y-145600000D03*
X187500000Y-113100000D03*
X157500000Y-113100000D03*
X177500000Y-113100000D03*
X137500000Y-113100000D03*
X147500000Y-113100000D03*
X167500000Y-113100000D03*
X195700000Y-104900000D03*
X165700000Y-104900000D03*
X185700000Y-104900000D03*
X145700000Y-104900000D03*
X155700000Y-104900000D03*
X175700000Y-104900000D03*
X186000000Y-96400000D03*
X156000000Y-96400000D03*
X176000000Y-96400000D03*
X136000000Y-96400000D03*
X146000000Y-96400000D03*
X166000000Y-96400000D03*
X176800000Y-87200000D03*
X146800000Y-87200000D03*
X166800000Y-87200000D03*
X126800000Y-87200000D03*
X136800000Y-87200000D03*
X156800000Y-87200000D03*
X164000000Y-75200000D03*
X134000000Y-75200000D03*
X154000000Y-75200000D03*
X124000000Y-75200000D03*
X144000000Y-75200000D03*
X230500000Y-67900000D03*
X200500000Y-67900000D03*
X220500000Y-67900000D03*
X180500000Y-67900000D03*
X190500000Y-67900000D03*
X210500000Y-67900000D03*
X158000000Y-62800000D03*
X128000000Y-62800000D03*
X148000000Y-62800000D03*
X108000000Y-62800000D03*
X118000000Y-62800000D03*
X138000000Y-62800000D03*
X145500000Y-55296000D03*
X115500000Y-55296000D03*
X135500000Y-55296000D03*
X125500000Y-55296000D03*
X195500000Y-55296000D03*
X185500000Y-55296000D03*
X165500000Y-55296000D03*
X155500000Y-55296000D03*
X175500000Y-55296000D03*
X235500000Y-55296000D03*
X225500000Y-55296000D03*
X215500000Y-55296000D03*
X205500000Y-55296000D03*
X245500000Y-55296000D03*
G04 #@! TO.N,/6.5V Dual Rail Power/-15V*
X119500000Y-72100000D03*
X114000000Y-81600000D03*
D21*
G04 #@! TO.N,GND*
X217000000Y-77700000D03*
X172600000Y-77700000D03*
X172600000Y-124840000D03*
X176300000Y-124840000D03*
X213000000Y-124840000D03*
X110350000Y-89425000D03*
X188910000Y-77700000D03*
X192260000Y-77700000D03*
X192260000Y-124840000D03*
X188910000Y-124840000D03*
X213000000Y-77700000D03*
X176300000Y-77700000D03*
X110350000Y-74425000D03*
X217000000Y-124840000D03*
D20*
G04 #@! TO.N,/6.5V Dual Rail Power/-6.5V*
X122500000Y-81300000D03*
X117600000Y-81300000D03*
G04 #@! TO.N,/6.5V Dual Rail Power/+6.5V*
X125600000Y-94600000D03*
G04 #@! TD*
G04 #@! TO.N,/6.5V Dual Rail Power/-15V*
D22*
X114000000Y-81600000D02*
X114000000Y-98700000D01*
X110350000Y-102350000D02*
X110350000Y-105670000D01*
D23*
X171480000Y-63170000D02*
X167900000Y-66750000D01*
D22*
X122600000Y-69000000D02*
X119500000Y-72100000D01*
D24*
X180100000Y-73330000D02*
X172600000Y-73330000D01*
D23*
X249380000Y-63170000D02*
X171480000Y-63170000D01*
X167900000Y-66750000D02*
X167900000Y-69000000D01*
X170080000Y-73330000D02*
X172600000Y-73330000D01*
X167900000Y-71150000D02*
X170080000Y-73330000D01*
X254460000Y-63170000D02*
X249380000Y-63170000D01*
D22*
X114000000Y-98700000D02*
X110350000Y-102350000D01*
X167900000Y-69000000D02*
X122600000Y-69000000D01*
D23*
X167900000Y-69000000D02*
X167900000Y-71150000D01*
G04 #@! TO.N,Net-(D4-K)*
D25*
X103500000Y-108770000D02*
X110350000Y-108770000D01*
G04 #@! TO.N,GND*
D26*
X176300000Y-124840000D02*
X176300000Y-126085000D01*
X110350000Y-74425000D02*
X110350000Y-75670000D01*
X172600000Y-77700000D02*
X172600000Y-76455000D01*
X213000000Y-77700000D02*
X213000000Y-76455000D01*
X192260000Y-124840000D02*
X192260000Y-126085000D01*
X213000000Y-124840000D02*
X213000000Y-126085000D01*
X188910000Y-124840000D02*
X188910000Y-126085000D01*
X176300000Y-77700000D02*
X176300000Y-76455000D01*
X172600000Y-124840000D02*
X172600000Y-126085000D01*
X217000000Y-77700000D02*
X217000000Y-76455000D01*
X110350000Y-89425000D02*
X110350000Y-90670000D01*
X192260000Y-77700000D02*
X192260000Y-76455000D01*
X217000000Y-124840000D02*
X217000000Y-126085000D01*
X188910000Y-77700000D02*
X188910000Y-76455000D01*
G04 #@! TO.N,Net-(U3-GND)*
D24*
X198600000Y-77200000D02*
X194730000Y-73330000D01*
X194730000Y-73330000D02*
X184200000Y-73330000D01*
X202540000Y-73330000D02*
X202540000Y-76010000D01*
X202540000Y-76010000D02*
X201350000Y-77200000D01*
X201350000Y-77200000D02*
X198600000Y-77200000D01*
G04 #@! TO.N,Net-(U3-Vout)*
X205080000Y-73330000D02*
X227545000Y-73330000D01*
G04 #@! TO.N,Net-(U2-Vin)*
X200000000Y-129210000D02*
X184200000Y-129210000D01*
G04 #@! TO.N,/6.5V Dual Rail Power/+15V*
D22*
X103500000Y-74400000D02*
X103500000Y-76230000D01*
D23*
X170140000Y-129210000D02*
X172600000Y-129210000D01*
X168050000Y-134300000D02*
X168050000Y-131300000D01*
D24*
X180100000Y-129210000D02*
X172600000Y-129210000D01*
D22*
X120000000Y-76700000D02*
X114800000Y-71500000D01*
D23*
X168050000Y-137050000D02*
X168050000Y-134300000D01*
X249380000Y-139370000D02*
X170370000Y-139370000D01*
D22*
X120000000Y-120000000D02*
X120000000Y-76700000D01*
X114800000Y-71500000D02*
X106400000Y-71500000D01*
X106400000Y-71500000D02*
X103500000Y-74400000D01*
X134300000Y-134300000D02*
X120000000Y-120000000D01*
D23*
X170370000Y-139370000D02*
X168050000Y-137050000D01*
X168050000Y-131300000D02*
X170140000Y-129210000D01*
D22*
X168050000Y-134300000D02*
X134300000Y-134300000D01*
D23*
X254460000Y-139370000D02*
X249380000Y-139370000D01*
G04 #@! TO.N,Net-(D1-K)*
D25*
X103500000Y-93770000D02*
X110350000Y-93770000D01*
G04 #@! TO.N,Net-(D2-K)*
X103500000Y-123770000D02*
X110320000Y-123770000D01*
X110320000Y-123770000D02*
X110350000Y-123800000D01*
G04 #@! TO.N,Net-(U2-Vout)*
D24*
X205080000Y-129210000D02*
X227545000Y-129210000D01*
G04 #@! TO.N,Net-(D3-K)*
D25*
X103500000Y-78770000D02*
X110350000Y-78770000D01*
G04 #@! TO.N,/6.5V Dual Rail Power/-6.5V*
D22*
X233185000Y-78015000D02*
X229900000Y-81300000D01*
D23*
X254460000Y-73330000D02*
X249380000Y-73330000D01*
D22*
X110350000Y-117650000D02*
X110350000Y-120700000D01*
D23*
X249380000Y-73330000D02*
X233185000Y-73330000D01*
D22*
X229900000Y-81300000D02*
X122500000Y-81300000D01*
X233185000Y-73330000D02*
X233185000Y-78015000D01*
X117600000Y-110400000D02*
X110350000Y-117650000D01*
X117600000Y-81300000D02*
X117600000Y-110400000D01*
G04 #@! TO.N,/6.5V Dual Rail Power/+6.5V*
D23*
X249380000Y-129210000D02*
X233185000Y-129210000D01*
D22*
X233185000Y-124585000D02*
X230000000Y-121400000D01*
X125600000Y-117500000D02*
X125600000Y-94600000D01*
D23*
X254460000Y-129210000D02*
X249380000Y-129210000D01*
D22*
X233185000Y-129210000D02*
X233185000Y-124585000D01*
X230000000Y-121400000D02*
X129500000Y-121400000D01*
X129500000Y-121400000D02*
X125600000Y-117500000D01*
G04 #@! TD*
G04 #@! TA.AperFunction,Conductor*
G04 #@! TO.N,GND*
G36*
X117706374Y-113624407D02*
G01*
X117768998Y-113687031D01*
X117798249Y-113770624D01*
X117799500Y-113792905D01*
X117799500Y-119849565D01*
X117799499Y-119849599D01*
X117799499Y-120144234D01*
X117837150Y-120430215D01*
X117911805Y-120708837D01*
X117911808Y-120708846D01*
X117967886Y-120844228D01*
X118009450Y-120944574D01*
X118022195Y-120975342D01*
X118022196Y-120975345D01*
X118166421Y-121225151D01*
X118326773Y-121434127D01*
X118342026Y-121454004D01*
X118545996Y-121657974D01*
X118545999Y-121657976D01*
X118550990Y-121662967D01*
X118550989Y-121662967D01*
X118550997Y-121662974D01*
X132638123Y-135750100D01*
X132638132Y-135750110D01*
X132638133Y-135750110D01*
X132642022Y-135753999D01*
X132642026Y-135754004D01*
X132746355Y-135858333D01*
X132845997Y-135957975D01*
X133074848Y-136133578D01*
X133192957Y-136201768D01*
X133324655Y-136277804D01*
X133435042Y-136323527D01*
X133591154Y-136388192D01*
X133869783Y-136462849D01*
X134155766Y-136500500D01*
X134155769Y-136500501D01*
X134155771Y-136500501D01*
X134450402Y-136500501D01*
X134450434Y-136500500D01*
X164350500Y-136500500D01*
X164436843Y-136520207D01*
X164506084Y-136575426D01*
X164544511Y-136655218D01*
X164549500Y-136699500D01*
X164549500Y-137221975D01*
X164583211Y-137564251D01*
X164644334Y-137871535D01*
X164644334Y-137871539D01*
X164644335Y-137871539D01*
X164650308Y-137901570D01*
X164750151Y-138230709D01*
X164881768Y-138548461D01*
X165043899Y-138851785D01*
X165043902Y-138851791D01*
X165234979Y-139137759D01*
X165453164Y-139403618D01*
X165453182Y-139403638D01*
X167769971Y-141720425D01*
X167769982Y-141720437D01*
X167769983Y-141720437D01*
X167773167Y-141723621D01*
X167773172Y-141723627D01*
X168016368Y-141966823D01*
X168016379Y-141966833D01*
X168077713Y-142017169D01*
X168256666Y-142164032D01*
X168282239Y-142185019D01*
X168496231Y-142328004D01*
X168568210Y-142376099D01*
X168568211Y-142376099D01*
X168568212Y-142376100D01*
X168653865Y-142421882D01*
X168871538Y-142538231D01*
X168871542Y-142538233D01*
X169189290Y-142669848D01*
X169189295Y-142669850D01*
X169518422Y-142769690D01*
X169855750Y-142836789D01*
X170198031Y-142870500D01*
X170541969Y-142870500D01*
X249208031Y-142870500D01*
X252301000Y-142870500D01*
X252387343Y-142890207D01*
X252456584Y-142945426D01*
X252495011Y-143025218D01*
X252500000Y-143069500D01*
X252500000Y-147801000D01*
X252480293Y-147887343D01*
X252425074Y-147956584D01*
X252345282Y-147995011D01*
X252301000Y-148000000D01*
X107699000Y-148000000D01*
X107612657Y-147980293D01*
X107543416Y-147925074D01*
X107504989Y-147845282D01*
X107500000Y-147801000D01*
X107500000Y-141000000D01*
X101699000Y-141000000D01*
X101612657Y-140980293D01*
X101543416Y-140925074D01*
X101504989Y-140845282D01*
X101500000Y-140801000D01*
X101500000Y-126106302D01*
X101519707Y-126019959D01*
X101574926Y-125950718D01*
X101654718Y-125912291D01*
X101743282Y-125912291D01*
X101823074Y-125950718D01*
X101876412Y-125993253D01*
X101905857Y-126016735D01*
X101905863Y-126016740D01*
X102167424Y-126181089D01*
X102167430Y-126181091D01*
X102167435Y-126181095D01*
X102445771Y-126315135D01*
X102737364Y-126417168D01*
X103038548Y-126485911D01*
X103345535Y-126520500D01*
X103345536Y-126520500D01*
X103654464Y-126520500D01*
X103654465Y-126520500D01*
X103961452Y-126485911D01*
X104262636Y-126417168D01*
X104554229Y-126315135D01*
X104832565Y-126181095D01*
X104835903Y-126178998D01*
X105094135Y-126016740D01*
X105094134Y-126016740D01*
X105094143Y-126016735D01*
X105187019Y-125942668D01*
X105223074Y-125913916D01*
X105302866Y-125875489D01*
X105347148Y-125870500D01*
X108141795Y-125870500D01*
X108228138Y-125890207D01*
X108272796Y-125919701D01*
X108356902Y-125993253D01*
X108601765Y-126155390D01*
X108608130Y-126159604D01*
X108711110Y-126209500D01*
X108879284Y-126290984D01*
X108879289Y-126290986D01*
X109019625Y-126337102D01*
X109165531Y-126385050D01*
X109461762Y-126440123D01*
X109638979Y-126450500D01*
X111061020Y-126450499D01*
X111238238Y-126440123D01*
X111534469Y-126385050D01*
X111820716Y-126290984D01*
X112091870Y-126159604D01*
X112343095Y-125993255D01*
X112569906Y-125794906D01*
X112768255Y-125568095D01*
X112934604Y-125316870D01*
X113065984Y-125045716D01*
X113160050Y-124759469D01*
X113215123Y-124463238D01*
X113225500Y-124286021D01*
X113225499Y-123313980D01*
X113215123Y-123136762D01*
X113160050Y-122840531D01*
X113065984Y-122554284D01*
X112960593Y-122336770D01*
X112940681Y-122250475D01*
X112960181Y-122164086D01*
X112960594Y-122163229D01*
X113065984Y-121945715D01*
X113065986Y-121945710D01*
X113069727Y-121934326D01*
X113160050Y-121659469D01*
X113215123Y-121363238D01*
X113225500Y-121186021D01*
X113225499Y-120213980D01*
X113215123Y-120036762D01*
X113160050Y-119740531D01*
X113102834Y-119566421D01*
X113065986Y-119454289D01*
X113065984Y-119454284D01*
X112944941Y-119204465D01*
X112934604Y-119183130D01*
X112932394Y-119179793D01*
X112768253Y-118931902D01*
X112616375Y-118758231D01*
X112574371Y-118680263D01*
X112570355Y-118591791D01*
X112605124Y-118510337D01*
X112625454Y-118486522D01*
X117459786Y-113652191D01*
X117534774Y-113605072D01*
X117622781Y-113595156D01*
X117706374Y-113624407D01*
G37*
G04 #@! TD.AperFunction*
G04 #@! TA.AperFunction,Conductor*
G36*
X258419170Y-59647743D02*
G01*
X258476939Y-59714871D01*
X258499861Y-59800417D01*
X258500000Y-59807858D01*
X258500000Y-140192141D01*
X258480293Y-140278484D01*
X258425074Y-140347725D01*
X258345282Y-140386152D01*
X258256718Y-140386152D01*
X258249495Y-140384360D01*
X258028706Y-140325200D01*
X257950406Y-140283818D01*
X257897815Y-140212560D01*
X257881350Y-140125540D01*
X257885033Y-140094165D01*
X257926789Y-139884250D01*
X257960500Y-139541969D01*
X257960500Y-139198031D01*
X257926789Y-138855750D01*
X257859690Y-138518422D01*
X257759850Y-138189295D01*
X257640671Y-137901570D01*
X257628230Y-137871535D01*
X257466099Y-137568211D01*
X257418004Y-137496232D01*
X257275019Y-137282240D01*
X257056828Y-137016373D01*
X257056821Y-137016366D01*
X257056813Y-137016357D01*
X256813642Y-136773186D01*
X256813632Y-136773177D01*
X256813627Y-136773172D01*
X256723857Y-136699500D01*
X256547768Y-136554987D01*
X256547764Y-136554984D01*
X256547760Y-136554981D01*
X256298143Y-136388192D01*
X256261788Y-136363900D01*
X255958461Y-136201768D01*
X255640709Y-136070151D01*
X255462138Y-136015982D01*
X255311578Y-135970310D01*
X255249561Y-135957974D01*
X254974252Y-135903211D01*
X254820667Y-135888084D01*
X254736671Y-135860008D01*
X254673176Y-135798268D01*
X254642756Y-135715093D01*
X254651437Y-135626956D01*
X254697500Y-135551314D01*
X254771820Y-135503149D01*
X254778679Y-135500782D01*
X254939825Y-135448422D01*
X254939832Y-135448419D01*
X255115140Y-135359097D01*
X255191079Y-135303923D01*
X255191079Y-135303921D01*
X254645177Y-134758019D01*
X254652993Y-134755925D01*
X254767007Y-134690099D01*
X254860099Y-134597007D01*
X254925925Y-134482993D01*
X254928019Y-134475177D01*
X255473921Y-135021079D01*
X255473923Y-135021079D01*
X255529097Y-134945140D01*
X255618419Y-134769832D01*
X255618421Y-134769828D01*
X255679219Y-134582712D01*
X255679222Y-134582701D01*
X255710000Y-134388376D01*
X255710000Y-134191623D01*
X255679222Y-133997298D01*
X255679219Y-133997287D01*
X255618421Y-133810171D01*
X255618420Y-133810167D01*
X255529095Y-133634856D01*
X255473922Y-133558919D01*
X254928019Y-134104822D01*
X254925925Y-134097007D01*
X254860099Y-133982993D01*
X254767007Y-133889901D01*
X254652993Y-133824075D01*
X254645176Y-133821980D01*
X255191079Y-133276076D01*
X255191079Y-133276075D01*
X255115143Y-133220904D01*
X254939832Y-133131579D01*
X254939828Y-133131578D01*
X254778678Y-133079217D01*
X254702651Y-133033793D01*
X254653862Y-132959880D01*
X254641974Y-132872118D01*
X254669342Y-132787890D01*
X254730545Y-132723877D01*
X254813461Y-132692758D01*
X254820658Y-132691916D01*
X254974250Y-132676789D01*
X255311578Y-132609690D01*
X255640705Y-132509850D01*
X255958462Y-132378231D01*
X256261787Y-132216100D01*
X256547760Y-132025019D01*
X256813627Y-131806828D01*
X257056828Y-131563627D01*
X257275019Y-131297760D01*
X257466100Y-131011787D01*
X257628231Y-130708462D01*
X257759850Y-130390705D01*
X257859690Y-130061578D01*
X257926789Y-129724250D01*
X257960500Y-129381969D01*
X257960500Y-129038031D01*
X257926789Y-128695750D01*
X257859690Y-128358422D01*
X257759850Y-128029295D01*
X257628231Y-127711538D01*
X257466099Y-127408211D01*
X257403667Y-127314776D01*
X257275019Y-127122240D01*
X257056828Y-126856373D01*
X257056821Y-126856366D01*
X257056813Y-126856357D01*
X256813642Y-126613186D01*
X256813632Y-126613177D01*
X256813627Y-126613172D01*
X256626377Y-126459500D01*
X256547768Y-126394987D01*
X256547764Y-126394984D01*
X256547760Y-126394981D01*
X256404773Y-126299440D01*
X256261788Y-126203900D01*
X255958461Y-126041768D01*
X255640709Y-125910151D01*
X255335893Y-125817686D01*
X255311578Y-125810310D01*
X255311568Y-125810308D01*
X254974252Y-125743211D01*
X254820667Y-125728084D01*
X254736671Y-125700008D01*
X254673176Y-125638268D01*
X254642756Y-125555093D01*
X254651437Y-125466956D01*
X254697500Y-125391314D01*
X254771820Y-125343149D01*
X254778679Y-125340782D01*
X254939825Y-125288422D01*
X254939832Y-125288419D01*
X255115140Y-125199097D01*
X255191079Y-125143923D01*
X255191079Y-125143921D01*
X254645177Y-124598019D01*
X254652993Y-124595925D01*
X254767007Y-124530099D01*
X254860099Y-124437007D01*
X254925925Y-124322993D01*
X254928019Y-124315177D01*
X255473921Y-124861079D01*
X255473923Y-124861079D01*
X255529097Y-124785140D01*
X255618419Y-124609832D01*
X255618421Y-124609828D01*
X255679219Y-124422712D01*
X255679222Y-124422701D01*
X255710000Y-124228376D01*
X255710000Y-124031623D01*
X255679222Y-123837298D01*
X255679219Y-123837287D01*
X255618421Y-123650171D01*
X255618420Y-123650167D01*
X255529095Y-123474856D01*
X255473922Y-123398919D01*
X254928019Y-123944822D01*
X254925925Y-123937007D01*
X254860099Y-123822993D01*
X254767007Y-123729901D01*
X254652993Y-123664075D01*
X254645176Y-123661980D01*
X255191079Y-123116076D01*
X255191079Y-123116075D01*
X255115143Y-123060904D01*
X254939832Y-122971579D01*
X254939828Y-122971578D01*
X254752712Y-122910780D01*
X254752701Y-122910777D01*
X254558377Y-122880000D01*
X254361623Y-122880000D01*
X254167298Y-122910777D01*
X254167287Y-122910780D01*
X253980171Y-122971578D01*
X253980167Y-122971579D01*
X253804857Y-123060903D01*
X253728919Y-123116075D01*
X253728919Y-123116076D01*
X254274823Y-123661980D01*
X254267007Y-123664075D01*
X254152993Y-123729901D01*
X254059901Y-123822993D01*
X253994075Y-123937007D01*
X253991980Y-123944823D01*
X253446076Y-123398919D01*
X253446075Y-123398919D01*
X253390902Y-123474860D01*
X253367310Y-123521162D01*
X253310552Y-123589147D01*
X253229917Y-123625773D01*
X253141376Y-123623786D01*
X253062466Y-123583579D01*
X253012690Y-123521162D01*
X252989097Y-123474859D01*
X252933922Y-123398919D01*
X252388019Y-123944822D01*
X252385925Y-123937007D01*
X252320099Y-123822993D01*
X252227007Y-123729901D01*
X252112993Y-123664075D01*
X252105176Y-123661980D01*
X252651079Y-123116076D01*
X252651079Y-123116075D01*
X252575143Y-123060904D01*
X252399832Y-122971579D01*
X252399828Y-122971578D01*
X252212712Y-122910780D01*
X252212701Y-122910777D01*
X252018377Y-122880000D01*
X251821623Y-122880000D01*
X251627298Y-122910777D01*
X251627287Y-122910780D01*
X251440171Y-122971578D01*
X251440167Y-122971579D01*
X251264857Y-123060903D01*
X251188919Y-123116075D01*
X251188919Y-123116076D01*
X251734823Y-123661980D01*
X251727007Y-123664075D01*
X251612993Y-123729901D01*
X251519901Y-123822993D01*
X251454075Y-123937007D01*
X251451980Y-123944823D01*
X250906076Y-123398919D01*
X250906075Y-123398919D01*
X250850902Y-123474860D01*
X250827310Y-123521162D01*
X250770552Y-123589147D01*
X250689917Y-123625773D01*
X250601376Y-123623786D01*
X250522466Y-123583579D01*
X250472690Y-123521162D01*
X250449097Y-123474859D01*
X250393922Y-123398919D01*
X249848019Y-123944822D01*
X249845925Y-123937007D01*
X249780099Y-123822993D01*
X249687007Y-123729901D01*
X249572993Y-123664075D01*
X249565176Y-123661980D01*
X250111079Y-123116076D01*
X250111079Y-123116075D01*
X250035143Y-123060904D01*
X249859832Y-122971579D01*
X249859828Y-122971578D01*
X249672712Y-122910780D01*
X249672701Y-122910777D01*
X249478377Y-122880000D01*
X249281623Y-122880000D01*
X249087298Y-122910777D01*
X249087287Y-122910780D01*
X248900171Y-122971578D01*
X248900167Y-122971579D01*
X248724857Y-123060903D01*
X248648919Y-123116075D01*
X248648919Y-123116076D01*
X249194823Y-123661980D01*
X249187007Y-123664075D01*
X249072993Y-123729901D01*
X248979901Y-123822993D01*
X248914075Y-123937007D01*
X248911980Y-123944823D01*
X248366076Y-123398919D01*
X248366075Y-123398919D01*
X248310903Y-123474857D01*
X248221579Y-123650167D01*
X248221578Y-123650171D01*
X248160780Y-123837287D01*
X248160777Y-123837298D01*
X248130000Y-124031623D01*
X248130000Y-124228376D01*
X248160777Y-124422701D01*
X248160780Y-124422712D01*
X248221578Y-124609828D01*
X248221579Y-124609832D01*
X248310904Y-124785143D01*
X248366076Y-124861079D01*
X248911980Y-124315176D01*
X248914075Y-124322993D01*
X248979901Y-124437007D01*
X249072993Y-124530099D01*
X249187007Y-124595925D01*
X249194822Y-124598019D01*
X248648919Y-125143922D01*
X248648919Y-125143923D01*
X248724856Y-125199095D01*
X248900167Y-125288420D01*
X248900171Y-125288421D01*
X249001175Y-125321240D01*
X249077202Y-125366664D01*
X249125991Y-125440577D01*
X249137879Y-125528339D01*
X249110511Y-125612568D01*
X249049308Y-125676580D01*
X248966392Y-125707699D01*
X248939680Y-125709500D01*
X236144948Y-125709500D01*
X236058605Y-125689793D01*
X236042806Y-125681286D01*
X235894289Y-125592462D01*
X235894282Y-125592459D01*
X235599201Y-125462169D01*
X235599202Y-125462169D01*
X235599199Y-125462168D01*
X235599195Y-125462166D01*
X235599193Y-125462166D01*
X235527098Y-125440447D01*
X235450110Y-125396672D01*
X235399739Y-125323828D01*
X235385500Y-125249906D01*
X235385500Y-124736304D01*
X235385501Y-124736275D01*
X235385501Y-124440768D01*
X235385500Y-124440765D01*
X235357538Y-124228376D01*
X235347849Y-124154783D01*
X235273192Y-123876154D01*
X235208527Y-123720042D01*
X235162804Y-123609655D01*
X235018575Y-123359844D01*
X234876861Y-123175158D01*
X234842975Y-123130997D01*
X234769952Y-123057974D01*
X234639004Y-122927026D01*
X234638999Y-122927022D01*
X234635110Y-122923133D01*
X234635110Y-122923132D01*
X234635100Y-122923123D01*
X231662974Y-119950997D01*
X231662967Y-119950989D01*
X231662967Y-119950990D01*
X231657976Y-119945999D01*
X231657974Y-119945996D01*
X231454004Y-119742026D01*
X231454003Y-119742025D01*
X231454002Y-119742024D01*
X231225151Y-119566421D01*
X231029671Y-119453561D01*
X230975345Y-119422196D01*
X230975343Y-119422195D01*
X230975341Y-119422194D01*
X230864957Y-119376472D01*
X230708849Y-119311809D01*
X230708837Y-119311805D01*
X230430215Y-119237150D01*
X230430216Y-119237150D01*
X230144234Y-119199499D01*
X230144229Y-119199499D01*
X229855771Y-119199499D01*
X229849598Y-119199499D01*
X229849566Y-119199500D01*
X130493905Y-119199500D01*
X130407562Y-119179793D01*
X130353191Y-119141214D01*
X127858786Y-116646809D01*
X127811667Y-116571821D01*
X127800500Y-116506095D01*
X127800500Y-95302269D01*
X127807281Y-95250764D01*
X127846991Y-95102565D01*
X127861138Y-95049768D01*
X127900500Y-94750783D01*
X127900500Y-94449217D01*
X127861138Y-94150232D01*
X127783087Y-93858942D01*
X127667683Y-93580332D01*
X127573332Y-93416911D01*
X127516903Y-93319172D01*
X127333316Y-93079916D01*
X127120083Y-92866683D01*
X126880827Y-92683096D01*
X126723270Y-92592131D01*
X126619668Y-92532317D01*
X126341058Y-92416913D01*
X126341056Y-92416912D01*
X126341055Y-92416912D01*
X126195413Y-92377887D01*
X126049768Y-92338862D01*
X125750783Y-92299500D01*
X125449217Y-92299500D01*
X125150232Y-92338862D01*
X125150228Y-92338862D01*
X125150228Y-92338863D01*
X124858944Y-92416912D01*
X124580336Y-92532315D01*
X124580334Y-92532316D01*
X124319172Y-92683096D01*
X124079916Y-92866683D01*
X123866683Y-93079916D01*
X123683096Y-93319172D01*
X123532316Y-93580334D01*
X123532315Y-93580336D01*
X123439478Y-93804465D01*
X123416913Y-93858942D01*
X123338862Y-94150232D01*
X123299500Y-94449217D01*
X123299500Y-94750783D01*
X123330015Y-94982565D01*
X123338863Y-95049773D01*
X123392719Y-95250764D01*
X123399500Y-95302269D01*
X123399500Y-117349565D01*
X123399499Y-117349599D01*
X123399499Y-117644234D01*
X123437150Y-117930215D01*
X123511805Y-118208837D01*
X123511806Y-118208842D01*
X123511808Y-118208846D01*
X123544332Y-118287364D01*
X123622194Y-118475340D01*
X123622194Y-118475342D01*
X123766421Y-118725151D01*
X123925068Y-118931905D01*
X123942026Y-118954004D01*
X124145996Y-119157974D01*
X124145999Y-119157976D01*
X124150990Y-119162967D01*
X124150989Y-119162967D01*
X124150997Y-119162974D01*
X127838123Y-122850100D01*
X127838132Y-122850110D01*
X127838133Y-122850110D01*
X127842022Y-122853999D01*
X127842026Y-122854004D01*
X127959600Y-122971578D01*
X128045997Y-123057975D01*
X128274848Y-123233578D01*
X128399749Y-123305689D01*
X128524655Y-123377804D01*
X128657905Y-123432997D01*
X128791155Y-123488192D01*
X129069783Y-123562850D01*
X129355772Y-123600501D01*
X129355775Y-123600501D01*
X129650402Y-123600501D01*
X129650434Y-123600500D01*
X229006095Y-123600500D01*
X229092438Y-123620207D01*
X229146809Y-123658786D01*
X230689826Y-125201803D01*
X230736945Y-125276791D01*
X230746861Y-125364798D01*
X230717610Y-125448391D01*
X230654986Y-125511015D01*
X230629492Y-125524561D01*
X230475717Y-125592458D01*
X230475711Y-125592462D01*
X230198869Y-125758033D01*
X230122355Y-125817686D01*
X230042144Y-125855231D01*
X229953586Y-125854257D01*
X229877645Y-125817686D01*
X229801130Y-125758033D01*
X229594701Y-125634574D01*
X229524290Y-125592463D01*
X229524288Y-125592462D01*
X229524282Y-125592459D01*
X229229200Y-125462168D01*
X229229199Y-125462167D01*
X228920335Y-125369124D01*
X228920336Y-125369124D01*
X228920332Y-125369123D01*
X228920327Y-125369122D01*
X228920314Y-125369119D01*
X228602394Y-125314741D01*
X228602373Y-125314739D01*
X228602372Y-125314739D01*
X228412588Y-125304500D01*
X225217412Y-125304500D01*
X225027628Y-125314739D01*
X225027605Y-125314741D01*
X224709685Y-125369119D01*
X224709664Y-125369124D01*
X224400800Y-125462167D01*
X224400799Y-125462168D01*
X224105717Y-125592459D01*
X224105711Y-125592462D01*
X223828868Y-125758033D01*
X223574462Y-125956377D01*
X223379626Y-126151214D01*
X223304638Y-126198333D01*
X223238912Y-126209500D01*
X218555927Y-126209500D01*
X218469584Y-126189793D01*
X218400343Y-126134574D01*
X218361916Y-126054782D01*
X218361916Y-125966218D01*
X218399999Y-125887140D01*
X218399999Y-125622522D01*
X218399998Y-125622516D01*
X218389506Y-125519804D01*
X218389506Y-125519803D01*
X218334358Y-125353379D01*
X218242317Y-125204157D01*
X218242314Y-125204153D01*
X218118346Y-125080185D01*
X218118342Y-125080182D01*
X217969121Y-124988142D01*
X217802700Y-124932995D01*
X217699970Y-124922500D01*
X217200000Y-124922500D01*
X217200000Y-125887140D01*
X217214140Y-125916502D01*
X217231905Y-125944774D01*
X217233172Y-125956021D01*
X217238083Y-125966218D01*
X217238083Y-125999605D01*
X217241821Y-126032781D01*
X217238083Y-126043463D01*
X217238083Y-126054782D01*
X217223596Y-126084862D01*
X217212570Y-126116374D01*
X217204566Y-126124377D01*
X217199656Y-126134574D01*
X217173553Y-126155390D01*
X217149946Y-126178998D01*
X217139264Y-126182735D01*
X217130415Y-126189793D01*
X217097865Y-126197222D01*
X217066353Y-126208249D01*
X217044072Y-126209500D01*
X216955928Y-126209500D01*
X216869585Y-126189793D01*
X216800344Y-126134574D01*
X216761917Y-126054782D01*
X216761917Y-125966218D01*
X216800000Y-125887140D01*
X216800000Y-124922500D01*
X216300022Y-124922500D01*
X216300016Y-124922501D01*
X216197304Y-124932993D01*
X216197303Y-124932993D01*
X216030879Y-124988141D01*
X215881657Y-125080182D01*
X215881653Y-125080185D01*
X215757685Y-125204153D01*
X215757682Y-125204157D01*
X215665642Y-125353378D01*
X215610495Y-125519799D01*
X215600000Y-125622529D01*
X215600000Y-125893998D01*
X215631905Y-125944774D01*
X215641821Y-126032781D01*
X215612570Y-126116374D01*
X215549946Y-126178998D01*
X215466353Y-126208249D01*
X215444072Y-126209500D01*
X214555927Y-126209500D01*
X214469584Y-126189793D01*
X214400343Y-126134574D01*
X214361916Y-126054782D01*
X214361916Y-125966218D01*
X214399999Y-125887140D01*
X214399999Y-125622522D01*
X214399998Y-125622516D01*
X214389506Y-125519804D01*
X214389506Y-125519803D01*
X214334358Y-125353379D01*
X214242317Y-125204157D01*
X214242314Y-125204153D01*
X214118346Y-125080185D01*
X214118342Y-125080182D01*
X213969121Y-124988142D01*
X213802700Y-124932995D01*
X213699970Y-124922500D01*
X213200000Y-124922500D01*
X213200000Y-125887140D01*
X213214140Y-125916502D01*
X213231905Y-125944774D01*
X213233172Y-125956021D01*
X213238083Y-125966218D01*
X213238083Y-125999605D01*
X213241821Y-126032781D01*
X213238083Y-126043463D01*
X213238083Y-126054782D01*
X213223596Y-126084862D01*
X213212570Y-126116374D01*
X213204566Y-126124377D01*
X213199656Y-126134574D01*
X213173553Y-126155390D01*
X213149946Y-126178998D01*
X213139264Y-126182735D01*
X213130415Y-126189793D01*
X213097865Y-126197222D01*
X213066353Y-126208249D01*
X213044072Y-126209500D01*
X212955928Y-126209500D01*
X212869585Y-126189793D01*
X212800344Y-126134574D01*
X212761917Y-126054782D01*
X212761917Y-125966218D01*
X212800000Y-125887140D01*
X212800000Y-124922500D01*
X212300022Y-124922500D01*
X212300016Y-124922501D01*
X212197304Y-124932993D01*
X212197303Y-124932993D01*
X212030879Y-124988141D01*
X211881657Y-125080182D01*
X211881653Y-125080185D01*
X211757685Y-125204153D01*
X211757682Y-125204157D01*
X211665642Y-125353378D01*
X211610495Y-125519799D01*
X211600000Y-125622529D01*
X211600000Y-125893998D01*
X211631905Y-125944774D01*
X211641821Y-126032781D01*
X211612570Y-126116374D01*
X211549946Y-126178998D01*
X211466353Y-126208249D01*
X211444072Y-126209500D01*
X204911496Y-126209500D01*
X204862787Y-126214988D01*
X204576609Y-126247232D01*
X204248044Y-126322224D01*
X204248041Y-126322225D01*
X203929958Y-126433527D01*
X203929957Y-126433527D01*
X203626308Y-126579757D01*
X203340956Y-126759057D01*
X203340955Y-126759058D01*
X203077475Y-126969176D01*
X202839174Y-127207477D01*
X202753606Y-127314777D01*
X202684365Y-127369995D01*
X202598022Y-127389702D01*
X202511679Y-127369995D01*
X202442437Y-127314776D01*
X202432099Y-127300569D01*
X202393255Y-127241905D01*
X202393250Y-127241899D01*
X202194906Y-127015093D01*
X201968097Y-126816746D01*
X201716877Y-126650400D01*
X201716864Y-126650393D01*
X201445715Y-126519015D01*
X201445710Y-126519013D01*
X201159477Y-126424952D01*
X201159462Y-126424948D01*
X201102027Y-126414270D01*
X201072678Y-126406456D01*
X200831959Y-126322225D01*
X200831955Y-126322224D01*
X200503390Y-126247232D01*
X200225502Y-126215922D01*
X200168504Y-126209500D01*
X193815927Y-126209500D01*
X193729584Y-126189793D01*
X193660343Y-126134574D01*
X193621916Y-126054782D01*
X193621916Y-125966218D01*
X193659999Y-125887140D01*
X193659999Y-125622522D01*
X193659998Y-125622516D01*
X193649506Y-125519804D01*
X193649506Y-125519803D01*
X193594358Y-125353379D01*
X193502317Y-125204157D01*
X193502314Y-125204153D01*
X193378346Y-125080185D01*
X193378342Y-125080182D01*
X193229121Y-124988142D01*
X193062700Y-124932995D01*
X192959970Y-124922500D01*
X192460000Y-124922500D01*
X192460000Y-125887140D01*
X192474140Y-125916502D01*
X192491905Y-125944774D01*
X192493172Y-125956021D01*
X192498083Y-125966218D01*
X192498083Y-125999605D01*
X192501821Y-126032781D01*
X192498083Y-126043463D01*
X192498083Y-126054782D01*
X192483596Y-126084862D01*
X192472570Y-126116374D01*
X192464566Y-126124377D01*
X192459656Y-126134574D01*
X192433553Y-126155390D01*
X192409946Y-126178998D01*
X192399264Y-126182735D01*
X192390415Y-126189793D01*
X192357865Y-126197222D01*
X192326353Y-126208249D01*
X192304072Y-126209500D01*
X192215928Y-126209500D01*
X192129585Y-126189793D01*
X192060344Y-126134574D01*
X192021917Y-126054782D01*
X192021917Y-125966218D01*
X192060000Y-125887140D01*
X192060000Y-124922500D01*
X191560022Y-124922500D01*
X191560016Y-124922501D01*
X191457304Y-124932993D01*
X191457303Y-124932993D01*
X191290879Y-124988141D01*
X191141657Y-125080182D01*
X191141653Y-125080185D01*
X191017685Y-125204153D01*
X191017682Y-125204157D01*
X190925642Y-125353378D01*
X190870495Y-125519799D01*
X190860000Y-125622529D01*
X190860000Y-125887140D01*
X190874140Y-125916502D01*
X190891905Y-125944774D01*
X190893172Y-125956021D01*
X190898083Y-125966218D01*
X190898083Y-125999605D01*
X190901821Y-126032781D01*
X190898083Y-126043463D01*
X190898083Y-126054782D01*
X190883596Y-126084862D01*
X190872570Y-126116374D01*
X190864566Y-126124377D01*
X190859656Y-126134574D01*
X190833553Y-126155390D01*
X190809946Y-126178998D01*
X190799264Y-126182735D01*
X190790415Y-126189793D01*
X190757865Y-126197222D01*
X190726353Y-126208249D01*
X190704072Y-126209500D01*
X190465927Y-126209500D01*
X190379584Y-126189793D01*
X190310343Y-126134574D01*
X190271916Y-126054782D01*
X190271916Y-125966218D01*
X190309999Y-125887140D01*
X190309999Y-125622522D01*
X190309998Y-125622516D01*
X190299506Y-125519804D01*
X190299506Y-125519803D01*
X190244358Y-125353379D01*
X190152317Y-125204157D01*
X190152314Y-125204153D01*
X190028346Y-125080185D01*
X190028342Y-125080182D01*
X189879121Y-124988142D01*
X189712700Y-124932995D01*
X189609970Y-124922500D01*
X189110000Y-124922500D01*
X189110000Y-125887140D01*
X189124140Y-125916502D01*
X189141905Y-125944774D01*
X189143172Y-125956021D01*
X189148083Y-125966218D01*
X189148083Y-125999605D01*
X189151821Y-126032781D01*
X189148083Y-126043463D01*
X189148083Y-126054782D01*
X189133596Y-126084862D01*
X189122570Y-126116374D01*
X189114566Y-126124377D01*
X189109656Y-126134574D01*
X189083553Y-126155390D01*
X189059946Y-126178998D01*
X189049264Y-126182735D01*
X189040415Y-126189793D01*
X189007865Y-126197222D01*
X188976353Y-126208249D01*
X188954072Y-126209500D01*
X188865928Y-126209500D01*
X188779585Y-126189793D01*
X188710344Y-126134574D01*
X188671917Y-126054782D01*
X188671917Y-125966218D01*
X188710000Y-125887140D01*
X188710000Y-124922500D01*
X188210022Y-124922500D01*
X188210016Y-124922501D01*
X188107304Y-124932993D01*
X188107303Y-124932993D01*
X187940879Y-124988141D01*
X187791657Y-125080182D01*
X187791653Y-125080185D01*
X187667685Y-125204153D01*
X187667682Y-125204157D01*
X187575642Y-125353378D01*
X187520495Y-125519799D01*
X187510000Y-125622529D01*
X187510000Y-125893998D01*
X187541905Y-125944774D01*
X187551821Y-126032781D01*
X187522570Y-126116374D01*
X187459946Y-126178998D01*
X187376353Y-126208249D01*
X187354072Y-126209500D01*
X184031496Y-126209500D01*
X183982787Y-126214988D01*
X183696609Y-126247232D01*
X183368044Y-126322224D01*
X183368041Y-126322225D01*
X183049958Y-126433527D01*
X183049957Y-126433527D01*
X182746314Y-126579754D01*
X182746302Y-126579760D01*
X182744245Y-126581053D01*
X182742367Y-126581934D01*
X182741423Y-126582457D01*
X182741388Y-126582394D01*
X182700520Y-126601595D01*
X182649253Y-126618443D01*
X182649249Y-126618445D01*
X182379070Y-126749352D01*
X182259865Y-126828283D01*
X182176993Y-126859520D01*
X182088775Y-126851706D01*
X182040135Y-126828283D01*
X181935588Y-126759058D01*
X181920933Y-126749354D01*
X181650750Y-126618445D01*
X181650751Y-126618445D01*
X181599480Y-126601596D01*
X181558601Y-126582389D01*
X181558567Y-126582452D01*
X181557617Y-126581927D01*
X181555744Y-126581047D01*
X181553689Y-126579755D01*
X181553684Y-126579753D01*
X181540560Y-126573432D01*
X181250051Y-126433531D01*
X181250044Y-126433528D01*
X181250041Y-126433527D01*
X180931958Y-126322225D01*
X180931955Y-126322224D01*
X180603390Y-126247232D01*
X180325502Y-126215922D01*
X180268504Y-126209500D01*
X180268503Y-126209500D01*
X177855927Y-126209500D01*
X177769584Y-126189793D01*
X177700343Y-126134574D01*
X177661916Y-126054782D01*
X177661916Y-125966218D01*
X177699999Y-125887140D01*
X177699999Y-125622522D01*
X177699998Y-125622516D01*
X177689506Y-125519804D01*
X177689506Y-125519803D01*
X177634358Y-125353379D01*
X177542317Y-125204157D01*
X177542314Y-125204153D01*
X177418346Y-125080185D01*
X177418342Y-125080182D01*
X177269121Y-124988142D01*
X177102700Y-124932995D01*
X176999970Y-124922500D01*
X176500000Y-124922500D01*
X176500000Y-125887140D01*
X176514140Y-125916502D01*
X176531905Y-125944774D01*
X176533172Y-125956021D01*
X176538083Y-125966218D01*
X176538083Y-125999605D01*
X176541821Y-126032781D01*
X176538083Y-126043463D01*
X176538083Y-126054782D01*
X176523596Y-126084862D01*
X176512570Y-126116374D01*
X176504566Y-126124377D01*
X176499656Y-126134574D01*
X176473553Y-126155390D01*
X176449946Y-126178998D01*
X176439264Y-126182735D01*
X176430415Y-126189793D01*
X176397865Y-126197222D01*
X176366353Y-126208249D01*
X176344072Y-126209500D01*
X176255928Y-126209500D01*
X176169585Y-126189793D01*
X176100344Y-126134574D01*
X176061917Y-126054782D01*
X176061917Y-125966218D01*
X176100000Y-125887140D01*
X176100000Y-124922500D01*
X175600022Y-124922500D01*
X175600016Y-124922501D01*
X175497304Y-124932993D01*
X175497303Y-124932993D01*
X175330879Y-124988141D01*
X175181657Y-125080182D01*
X175181653Y-125080185D01*
X175057685Y-125204153D01*
X175057682Y-125204157D01*
X174965642Y-125353378D01*
X174910495Y-125519799D01*
X174900000Y-125622529D01*
X174900000Y-125887140D01*
X174914140Y-125916502D01*
X174931905Y-125944774D01*
X174933172Y-125956021D01*
X174938083Y-125966218D01*
X174938083Y-125999605D01*
X174941821Y-126032781D01*
X174938083Y-126043463D01*
X174938083Y-126054782D01*
X174923596Y-126084862D01*
X174912570Y-126116374D01*
X174904566Y-126124377D01*
X174899656Y-126134574D01*
X174873553Y-126155390D01*
X174849946Y-126178998D01*
X174839264Y-126182735D01*
X174830415Y-126189793D01*
X174797865Y-126197222D01*
X174766353Y-126208249D01*
X174744072Y-126209500D01*
X174462110Y-126209500D01*
X174375767Y-126189793D01*
X174368326Y-126186015D01*
X174105190Y-126045365D01*
X174038333Y-125987283D01*
X174003297Y-125905944D01*
X173999999Y-125869863D01*
X173999999Y-125622522D01*
X173999998Y-125622516D01*
X173989506Y-125519804D01*
X173989506Y-125519803D01*
X173934358Y-125353379D01*
X173842317Y-125204157D01*
X173842314Y-125204153D01*
X173718346Y-125080185D01*
X173718342Y-125080182D01*
X173569121Y-124988142D01*
X173402700Y-124932995D01*
X173299970Y-124922500D01*
X172800000Y-124922500D01*
X172800000Y-125510500D01*
X172795011Y-125532358D01*
X172795011Y-125554782D01*
X172785282Y-125574983D01*
X172780293Y-125596843D01*
X172766311Y-125614374D01*
X172756584Y-125634574D01*
X172739053Y-125648553D01*
X172725074Y-125666084D01*
X172704874Y-125675811D01*
X172687343Y-125689793D01*
X172665483Y-125694782D01*
X172645282Y-125704511D01*
X172601000Y-125709500D01*
X172599000Y-125709500D01*
X172512657Y-125689793D01*
X172443416Y-125634574D01*
X172404989Y-125554782D01*
X172400000Y-125510500D01*
X172400000Y-124922500D01*
X171900022Y-124922500D01*
X171900016Y-124922501D01*
X171797304Y-124932993D01*
X171797303Y-124932993D01*
X171630879Y-124988141D01*
X171481657Y-125080182D01*
X171481653Y-125080185D01*
X171357685Y-125204153D01*
X171357682Y-125204157D01*
X171265642Y-125353378D01*
X171210495Y-125519799D01*
X171209379Y-125530725D01*
X171180998Y-125614618D01*
X171119028Y-125677889D01*
X171035743Y-125708007D01*
X171011409Y-125709500D01*
X169968024Y-125709500D01*
X169625748Y-125743211D01*
X169288431Y-125810308D01*
X169288426Y-125810309D01*
X169288422Y-125810310D01*
X169288417Y-125810311D01*
X169288415Y-125810312D01*
X168991107Y-125900500D01*
X168959294Y-125910150D01*
X168959281Y-125910155D01*
X168641538Y-126041768D01*
X168338210Y-126203900D01*
X168052239Y-126394981D01*
X168052230Y-126394987D01*
X167973622Y-126459500D01*
X167786381Y-126613164D01*
X167786361Y-126613182D01*
X167547078Y-126852466D01*
X167547042Y-126852500D01*
X165453182Y-128946361D01*
X165453164Y-128946381D01*
X165234979Y-129212240D01*
X165043902Y-129498208D01*
X165043899Y-129498214D01*
X164881768Y-129801538D01*
X164750151Y-130119290D01*
X164650312Y-130448415D01*
X164650308Y-130448431D01*
X164583211Y-130785748D01*
X164549500Y-131128024D01*
X164549500Y-131900500D01*
X164529793Y-131986843D01*
X164474574Y-132056084D01*
X164394782Y-132094511D01*
X164350500Y-132099500D01*
X135293905Y-132099500D01*
X135207562Y-132079793D01*
X135153191Y-132041214D01*
X122258786Y-119146809D01*
X122211667Y-119071821D01*
X122200500Y-119006095D01*
X122200500Y-83799500D01*
X122220207Y-83713157D01*
X122275426Y-83643916D01*
X122355218Y-83605489D01*
X122399500Y-83600500D01*
X122650780Y-83600500D01*
X122650783Y-83600500D01*
X122949768Y-83561138D01*
X123150765Y-83507281D01*
X123202270Y-83500500D01*
X229749566Y-83500500D01*
X229749598Y-83500501D01*
X229755771Y-83500501D01*
X230044231Y-83500501D01*
X230044232Y-83500500D01*
X230330217Y-83462849D01*
X230608846Y-83388192D01*
X230735968Y-83335535D01*
X246629500Y-83335535D01*
X246629500Y-83644464D01*
X246664088Y-83951446D01*
X246732833Y-84252641D01*
X246834859Y-84544214D01*
X246834866Y-84544231D01*
X246968910Y-84822575D01*
X247133259Y-85084136D01*
X247133264Y-85084142D01*
X247325879Y-85325673D01*
X247544326Y-85544120D01*
X247785857Y-85736735D01*
X247785864Y-85736740D01*
X247984421Y-85861502D01*
X248047045Y-85924126D01*
X248076296Y-86007719D01*
X248066380Y-86095726D01*
X248019261Y-86170714D01*
X247984421Y-86198498D01*
X247785864Y-86323259D01*
X247785857Y-86323264D01*
X247544326Y-86515879D01*
X247325879Y-86734326D01*
X247133264Y-86975857D01*
X247133259Y-86975863D01*
X246968910Y-87237424D01*
X246834866Y-87515768D01*
X246834859Y-87515785D01*
X246732833Y-87807358D01*
X246664088Y-88108553D01*
X246629500Y-88415535D01*
X246629500Y-88724464D01*
X246664088Y-89031446D01*
X246732833Y-89332641D01*
X246834859Y-89624214D01*
X246834864Y-89624226D01*
X246834865Y-89624229D01*
X246842341Y-89639754D01*
X246968910Y-89902575D01*
X247133259Y-90164136D01*
X247133264Y-90164142D01*
X247325879Y-90405673D01*
X247544326Y-90624120D01*
X247785857Y-90816735D01*
X247785864Y-90816740D01*
X247984421Y-90941502D01*
X248047045Y-91004126D01*
X248076296Y-91087719D01*
X248066380Y-91175726D01*
X248019261Y-91250714D01*
X247984421Y-91278498D01*
X247785864Y-91403259D01*
X247785857Y-91403264D01*
X247544326Y-91595879D01*
X247325879Y-91814326D01*
X247133264Y-92055857D01*
X247133259Y-92055863D01*
X246968910Y-92317424D01*
X246834866Y-92595768D01*
X246834859Y-92595785D01*
X246732833Y-92887358D01*
X246664088Y-93188553D01*
X246649371Y-93319172D01*
X246629500Y-93495535D01*
X246629500Y-93804465D01*
X246664089Y-94111452D01*
X246691478Y-94231452D01*
X246732833Y-94412641D01*
X246834859Y-94704214D01*
X246834866Y-94704231D01*
X246968910Y-94982575D01*
X247133259Y-95244136D01*
X247133264Y-95244142D01*
X247325879Y-95485673D01*
X247544326Y-95704120D01*
X247785857Y-95896735D01*
X247785864Y-95896740D01*
X247984421Y-96021502D01*
X248047045Y-96084126D01*
X248076296Y-96167719D01*
X248066380Y-96255726D01*
X248019261Y-96330714D01*
X247984421Y-96358498D01*
X247785864Y-96483259D01*
X247785857Y-96483264D01*
X247544326Y-96675879D01*
X247325879Y-96894326D01*
X247133264Y-97135857D01*
X247133259Y-97135863D01*
X246968910Y-97397424D01*
X246834866Y-97675768D01*
X246834859Y-97675785D01*
X246732833Y-97967358D01*
X246664088Y-98268553D01*
X246629500Y-98575535D01*
X246629500Y-98884464D01*
X246664088Y-99191446D01*
X246732833Y-99492641D01*
X246834859Y-99784214D01*
X246834866Y-99784231D01*
X246968910Y-100062575D01*
X247133259Y-100324136D01*
X247133264Y-100324142D01*
X247325879Y-100565673D01*
X247544326Y-100784120D01*
X247785857Y-100976735D01*
X247785864Y-100976740D01*
X247984421Y-101101502D01*
X248047045Y-101164126D01*
X248076296Y-101247719D01*
X248066380Y-101335726D01*
X248019261Y-101410714D01*
X247984421Y-101438498D01*
X247785864Y-101563259D01*
X247785857Y-101563264D01*
X247544326Y-101755879D01*
X247325879Y-101974326D01*
X247133264Y-102215857D01*
X247133259Y-102215863D01*
X246968910Y-102477424D01*
X246834866Y-102755768D01*
X246834859Y-102755785D01*
X246732833Y-103047358D01*
X246664088Y-103348553D01*
X246629500Y-103655535D01*
X246629500Y-103964464D01*
X246664088Y-104271446D01*
X246732833Y-104572641D01*
X246834859Y-104864214D01*
X246834864Y-104864226D01*
X246834865Y-104864229D01*
X246959391Y-105122810D01*
X246968910Y-105142575D01*
X247133259Y-105404136D01*
X247133264Y-105404142D01*
X247325879Y-105645673D01*
X247544326Y-105864120D01*
X247785857Y-106056735D01*
X247785864Y-106056740D01*
X247984421Y-106181502D01*
X248047045Y-106244126D01*
X248076296Y-106327719D01*
X248066380Y-106415726D01*
X248019261Y-106490714D01*
X247984421Y-106518498D01*
X247785864Y-106643259D01*
X247785857Y-106643264D01*
X247544326Y-106835879D01*
X247325879Y-107054326D01*
X247133264Y-107295857D01*
X247133259Y-107295863D01*
X246968910Y-107557424D01*
X246834866Y-107835768D01*
X246834859Y-107835785D01*
X246732833Y-108127358D01*
X246664088Y-108428553D01*
X246629500Y-108735535D01*
X246629500Y-109044464D01*
X246653336Y-109256021D01*
X246664089Y-109351452D01*
X246696268Y-109492437D01*
X246732833Y-109652641D01*
X246834859Y-109944214D01*
X246834864Y-109944226D01*
X246834865Y-109944229D01*
X246869291Y-110015716D01*
X246968910Y-110222575D01*
X247133259Y-110484136D01*
X247133264Y-110484142D01*
X247325879Y-110725673D01*
X247544326Y-110944120D01*
X247785857Y-111136735D01*
X247785864Y-111136740D01*
X247984421Y-111261502D01*
X248047045Y-111324126D01*
X248076296Y-111407719D01*
X248066380Y-111495726D01*
X248019261Y-111570714D01*
X247984421Y-111598498D01*
X247785864Y-111723259D01*
X247785857Y-111723264D01*
X247544326Y-111915879D01*
X247325879Y-112134326D01*
X247133264Y-112375857D01*
X247133259Y-112375863D01*
X246968910Y-112637424D01*
X246834866Y-112915768D01*
X246834859Y-112915785D01*
X246732833Y-113207358D01*
X246664088Y-113508553D01*
X246629500Y-113815535D01*
X246629500Y-114124464D01*
X246664088Y-114431446D01*
X246732833Y-114732641D01*
X246834859Y-115024214D01*
X246834866Y-115024231D01*
X246968910Y-115302575D01*
X247133259Y-115564136D01*
X247133264Y-115564142D01*
X247325879Y-115805673D01*
X247544326Y-116024120D01*
X247785857Y-116216735D01*
X247785864Y-116216740D01*
X247984421Y-116341502D01*
X248047045Y-116404126D01*
X248076296Y-116487719D01*
X248066380Y-116575726D01*
X248019261Y-116650714D01*
X247984421Y-116678498D01*
X247785864Y-116803259D01*
X247785857Y-116803264D01*
X247544326Y-116995879D01*
X247325879Y-117214326D01*
X247133264Y-117455857D01*
X247133259Y-117455863D01*
X246968910Y-117717424D01*
X246834866Y-117995768D01*
X246834859Y-117995785D01*
X246732833Y-118287358D01*
X246664088Y-118588553D01*
X246629500Y-118895535D01*
X246629500Y-119204464D01*
X246657647Y-119454284D01*
X246664089Y-119511452D01*
X246676636Y-119566425D01*
X246732833Y-119812641D01*
X246834859Y-120104214D01*
X246834864Y-120104226D01*
X246834865Y-120104229D01*
X246887718Y-120213980D01*
X246968910Y-120382575D01*
X247133259Y-120644136D01*
X247133264Y-120644142D01*
X247325879Y-120885673D01*
X247544326Y-121104120D01*
X247785857Y-121296735D01*
X247785863Y-121296740D01*
X248047424Y-121461089D01*
X248047430Y-121461091D01*
X248047435Y-121461095D01*
X248325771Y-121595135D01*
X248325783Y-121595139D01*
X248325785Y-121595140D01*
X248409690Y-121624499D01*
X248617364Y-121697168D01*
X248918548Y-121765911D01*
X249225535Y-121800500D01*
X249225536Y-121800500D01*
X249534464Y-121800500D01*
X249534465Y-121800500D01*
X249841452Y-121765911D01*
X250142636Y-121697168D01*
X250434229Y-121595135D01*
X250563658Y-121532804D01*
X250649998Y-121513097D01*
X250736336Y-121532802D01*
X250865771Y-121595135D01*
X250865783Y-121595139D01*
X250865785Y-121595140D01*
X250949690Y-121624499D01*
X251157364Y-121697168D01*
X251458548Y-121765911D01*
X251765535Y-121800500D01*
X251765536Y-121800500D01*
X252074464Y-121800500D01*
X252074465Y-121800500D01*
X252381452Y-121765911D01*
X252682636Y-121697168D01*
X252974229Y-121595135D01*
X253103658Y-121532804D01*
X253189998Y-121513097D01*
X253276336Y-121532802D01*
X253405771Y-121595135D01*
X253405783Y-121595139D01*
X253405785Y-121595140D01*
X253489690Y-121624499D01*
X253697364Y-121697168D01*
X253998548Y-121765911D01*
X254305535Y-121800500D01*
X254305536Y-121800500D01*
X254614464Y-121800500D01*
X254614465Y-121800500D01*
X254921452Y-121765911D01*
X255222636Y-121697168D01*
X255514229Y-121595135D01*
X255792565Y-121461095D01*
X255792575Y-121461089D01*
X256054136Y-121296740D01*
X256054138Y-121296737D01*
X256054143Y-121296735D01*
X256295674Y-121104120D01*
X256514120Y-120885674D01*
X256706735Y-120644143D01*
X256706737Y-120644138D01*
X256706740Y-120644136D01*
X256871089Y-120382575D01*
X256871089Y-120382573D01*
X256871095Y-120382565D01*
X257005135Y-120104229D01*
X257107168Y-119812636D01*
X257175911Y-119511452D01*
X257210500Y-119204465D01*
X257210500Y-118895535D01*
X257175911Y-118588548D01*
X257107168Y-118287364D01*
X257005135Y-117995771D01*
X256871095Y-117717435D01*
X256871091Y-117717430D01*
X256871089Y-117717424D01*
X256706740Y-117455863D01*
X256706735Y-117455857D01*
X256514120Y-117214326D01*
X256295673Y-116995879D01*
X256054142Y-116803264D01*
X256054136Y-116803259D01*
X255855578Y-116678498D01*
X255792954Y-116615875D01*
X255763703Y-116532281D01*
X255773619Y-116444275D01*
X255820738Y-116369286D01*
X255855578Y-116341502D01*
X256054136Y-116216740D01*
X256054138Y-116216737D01*
X256054143Y-116216735D01*
X256295674Y-116024120D01*
X256514120Y-115805674D01*
X256706735Y-115564143D01*
X256706737Y-115564138D01*
X256706740Y-115564136D01*
X256871089Y-115302575D01*
X256871089Y-115302573D01*
X256871095Y-115302565D01*
X257005135Y-115024229D01*
X257107168Y-114732636D01*
X257175911Y-114431452D01*
X257210500Y-114124465D01*
X257210500Y-113815535D01*
X257175911Y-113508548D01*
X257107168Y-113207364D01*
X257005135Y-112915771D01*
X256871095Y-112637435D01*
X256871091Y-112637430D01*
X256871089Y-112637424D01*
X256706740Y-112375863D01*
X256706735Y-112375857D01*
X256514120Y-112134326D01*
X256295673Y-111915879D01*
X256054142Y-111723264D01*
X256054136Y-111723259D01*
X255855578Y-111598498D01*
X255792954Y-111535875D01*
X255763703Y-111452281D01*
X255773619Y-111364275D01*
X255820738Y-111289286D01*
X255855578Y-111261502D01*
X256054136Y-111136740D01*
X256054138Y-111136737D01*
X256054143Y-111136735D01*
X256295674Y-110944120D01*
X256514120Y-110725674D01*
X256706735Y-110484143D01*
X256706737Y-110484138D01*
X256706740Y-110484136D01*
X256871089Y-110222575D01*
X256871089Y-110222573D01*
X256871095Y-110222565D01*
X257005135Y-109944229D01*
X257107168Y-109652636D01*
X257175911Y-109351452D01*
X257210500Y-109044465D01*
X257210500Y-108735535D01*
X257175911Y-108428548D01*
X257107168Y-108127364D01*
X257005135Y-107835771D01*
X256871095Y-107557435D01*
X256871091Y-107557430D01*
X256871089Y-107557424D01*
X256706740Y-107295863D01*
X256706735Y-107295857D01*
X256514120Y-107054326D01*
X256295673Y-106835879D01*
X256054142Y-106643264D01*
X256054136Y-106643259D01*
X255855578Y-106518498D01*
X255792954Y-106455875D01*
X255763703Y-106372281D01*
X255773619Y-106284275D01*
X255820738Y-106209286D01*
X255855578Y-106181502D01*
X256054136Y-106056740D01*
X256054138Y-106056737D01*
X256054143Y-106056735D01*
X256295674Y-105864120D01*
X256514120Y-105645674D01*
X256706735Y-105404143D01*
X256706737Y-105404138D01*
X256706740Y-105404136D01*
X256871089Y-105142575D01*
X256871089Y-105142573D01*
X256871095Y-105142565D01*
X257005135Y-104864229D01*
X257107168Y-104572636D01*
X257175911Y-104271452D01*
X257210500Y-103964465D01*
X257210500Y-103655535D01*
X257175911Y-103348548D01*
X257107168Y-103047364D01*
X257005135Y-102755771D01*
X256871095Y-102477435D01*
X256871091Y-102477430D01*
X256871089Y-102477424D01*
X256706740Y-102215863D01*
X256706735Y-102215857D01*
X256514120Y-101974326D01*
X256295673Y-101755879D01*
X256054142Y-101563264D01*
X256054136Y-101563259D01*
X255855578Y-101438498D01*
X255792954Y-101375875D01*
X255763703Y-101292281D01*
X255773619Y-101204275D01*
X255820738Y-101129286D01*
X255855578Y-101101502D01*
X256054136Y-100976740D01*
X256054138Y-100976737D01*
X256054143Y-100976735D01*
X256295674Y-100784120D01*
X256514120Y-100565674D01*
X256706735Y-100324143D01*
X256706737Y-100324138D01*
X256706740Y-100324136D01*
X256871089Y-100062575D01*
X256871089Y-100062573D01*
X256871095Y-100062565D01*
X257005135Y-99784229D01*
X257107168Y-99492636D01*
X257175911Y-99191452D01*
X257210500Y-98884465D01*
X257210500Y-98575535D01*
X257175911Y-98268548D01*
X257107168Y-97967364D01*
X257044589Y-97788523D01*
X257005140Y-97675785D01*
X257005139Y-97675783D01*
X257005135Y-97675771D01*
X256871095Y-97397435D01*
X256871091Y-97397430D01*
X256871089Y-97397424D01*
X256706740Y-97135863D01*
X256706735Y-97135857D01*
X256514120Y-96894326D01*
X256295673Y-96675879D01*
X256054142Y-96483264D01*
X256054136Y-96483259D01*
X255855578Y-96358498D01*
X255792954Y-96295875D01*
X255763703Y-96212281D01*
X255773619Y-96124275D01*
X255820738Y-96049286D01*
X255855578Y-96021502D01*
X256054136Y-95896740D01*
X256054138Y-95896737D01*
X256054143Y-95896735D01*
X256295674Y-95704120D01*
X256514120Y-95485674D01*
X256706735Y-95244143D01*
X256706737Y-95244138D01*
X256706740Y-95244136D01*
X256871089Y-94982575D01*
X256871089Y-94982573D01*
X256871095Y-94982565D01*
X257005135Y-94704229D01*
X257107168Y-94412636D01*
X257175911Y-94111452D01*
X257210500Y-93804465D01*
X257210500Y-93495535D01*
X257175911Y-93188548D01*
X257107168Y-92887364D01*
X257005135Y-92595771D01*
X256871095Y-92317435D01*
X256871091Y-92317430D01*
X256871089Y-92317424D01*
X256706740Y-92055863D01*
X256706735Y-92055857D01*
X256514120Y-91814326D01*
X256295673Y-91595879D01*
X256054142Y-91403264D01*
X256054136Y-91403259D01*
X255855578Y-91278498D01*
X255792954Y-91215875D01*
X255763703Y-91132281D01*
X255773619Y-91044275D01*
X255820738Y-90969286D01*
X255855578Y-90941502D01*
X256054136Y-90816740D01*
X256054138Y-90816737D01*
X256054143Y-90816735D01*
X256295674Y-90624120D01*
X256514120Y-90405674D01*
X256706735Y-90164143D01*
X256706737Y-90164138D01*
X256706740Y-90164136D01*
X256871089Y-89902575D01*
X256871089Y-89902573D01*
X256871095Y-89902565D01*
X257005135Y-89624229D01*
X257107168Y-89332636D01*
X257175911Y-89031452D01*
X257210500Y-88724465D01*
X257210500Y-88415535D01*
X257175911Y-88108548D01*
X257107168Y-87807364D01*
X257005135Y-87515771D01*
X256871095Y-87237435D01*
X256871091Y-87237430D01*
X256871089Y-87237424D01*
X256706740Y-86975863D01*
X256706735Y-86975857D01*
X256514120Y-86734326D01*
X256295673Y-86515879D01*
X256054142Y-86323264D01*
X256054136Y-86323259D01*
X255855578Y-86198498D01*
X255792954Y-86135875D01*
X255763703Y-86052281D01*
X255773619Y-85964275D01*
X255820738Y-85889286D01*
X255855578Y-85861502D01*
X256054136Y-85736740D01*
X256054138Y-85736737D01*
X256054143Y-85736735D01*
X256295674Y-85544120D01*
X256514120Y-85325674D01*
X256706735Y-85084143D01*
X256706737Y-85084138D01*
X256706740Y-85084136D01*
X256871089Y-84822575D01*
X256871089Y-84822573D01*
X256871095Y-84822565D01*
X257005135Y-84544229D01*
X257107168Y-84252636D01*
X257175911Y-83951452D01*
X257210500Y-83644465D01*
X257210500Y-83335535D01*
X257175911Y-83028548D01*
X257107168Y-82727364D01*
X257005135Y-82435771D01*
X256871095Y-82157435D01*
X256871091Y-82157430D01*
X256871089Y-82157424D01*
X256706740Y-81895863D01*
X256706735Y-81895857D01*
X256514120Y-81654326D01*
X256295673Y-81435879D01*
X256054142Y-81243264D01*
X256054136Y-81243259D01*
X255792575Y-81078910D01*
X255729999Y-81048775D01*
X255514229Y-80944865D01*
X255514226Y-80944864D01*
X255514214Y-80944859D01*
X255222640Y-80842833D01*
X255222641Y-80842833D01*
X255139352Y-80823823D01*
X254921452Y-80774089D01*
X254921448Y-80774088D01*
X254921446Y-80774088D01*
X254693679Y-80748425D01*
X254614465Y-80739500D01*
X254305535Y-80739500D01*
X254242568Y-80746594D01*
X253998553Y-80774088D01*
X253998549Y-80774088D01*
X253998548Y-80774089D01*
X253915264Y-80793097D01*
X253697358Y-80842833D01*
X253405785Y-80944859D01*
X253405760Y-80944869D01*
X253276342Y-81007194D01*
X253189999Y-81026901D01*
X253103658Y-81007194D01*
X252974239Y-80944869D01*
X252974214Y-80944859D01*
X252682640Y-80842833D01*
X252682641Y-80842833D01*
X252599352Y-80823823D01*
X252381452Y-80774089D01*
X252381448Y-80774088D01*
X252381446Y-80774088D01*
X252153679Y-80748425D01*
X252074465Y-80739500D01*
X251765535Y-80739500D01*
X251702568Y-80746594D01*
X251458553Y-80774088D01*
X251458549Y-80774088D01*
X251458548Y-80774089D01*
X251375264Y-80793097D01*
X251157358Y-80842833D01*
X250865785Y-80944859D01*
X250865760Y-80944869D01*
X250736342Y-81007194D01*
X250649999Y-81026901D01*
X250563658Y-81007194D01*
X250434239Y-80944869D01*
X250434214Y-80944859D01*
X250142640Y-80842833D01*
X250142641Y-80842833D01*
X250059352Y-80823823D01*
X249841452Y-80774089D01*
X249841448Y-80774088D01*
X249841446Y-80774088D01*
X249613679Y-80748425D01*
X249534465Y-80739500D01*
X249225535Y-80739500D01*
X249162568Y-80746594D01*
X248918553Y-80774088D01*
X248918549Y-80774088D01*
X248918548Y-80774089D01*
X248835264Y-80793097D01*
X248617358Y-80842833D01*
X248325785Y-80944859D01*
X248325768Y-80944866D01*
X248047424Y-81078910D01*
X247785863Y-81243259D01*
X247785857Y-81243264D01*
X247544326Y-81435879D01*
X247325879Y-81654326D01*
X247133264Y-81895857D01*
X247133259Y-81895863D01*
X246968910Y-82157424D01*
X246834866Y-82435768D01*
X246834859Y-82435785D01*
X246732833Y-82727358D01*
X246664088Y-83028553D01*
X246629500Y-83335535D01*
X230735968Y-83335535D01*
X230764957Y-83323527D01*
X230875345Y-83277804D01*
X231125156Y-83133575D01*
X231354004Y-82957974D01*
X231557974Y-82754004D01*
X231557975Y-82754001D01*
X231566602Y-82745375D01*
X231566606Y-82745370D01*
X234638999Y-79672977D01*
X234639004Y-79672974D01*
X234842974Y-79469004D01*
X235018575Y-79240156D01*
X235023102Y-79232316D01*
X235075777Y-79141079D01*
X235162804Y-78990345D01*
X235223701Y-78843325D01*
X235247252Y-78786470D01*
X235256422Y-78764329D01*
X235273192Y-78723845D01*
X235347850Y-78445217D01*
X235385501Y-78159228D01*
X235385501Y-77870771D01*
X235385501Y-77864599D01*
X235385500Y-77864565D01*
X235385500Y-77290093D01*
X235405207Y-77203750D01*
X235460426Y-77134509D01*
X235527097Y-77099552D01*
X235599199Y-77077832D01*
X235894290Y-76947537D01*
X236042806Y-76858714D01*
X236127022Y-76831309D01*
X236144948Y-76830500D01*
X248939680Y-76830500D01*
X249026023Y-76850207D01*
X249095264Y-76905426D01*
X249133691Y-76985218D01*
X249133691Y-77073782D01*
X249095264Y-77153574D01*
X249026023Y-77208793D01*
X249001175Y-77218760D01*
X248900171Y-77251578D01*
X248900167Y-77251579D01*
X248724857Y-77340903D01*
X248648919Y-77396075D01*
X248648919Y-77396076D01*
X249194823Y-77941980D01*
X249187007Y-77944075D01*
X249072993Y-78009901D01*
X248979901Y-78102993D01*
X248914075Y-78217007D01*
X248911980Y-78224823D01*
X248366076Y-77678919D01*
X248366075Y-77678919D01*
X248310903Y-77754857D01*
X248221579Y-77930167D01*
X248221578Y-77930171D01*
X248160780Y-78117287D01*
X248160777Y-78117298D01*
X248130000Y-78311623D01*
X248130000Y-78508376D01*
X248160777Y-78702701D01*
X248160780Y-78702712D01*
X248221578Y-78889828D01*
X248221579Y-78889832D01*
X248310904Y-79065143D01*
X248366076Y-79141079D01*
X248911980Y-78595176D01*
X248914075Y-78602993D01*
X248979901Y-78717007D01*
X249072993Y-78810099D01*
X249187007Y-78875925D01*
X249194822Y-78878019D01*
X248648919Y-79423922D01*
X248648919Y-79423923D01*
X248724856Y-79479095D01*
X248900167Y-79568420D01*
X248900171Y-79568421D01*
X249087287Y-79629219D01*
X249087298Y-79629222D01*
X249281623Y-79660000D01*
X249478377Y-79660000D01*
X249672701Y-79629222D01*
X249672712Y-79629219D01*
X249859828Y-79568421D01*
X249859832Y-79568419D01*
X250035140Y-79479097D01*
X250111079Y-79423923D01*
X250111079Y-79423921D01*
X249565177Y-78878019D01*
X249572993Y-78875925D01*
X249687007Y-78810099D01*
X249780099Y-78717007D01*
X249845925Y-78602993D01*
X249848019Y-78595177D01*
X250393921Y-79141079D01*
X250393923Y-79141079D01*
X250449095Y-79065143D01*
X250472688Y-79018839D01*
X250529446Y-78950853D01*
X250610080Y-78914226D01*
X250698621Y-78916212D01*
X250777532Y-78956418D01*
X250827311Y-79018838D01*
X250850904Y-79065143D01*
X250906076Y-79141079D01*
X251451980Y-78595176D01*
X251454075Y-78602993D01*
X251519901Y-78717007D01*
X251612993Y-78810099D01*
X251727007Y-78875925D01*
X251734822Y-78878019D01*
X251188919Y-79423922D01*
X251188919Y-79423923D01*
X251264856Y-79479095D01*
X251440167Y-79568420D01*
X251440171Y-79568421D01*
X251627287Y-79629219D01*
X251627298Y-79629222D01*
X251821623Y-79660000D01*
X252018377Y-79660000D01*
X252212701Y-79629222D01*
X252212712Y-79629219D01*
X252399828Y-79568421D01*
X252399832Y-79568419D01*
X252575140Y-79479097D01*
X252651079Y-79423923D01*
X252651079Y-79423921D01*
X252105177Y-78878019D01*
X252112993Y-78875925D01*
X252227007Y-78810099D01*
X252320099Y-78717007D01*
X252385925Y-78602993D01*
X252388019Y-78595177D01*
X252933921Y-79141079D01*
X252933923Y-79141079D01*
X252989095Y-79065143D01*
X253012688Y-79018839D01*
X253069446Y-78950853D01*
X253150080Y-78914226D01*
X253238621Y-78916212D01*
X253317532Y-78956418D01*
X253367311Y-79018838D01*
X253390904Y-79065143D01*
X253446076Y-79141079D01*
X253991980Y-78595176D01*
X253994075Y-78602993D01*
X254059901Y-78717007D01*
X254152993Y-78810099D01*
X254267007Y-78875925D01*
X254274822Y-78878019D01*
X253728919Y-79423922D01*
X253728919Y-79423923D01*
X253804856Y-79479095D01*
X253980167Y-79568420D01*
X253980171Y-79568421D01*
X254167287Y-79629219D01*
X254167298Y-79629222D01*
X254361623Y-79660000D01*
X254558377Y-79660000D01*
X254752701Y-79629222D01*
X254752712Y-79629219D01*
X254939828Y-79568421D01*
X254939832Y-79568419D01*
X255115140Y-79479097D01*
X255191079Y-79423923D01*
X255191079Y-79423921D01*
X254645177Y-78878019D01*
X254652993Y-78875925D01*
X254767007Y-78810099D01*
X254860099Y-78717007D01*
X254925925Y-78602993D01*
X254928019Y-78595177D01*
X255473921Y-79141079D01*
X255473923Y-79141079D01*
X255529097Y-79065140D01*
X255618419Y-78889832D01*
X255618421Y-78889828D01*
X255679219Y-78702712D01*
X255679222Y-78702701D01*
X255710000Y-78508376D01*
X255710000Y-78311623D01*
X255679222Y-78117298D01*
X255679219Y-78117287D01*
X255618421Y-77930171D01*
X255618420Y-77930167D01*
X255529095Y-77754856D01*
X255473922Y-77678919D01*
X254928019Y-78224822D01*
X254925925Y-78217007D01*
X254860099Y-78102993D01*
X254767007Y-78009901D01*
X254652993Y-77944075D01*
X254645176Y-77941980D01*
X255191079Y-77396076D01*
X255191079Y-77396075D01*
X255115143Y-77340904D01*
X254939832Y-77251579D01*
X254939828Y-77251578D01*
X254778678Y-77199217D01*
X254702651Y-77153793D01*
X254653862Y-77079880D01*
X254641974Y-76992118D01*
X254669342Y-76907890D01*
X254730545Y-76843877D01*
X254813461Y-76812758D01*
X254820658Y-76811916D01*
X254974250Y-76796789D01*
X255311578Y-76729690D01*
X255640705Y-76629850D01*
X255958462Y-76498231D01*
X256261787Y-76336100D01*
X256547760Y-76145019D01*
X256813627Y-75926828D01*
X257056828Y-75683627D01*
X257275019Y-75417760D01*
X257466100Y-75131787D01*
X257628231Y-74828462D01*
X257759850Y-74510705D01*
X257859690Y-74181578D01*
X257926789Y-73844250D01*
X257960500Y-73501969D01*
X257960500Y-73158031D01*
X257926789Y-72815750D01*
X257859690Y-72478422D01*
X257759850Y-72149295D01*
X257628231Y-71831538D01*
X257538814Y-71664251D01*
X257466099Y-71528211D01*
X257350508Y-71355218D01*
X257275019Y-71242240D01*
X257263443Y-71228135D01*
X257093477Y-71021030D01*
X257056828Y-70976373D01*
X257056821Y-70976366D01*
X257056813Y-70976357D01*
X256813642Y-70733186D01*
X256813632Y-70733177D01*
X256813627Y-70733172D01*
X256614454Y-70569715D01*
X256547768Y-70514987D01*
X256547764Y-70514984D01*
X256547760Y-70514981D01*
X256404773Y-70419440D01*
X256261788Y-70323900D01*
X255958461Y-70161768D01*
X255640709Y-70030151D01*
X255335893Y-69937686D01*
X255311578Y-69930310D01*
X255311568Y-69930308D01*
X254974252Y-69863211D01*
X254820667Y-69848084D01*
X254736671Y-69820008D01*
X254673176Y-69758268D01*
X254642756Y-69675093D01*
X254651437Y-69586956D01*
X254697500Y-69511314D01*
X254771820Y-69463149D01*
X254778679Y-69460782D01*
X254939825Y-69408422D01*
X254939832Y-69408419D01*
X255115140Y-69319097D01*
X255191079Y-69263923D01*
X255191079Y-69263921D01*
X254645177Y-68718019D01*
X254652993Y-68715925D01*
X254767007Y-68650099D01*
X254860099Y-68557007D01*
X254925925Y-68442993D01*
X254928019Y-68435177D01*
X255473921Y-68981079D01*
X255473923Y-68981079D01*
X255529097Y-68905140D01*
X255618419Y-68729832D01*
X255618421Y-68729828D01*
X255679219Y-68542712D01*
X255679222Y-68542701D01*
X255710000Y-68348376D01*
X255710000Y-68151623D01*
X255679222Y-67957298D01*
X255679219Y-67957287D01*
X255618421Y-67770171D01*
X255618420Y-67770167D01*
X255529095Y-67594856D01*
X255473922Y-67518919D01*
X254928019Y-68064822D01*
X254925925Y-68057007D01*
X254860099Y-67942993D01*
X254767007Y-67849901D01*
X254652993Y-67784075D01*
X254645176Y-67781980D01*
X255191079Y-67236076D01*
X255191079Y-67236075D01*
X255115143Y-67180904D01*
X254939832Y-67091579D01*
X254939828Y-67091578D01*
X254778678Y-67039217D01*
X254702651Y-66993793D01*
X254653862Y-66919880D01*
X254641974Y-66832118D01*
X254669342Y-66747890D01*
X254730545Y-66683877D01*
X254813461Y-66652758D01*
X254820658Y-66651916D01*
X254974250Y-66636789D01*
X255311578Y-66569690D01*
X255640705Y-66469850D01*
X255958462Y-66338231D01*
X256261787Y-66176100D01*
X256547760Y-65985019D01*
X256813627Y-65766828D01*
X257056828Y-65523627D01*
X257275019Y-65257760D01*
X257466100Y-64971787D01*
X257628231Y-64668462D01*
X257759850Y-64350705D01*
X257859690Y-64021578D01*
X257926789Y-63684250D01*
X257960500Y-63341969D01*
X257960500Y-62998031D01*
X257926789Y-62655750D01*
X257859690Y-62318422D01*
X257759850Y-61989295D01*
X257628231Y-61671538D01*
X257466100Y-61368213D01*
X257275019Y-61082240D01*
X257056828Y-60816373D01*
X257056821Y-60816366D01*
X257056813Y-60816357D01*
X256813642Y-60573186D01*
X256813632Y-60573177D01*
X256813627Y-60573172D01*
X256725004Y-60500441D01*
X256547768Y-60354987D01*
X256547764Y-60354984D01*
X256547760Y-60354981D01*
X256358399Y-60228454D01*
X256261792Y-60163903D01*
X256261789Y-60163901D01*
X256261787Y-60163900D01*
X256167186Y-60113335D01*
X256100331Y-60055254D01*
X256065295Y-59973915D01*
X256069021Y-59885430D01*
X256110770Y-59807324D01*
X256182273Y-59755068D01*
X256269368Y-59739010D01*
X256295544Y-59741855D01*
X256444670Y-59768151D01*
X256814419Y-59800500D01*
X256814424Y-59800500D01*
X257185576Y-59800500D01*
X257185581Y-59800500D01*
X257555330Y-59768151D01*
X257920853Y-59703699D01*
X258249497Y-59615638D01*
X258337996Y-59612327D01*
X258419170Y-59647743D01*
G37*
G04 #@! TD.AperFunction*
G04 #@! TA.AperFunction,Conductor*
G36*
X202668208Y-131043085D02*
G01*
X202742052Y-131091979D01*
X202753605Y-131105222D01*
X202811724Y-131178101D01*
X202839175Y-131212523D01*
X203077477Y-131450825D01*
X203340961Y-131660946D01*
X203626314Y-131840246D01*
X203929949Y-131986469D01*
X204248046Y-132097776D01*
X204576606Y-132172767D01*
X204911496Y-132210500D01*
X223238912Y-132210500D01*
X223325255Y-132230207D01*
X223379626Y-132268786D01*
X223574462Y-132463622D01*
X223574466Y-132463625D01*
X223574469Y-132463628D01*
X223705445Y-132565741D01*
X223828868Y-132661966D01*
X223880354Y-132692758D01*
X224105710Y-132827537D01*
X224250937Y-132891661D01*
X224400799Y-132957831D01*
X224400800Y-132957832D01*
X224407599Y-132959880D01*
X224709668Y-133050877D01*
X224709683Y-133050879D01*
X224709685Y-133050880D01*
X225027605Y-133105258D01*
X225027616Y-133105258D01*
X225027628Y-133105261D01*
X225217412Y-133115500D01*
X225217421Y-133115500D01*
X228412579Y-133115500D01*
X228412588Y-133115500D01*
X228602372Y-133105261D01*
X228602384Y-133105258D01*
X228602394Y-133105258D01*
X228920314Y-133050880D01*
X228920312Y-133050880D01*
X228920332Y-133050877D01*
X229229199Y-132957832D01*
X229524290Y-132827537D01*
X229801133Y-132661965D01*
X229877646Y-132602312D01*
X229957854Y-132564767D01*
X230046412Y-132565741D01*
X230122353Y-132602312D01*
X230198867Y-132661965D01*
X230475710Y-132827537D01*
X230620937Y-132891661D01*
X230770799Y-132957831D01*
X230770800Y-132957832D01*
X230777599Y-132959880D01*
X231079668Y-133050877D01*
X231079683Y-133050879D01*
X231079685Y-133050880D01*
X231397605Y-133105258D01*
X231397616Y-133105258D01*
X231397628Y-133105261D01*
X231587412Y-133115500D01*
X231587421Y-133115500D01*
X234782579Y-133115500D01*
X234782588Y-133115500D01*
X234972372Y-133105261D01*
X234972384Y-133105258D01*
X234972394Y-133105258D01*
X235290314Y-133050880D01*
X235290312Y-133050880D01*
X235290332Y-133050877D01*
X235599199Y-132957832D01*
X235894290Y-132827537D01*
X236042806Y-132738714D01*
X236127022Y-132711309D01*
X236144948Y-132710500D01*
X248939680Y-132710500D01*
X249026023Y-132730207D01*
X249095264Y-132785426D01*
X249133691Y-132865218D01*
X249133691Y-132953782D01*
X249095264Y-133033574D01*
X249026023Y-133088793D01*
X249001175Y-133098760D01*
X248900171Y-133131578D01*
X248900167Y-133131579D01*
X248724857Y-133220903D01*
X248648919Y-133276075D01*
X248648919Y-133276076D01*
X249194823Y-133821980D01*
X249187007Y-133824075D01*
X249072993Y-133889901D01*
X248979901Y-133982993D01*
X248914075Y-134097007D01*
X248911980Y-134104823D01*
X248366076Y-133558919D01*
X248366075Y-133558919D01*
X248310903Y-133634857D01*
X248221579Y-133810167D01*
X248221578Y-133810171D01*
X248160780Y-133997287D01*
X248160777Y-133997298D01*
X248130000Y-134191623D01*
X248130000Y-134388376D01*
X248160777Y-134582701D01*
X248160780Y-134582712D01*
X248221578Y-134769828D01*
X248221579Y-134769832D01*
X248310904Y-134945143D01*
X248366076Y-135021079D01*
X248911980Y-134475176D01*
X248914075Y-134482993D01*
X248979901Y-134597007D01*
X249072993Y-134690099D01*
X249187007Y-134755925D01*
X249194822Y-134758019D01*
X248648919Y-135303922D01*
X248648919Y-135303923D01*
X248724856Y-135359095D01*
X248900167Y-135448420D01*
X248900171Y-135448421D01*
X249001175Y-135481240D01*
X249077202Y-135526664D01*
X249125991Y-135600577D01*
X249137879Y-135688339D01*
X249110511Y-135772568D01*
X249049308Y-135836580D01*
X248966392Y-135867699D01*
X248939680Y-135869500D01*
X171902383Y-135869500D01*
X171869835Y-135862071D01*
X171836657Y-135858333D01*
X171827073Y-135852311D01*
X171816040Y-135849793D01*
X171761668Y-135811214D01*
X171608785Y-135658330D01*
X171561667Y-135583341D01*
X171550500Y-135517616D01*
X171550500Y-132909500D01*
X171570207Y-132823157D01*
X171625426Y-132753916D01*
X171705218Y-132715489D01*
X171749500Y-132710500D01*
X172771966Y-132710500D01*
X172771969Y-132710500D01*
X173114250Y-132676789D01*
X173451578Y-132609690D01*
X173780705Y-132509850D01*
X174098462Y-132378231D01*
X174368302Y-132233997D01*
X174453739Y-132210676D01*
X174462110Y-132210500D01*
X180268503Y-132210500D01*
X180268504Y-132210500D01*
X180603394Y-132172767D01*
X180931954Y-132097776D01*
X181250051Y-131986469D01*
X181553686Y-131840246D01*
X181555726Y-131838963D01*
X181557591Y-131838087D01*
X181558573Y-131837545D01*
X181558608Y-131837609D01*
X181599487Y-131818401D01*
X181650736Y-131801560D01*
X181650743Y-131801557D01*
X181650750Y-131801555D01*
X181920933Y-131670646D01*
X182040135Y-131591716D01*
X182123004Y-131560479D01*
X182211222Y-131568291D01*
X182259863Y-131591715D01*
X182339506Y-131644450D01*
X182364411Y-131660942D01*
X182379067Y-131670646D01*
X182649250Y-131801555D01*
X182700523Y-131818404D01*
X182741387Y-131837606D01*
X182741423Y-131837543D01*
X182742392Y-131838078D01*
X182744265Y-131838959D01*
X182746314Y-131840246D01*
X183049949Y-131986469D01*
X183368046Y-132097776D01*
X183696606Y-132172767D01*
X184031496Y-132210500D01*
X184031497Y-132210500D01*
X200168503Y-132210500D01*
X200168504Y-132210500D01*
X200503394Y-132172767D01*
X200831954Y-132097776D01*
X201072675Y-132013543D01*
X201102024Y-132005729D01*
X201159464Y-131995051D01*
X201159465Y-131995051D01*
X201159466Y-131995050D01*
X201159469Y-131995050D01*
X201445716Y-131900984D01*
X201716870Y-131769604D01*
X201968095Y-131603255D01*
X202194906Y-131404906D01*
X202393250Y-131178101D01*
X202393250Y-131178099D01*
X202393255Y-131178095D01*
X202432101Y-131119427D01*
X202496196Y-131058321D01*
X202580464Y-131031073D01*
X202668208Y-131043085D01*
G37*
G04 #@! TD.AperFunction*
G04 #@! TA.AperFunction,Conductor*
G36*
X251454075Y-134482993D02*
G01*
X251519901Y-134597007D01*
X251612993Y-134690099D01*
X251727007Y-134755925D01*
X251734822Y-134758019D01*
X251188919Y-135303922D01*
X251188919Y-135303923D01*
X251264856Y-135359095D01*
X251440167Y-135448420D01*
X251440171Y-135448421D01*
X251541175Y-135481240D01*
X251617202Y-135526664D01*
X251665991Y-135600577D01*
X251677879Y-135688339D01*
X251650511Y-135772568D01*
X251589308Y-135836580D01*
X251506392Y-135867699D01*
X251479680Y-135869500D01*
X249820320Y-135869500D01*
X249733977Y-135849793D01*
X249664736Y-135794574D01*
X249626309Y-135714782D01*
X249626309Y-135626218D01*
X249664736Y-135546426D01*
X249733977Y-135491207D01*
X249758825Y-135481240D01*
X249859828Y-135448421D01*
X249859832Y-135448419D01*
X250035140Y-135359097D01*
X250111079Y-135303923D01*
X250111079Y-135303921D01*
X249565177Y-134758019D01*
X249572993Y-134755925D01*
X249687007Y-134690099D01*
X249780099Y-134597007D01*
X249845925Y-134482993D01*
X249848019Y-134475177D01*
X250393921Y-135021079D01*
X250393923Y-135021079D01*
X250449095Y-134945143D01*
X250472688Y-134898839D01*
X250529446Y-134830853D01*
X250610080Y-134794226D01*
X250698621Y-134796212D01*
X250777532Y-134836418D01*
X250827311Y-134898838D01*
X250850904Y-134945143D01*
X250906076Y-135021079D01*
X251451980Y-134475176D01*
X251454075Y-134482993D01*
G37*
G04 #@! TD.AperFunction*
G04 #@! TA.AperFunction,Conductor*
G36*
X253994075Y-134482993D02*
G01*
X254059901Y-134597007D01*
X254152993Y-134690099D01*
X254267007Y-134755925D01*
X254274822Y-134758019D01*
X253728919Y-135303922D01*
X253728919Y-135303923D01*
X253804856Y-135359095D01*
X253980167Y-135448420D01*
X253980171Y-135448421D01*
X254081175Y-135481240D01*
X254157202Y-135526664D01*
X254205991Y-135600577D01*
X254217879Y-135688339D01*
X254190511Y-135772568D01*
X254129308Y-135836580D01*
X254046392Y-135867699D01*
X254019680Y-135869500D01*
X252360320Y-135869500D01*
X252273977Y-135849793D01*
X252204736Y-135794574D01*
X252166309Y-135714782D01*
X252166309Y-135626218D01*
X252204736Y-135546426D01*
X252273977Y-135491207D01*
X252298825Y-135481240D01*
X252399828Y-135448421D01*
X252399832Y-135448419D01*
X252575140Y-135359097D01*
X252651079Y-135303923D01*
X252651079Y-135303921D01*
X252105177Y-134758019D01*
X252112993Y-134755925D01*
X252227007Y-134690099D01*
X252320099Y-134597007D01*
X252385925Y-134482993D01*
X252388019Y-134475177D01*
X252933921Y-135021079D01*
X252933923Y-135021079D01*
X252989095Y-134945143D01*
X253012688Y-134898839D01*
X253069446Y-134830853D01*
X253150080Y-134794226D01*
X253238621Y-134796212D01*
X253317532Y-134836418D01*
X253367311Y-134898838D01*
X253390904Y-134945143D01*
X253446076Y-135021079D01*
X253991980Y-134475176D01*
X253994075Y-134482993D01*
G37*
G04 #@! TD.AperFunction*
G04 #@! TA.AperFunction,Conductor*
G36*
X251566023Y-132730207D02*
G01*
X251635264Y-132785426D01*
X251673691Y-132865218D01*
X251673691Y-132953782D01*
X251635264Y-133033574D01*
X251566023Y-133088793D01*
X251541175Y-133098760D01*
X251440171Y-133131578D01*
X251440167Y-133131579D01*
X251264857Y-133220903D01*
X251188919Y-133276075D01*
X251188919Y-133276076D01*
X251734823Y-133821980D01*
X251727007Y-133824075D01*
X251612993Y-133889901D01*
X251519901Y-133982993D01*
X251454075Y-134097007D01*
X251451980Y-134104823D01*
X250906076Y-133558919D01*
X250906075Y-133558919D01*
X250850902Y-133634860D01*
X250827310Y-133681162D01*
X250770552Y-133749147D01*
X250689917Y-133785773D01*
X250601376Y-133783786D01*
X250522466Y-133743579D01*
X250472690Y-133681162D01*
X250449097Y-133634859D01*
X250393922Y-133558919D01*
X249848019Y-134104822D01*
X249845925Y-134097007D01*
X249780099Y-133982993D01*
X249687007Y-133889901D01*
X249572993Y-133824075D01*
X249565176Y-133821980D01*
X250111079Y-133276076D01*
X250111079Y-133276075D01*
X250035143Y-133220904D01*
X249859832Y-133131579D01*
X249859828Y-133131578D01*
X249758825Y-133098760D01*
X249682798Y-133053336D01*
X249634009Y-132979423D01*
X249622121Y-132891661D01*
X249649489Y-132807432D01*
X249710692Y-132743420D01*
X249793608Y-132712301D01*
X249820320Y-132710500D01*
X251479680Y-132710500D01*
X251566023Y-132730207D01*
G37*
G04 #@! TD.AperFunction*
G04 #@! TA.AperFunction,Conductor*
G36*
X254106023Y-132730207D02*
G01*
X254175264Y-132785426D01*
X254213691Y-132865218D01*
X254213691Y-132953782D01*
X254175264Y-133033574D01*
X254106023Y-133088793D01*
X254081175Y-133098760D01*
X253980171Y-133131578D01*
X253980167Y-133131579D01*
X253804857Y-133220903D01*
X253728919Y-133276075D01*
X253728919Y-133276076D01*
X254274823Y-133821980D01*
X254267007Y-133824075D01*
X254152993Y-133889901D01*
X254059901Y-133982993D01*
X253994075Y-134097007D01*
X253991980Y-134104823D01*
X253446076Y-133558919D01*
X253446075Y-133558919D01*
X253390902Y-133634860D01*
X253367310Y-133681162D01*
X253310552Y-133749147D01*
X253229917Y-133785773D01*
X253141376Y-133783786D01*
X253062466Y-133743579D01*
X253012690Y-133681162D01*
X252989097Y-133634859D01*
X252933922Y-133558919D01*
X252388019Y-134104822D01*
X252385925Y-134097007D01*
X252320099Y-133982993D01*
X252227007Y-133889901D01*
X252112993Y-133824075D01*
X252105176Y-133821980D01*
X252651079Y-133276076D01*
X252651079Y-133276075D01*
X252575143Y-133220904D01*
X252399832Y-133131579D01*
X252399828Y-133131578D01*
X252298825Y-133098760D01*
X252222798Y-133053336D01*
X252174009Y-132979423D01*
X252162121Y-132891661D01*
X252189489Y-132807432D01*
X252250692Y-132743420D01*
X252333608Y-132712301D01*
X252360320Y-132710500D01*
X254019680Y-132710500D01*
X254106023Y-132730207D01*
G37*
G04 #@! TD.AperFunction*
G04 #@! TA.AperFunction,Conductor*
G36*
X251454075Y-124322993D02*
G01*
X251519901Y-124437007D01*
X251612993Y-124530099D01*
X251727007Y-124595925D01*
X251734822Y-124598019D01*
X251188919Y-125143922D01*
X251188919Y-125143923D01*
X251264856Y-125199095D01*
X251440167Y-125288420D01*
X251440171Y-125288421D01*
X251541175Y-125321240D01*
X251617202Y-125366664D01*
X251665991Y-125440577D01*
X251677879Y-125528339D01*
X251650511Y-125612568D01*
X251589308Y-125676580D01*
X251506392Y-125707699D01*
X251479680Y-125709500D01*
X249820320Y-125709500D01*
X249733977Y-125689793D01*
X249664736Y-125634574D01*
X249626309Y-125554782D01*
X249626309Y-125466218D01*
X249664736Y-125386426D01*
X249733977Y-125331207D01*
X249758825Y-125321240D01*
X249859828Y-125288421D01*
X249859832Y-125288419D01*
X250035140Y-125199097D01*
X250111079Y-125143923D01*
X250111079Y-125143921D01*
X249565177Y-124598019D01*
X249572993Y-124595925D01*
X249687007Y-124530099D01*
X249780099Y-124437007D01*
X249845925Y-124322993D01*
X249848019Y-124315177D01*
X250393921Y-124861079D01*
X250393923Y-124861079D01*
X250449095Y-124785143D01*
X250472688Y-124738839D01*
X250529446Y-124670853D01*
X250610080Y-124634226D01*
X250698621Y-124636212D01*
X250777532Y-124676418D01*
X250827311Y-124738838D01*
X250850904Y-124785143D01*
X250906076Y-124861079D01*
X251451980Y-124315176D01*
X251454075Y-124322993D01*
G37*
G04 #@! TD.AperFunction*
G04 #@! TA.AperFunction,Conductor*
G36*
X253994075Y-124322993D02*
G01*
X254059901Y-124437007D01*
X254152993Y-124530099D01*
X254267007Y-124595925D01*
X254274822Y-124598019D01*
X253728919Y-125143922D01*
X253728919Y-125143923D01*
X253804856Y-125199095D01*
X253980167Y-125288420D01*
X253980171Y-125288421D01*
X254081175Y-125321240D01*
X254157202Y-125366664D01*
X254205991Y-125440577D01*
X254217879Y-125528339D01*
X254190511Y-125612568D01*
X254129308Y-125676580D01*
X254046392Y-125707699D01*
X254019680Y-125709500D01*
X252360320Y-125709500D01*
X252273977Y-125689793D01*
X252204736Y-125634574D01*
X252166309Y-125554782D01*
X252166309Y-125466218D01*
X252204736Y-125386426D01*
X252273977Y-125331207D01*
X252298825Y-125321240D01*
X252399828Y-125288421D01*
X252399832Y-125288419D01*
X252575140Y-125199097D01*
X252651079Y-125143923D01*
X252651079Y-125143921D01*
X252105177Y-124598019D01*
X252112993Y-124595925D01*
X252227007Y-124530099D01*
X252320099Y-124437007D01*
X252385925Y-124322993D01*
X252388019Y-124315177D01*
X252933921Y-124861079D01*
X252933923Y-124861079D01*
X252989095Y-124785143D01*
X253012688Y-124738839D01*
X253069446Y-124670853D01*
X253150080Y-124634226D01*
X253238621Y-124636212D01*
X253317532Y-124676418D01*
X253367311Y-124738838D01*
X253390904Y-124785143D01*
X253446076Y-124861079D01*
X253991980Y-124315176D01*
X253994075Y-124322993D01*
G37*
G04 #@! TD.AperFunction*
G04 #@! TA.AperFunction,Conductor*
G36*
X115306374Y-100724407D02*
G01*
X115368998Y-100787031D01*
X115398249Y-100870624D01*
X115399500Y-100892905D01*
X115399500Y-109406094D01*
X115379793Y-109492437D01*
X115341214Y-109546808D01*
X111972254Y-112915768D01*
X108896000Y-115992022D01*
X108895996Y-115992026D01*
X108794010Y-116094012D01*
X108692024Y-116195997D01*
X108516421Y-116424848D01*
X108372197Y-116674650D01*
X108372196Y-116674653D01*
X108353208Y-116720497D01*
X108353207Y-116720500D01*
X108261809Y-116941150D01*
X108261805Y-116941162D01*
X108187150Y-117219784D01*
X108149499Y-117505765D01*
X108149499Y-117801276D01*
X108149500Y-117801305D01*
X108149500Y-118608163D01*
X108129793Y-118694506D01*
X108100299Y-118739164D01*
X107931746Y-118931902D01*
X107765400Y-119183122D01*
X107765393Y-119183135D01*
X107634015Y-119454284D01*
X107634013Y-119454289D01*
X107539952Y-119740523D01*
X107539951Y-119740527D01*
X107539950Y-119740531D01*
X107508028Y-119912232D01*
X107484877Y-120036760D01*
X107474500Y-120213981D01*
X107474500Y-121186018D01*
X107484877Y-121363237D01*
X107484878Y-121363245D01*
X107498056Y-121434127D01*
X107494462Y-121522617D01*
X107452830Y-121600785D01*
X107381405Y-121653149D01*
X107302408Y-121669500D01*
X105347148Y-121669500D01*
X105260805Y-121649793D01*
X105223074Y-121626084D01*
X105127768Y-121550080D01*
X105094143Y-121523265D01*
X105094140Y-121523263D01*
X105094135Y-121523259D01*
X104832576Y-121358911D01*
X104832569Y-121358908D01*
X104832565Y-121358905D01*
X104807523Y-121346845D01*
X104738284Y-121291625D01*
X104699860Y-121211832D01*
X104699863Y-121123268D01*
X104738291Y-121043476D01*
X104750000Y-121030373D01*
X104750000Y-120432177D01*
X104743598Y-120372627D01*
X104743596Y-120372618D01*
X104693353Y-120237912D01*
X104693352Y-120237909D01*
X104607189Y-120122810D01*
X104492090Y-120036647D01*
X104492087Y-120036646D01*
X104357381Y-119986403D01*
X104357372Y-119986401D01*
X104297823Y-119980000D01*
X103700000Y-119980000D01*
X103700000Y-120820500D01*
X103695011Y-120842358D01*
X103695011Y-120864782D01*
X103689009Y-120877243D01*
X103654394Y-120857259D01*
X103552661Y-120830000D01*
X103447339Y-120830000D01*
X103345606Y-120857259D01*
X103310990Y-120877244D01*
X103304989Y-120864782D01*
X103300000Y-120820500D01*
X103300000Y-119980000D01*
X102702177Y-119980000D01*
X102642627Y-119986401D01*
X102642618Y-119986403D01*
X102507912Y-120036646D01*
X102507909Y-120036647D01*
X102392810Y-120122810D01*
X102306647Y-120237909D01*
X102306646Y-120237912D01*
X102256403Y-120372618D01*
X102256401Y-120372627D01*
X102250000Y-120432177D01*
X102250000Y-121031868D01*
X102293960Y-121101829D01*
X102303876Y-121189836D01*
X102274625Y-121273429D01*
X102212001Y-121336053D01*
X102192477Y-121346844D01*
X102167435Y-121358904D01*
X102167425Y-121358910D01*
X101905863Y-121523259D01*
X101905859Y-121523263D01*
X101823074Y-121589282D01*
X101743281Y-121627708D01*
X101654718Y-121627708D01*
X101574925Y-121589281D01*
X101519707Y-121520040D01*
X101500000Y-121433697D01*
X101500000Y-111106302D01*
X101519707Y-111019959D01*
X101574926Y-110950718D01*
X101654718Y-110912291D01*
X101743282Y-110912291D01*
X101823074Y-110950718D01*
X101905857Y-111016735D01*
X101905863Y-111016740D01*
X102167424Y-111181089D01*
X102167430Y-111181091D01*
X102167435Y-111181095D01*
X102445771Y-111315135D01*
X102737364Y-111417168D01*
X103038548Y-111485911D01*
X103345535Y-111520500D01*
X103345536Y-111520500D01*
X103654464Y-111520500D01*
X103654465Y-111520500D01*
X103961452Y-111485911D01*
X104262636Y-111417168D01*
X104554229Y-111315135D01*
X104832565Y-111181095D01*
X104914510Y-111129606D01*
X105094135Y-111016740D01*
X105094134Y-111016740D01*
X105094143Y-111016735D01*
X105187019Y-110942668D01*
X105223074Y-110913916D01*
X105302866Y-110875489D01*
X105347148Y-110870500D01*
X108176100Y-110870500D01*
X108262443Y-110890207D01*
X108307101Y-110919701D01*
X108356902Y-110963253D01*
X108572938Y-111106302D01*
X108608130Y-111129604D01*
X108714402Y-111181095D01*
X108879284Y-111260984D01*
X108879289Y-111260986D01*
X109019625Y-111307102D01*
X109165531Y-111355050D01*
X109461762Y-111410123D01*
X109638979Y-111420500D01*
X111061020Y-111420499D01*
X111238238Y-111410123D01*
X111534469Y-111355050D01*
X111820716Y-111260984D01*
X112091870Y-111129604D01*
X112343095Y-110963255D01*
X112569906Y-110764906D01*
X112768255Y-110538095D01*
X112934604Y-110286870D01*
X113065984Y-110015716D01*
X113160050Y-109729469D01*
X113215123Y-109433238D01*
X113225500Y-109256021D01*
X113225499Y-108283980D01*
X113215123Y-108106762D01*
X113160050Y-107810531D01*
X113076878Y-107557435D01*
X113065986Y-107524289D01*
X113065984Y-107524284D01*
X112960594Y-107306771D01*
X112940681Y-107220475D01*
X112960181Y-107134086D01*
X112960594Y-107133229D01*
X113065984Y-106915715D01*
X113065986Y-106915710D01*
X113069641Y-106904586D01*
X113160050Y-106629469D01*
X113215123Y-106333238D01*
X113225500Y-106156021D01*
X113225499Y-105183980D01*
X113215123Y-105006762D01*
X113160050Y-104710531D01*
X113065984Y-104424284D01*
X112934604Y-104153130D01*
X112768255Y-103901905D01*
X112768254Y-103901904D01*
X112768253Y-103901902D01*
X112599701Y-103709164D01*
X112586958Y-103685511D01*
X112570207Y-103664506D01*
X112566211Y-103647000D01*
X112557697Y-103631196D01*
X112550500Y-103578163D01*
X112550500Y-103343905D01*
X112570207Y-103257562D01*
X112608786Y-103203191D01*
X115059786Y-100752191D01*
X115134774Y-100705072D01*
X115222781Y-100695156D01*
X115306374Y-100724407D01*
G37*
G04 #@! TD.AperFunction*
G04 #@! TA.AperFunction,Conductor*
G36*
X108262443Y-95890207D02*
G01*
X108307101Y-95919701D01*
X108356902Y-95963253D01*
X108572938Y-96106302D01*
X108608130Y-96129604D01*
X108868432Y-96255726D01*
X108879284Y-96260984D01*
X108879289Y-96260986D01*
X108963853Y-96288775D01*
X109165531Y-96355050D01*
X109461762Y-96410123D01*
X109638979Y-96420500D01*
X111061020Y-96420499D01*
X111238238Y-96410123D01*
X111534469Y-96355050D01*
X111538361Y-96353770D01*
X111540103Y-96353607D01*
X111540924Y-96353398D01*
X111540957Y-96353528D01*
X111626538Y-96345531D01*
X111709560Y-96376366D01*
X111770981Y-96440170D01*
X111798637Y-96524304D01*
X111799500Y-96542820D01*
X111799500Y-97706094D01*
X111779793Y-97792437D01*
X111741214Y-97846808D01*
X110095386Y-99492636D01*
X108896000Y-100692022D01*
X108895996Y-100692026D01*
X108835831Y-100752191D01*
X108692024Y-100895997D01*
X108516421Y-101124848D01*
X108375591Y-101368775D01*
X108372196Y-101374655D01*
X108357260Y-101410714D01*
X108342681Y-101445911D01*
X108261811Y-101641144D01*
X108261805Y-101641162D01*
X108187150Y-101919784D01*
X108149499Y-102205765D01*
X108149499Y-102501276D01*
X108149500Y-102501305D01*
X108149500Y-103578163D01*
X108129793Y-103664506D01*
X108100299Y-103709164D01*
X107931746Y-103901902D01*
X107765400Y-104153122D01*
X107765393Y-104153135D01*
X107634015Y-104424284D01*
X107634013Y-104424289D01*
X107539952Y-104710523D01*
X107539951Y-104710527D01*
X107539950Y-104710531D01*
X107511378Y-104864214D01*
X107484877Y-105006760D01*
X107474500Y-105183981D01*
X107474500Y-106156018D01*
X107484877Y-106333237D01*
X107484879Y-106333257D01*
X107503633Y-106434126D01*
X107500040Y-106522616D01*
X107458409Y-106600784D01*
X107386984Y-106653148D01*
X107307986Y-106669500D01*
X105347148Y-106669500D01*
X105260805Y-106649793D01*
X105223074Y-106626084D01*
X105094140Y-106523263D01*
X105094135Y-106523259D01*
X104832576Y-106358911D01*
X104832569Y-106358908D01*
X104832565Y-106358905D01*
X104807523Y-106346845D01*
X104738284Y-106291625D01*
X104699860Y-106211832D01*
X104699863Y-106123268D01*
X104738291Y-106043476D01*
X104750000Y-106030373D01*
X104750000Y-105432177D01*
X104743598Y-105372627D01*
X104743596Y-105372618D01*
X104693353Y-105237912D01*
X104693352Y-105237909D01*
X104607189Y-105122810D01*
X104492090Y-105036647D01*
X104492087Y-105036646D01*
X104357381Y-104986403D01*
X104357372Y-104986401D01*
X104297823Y-104980000D01*
X103700000Y-104980000D01*
X103700000Y-105820500D01*
X103695011Y-105842358D01*
X103695011Y-105864782D01*
X103689009Y-105877243D01*
X103654394Y-105857259D01*
X103552661Y-105830000D01*
X103447339Y-105830000D01*
X103345606Y-105857259D01*
X103310990Y-105877244D01*
X103304989Y-105864782D01*
X103300000Y-105820500D01*
X103300000Y-104980000D01*
X102702177Y-104980000D01*
X102642627Y-104986401D01*
X102642618Y-104986403D01*
X102507912Y-105036646D01*
X102507909Y-105036647D01*
X102392810Y-105122810D01*
X102306647Y-105237909D01*
X102306646Y-105237912D01*
X102256403Y-105372618D01*
X102256401Y-105372627D01*
X102250000Y-105432177D01*
X102250000Y-106031868D01*
X102293960Y-106101829D01*
X102303876Y-106189836D01*
X102274625Y-106273429D01*
X102212001Y-106336053D01*
X102192477Y-106346844D01*
X102167435Y-106358904D01*
X102167425Y-106358910D01*
X101905863Y-106523259D01*
X101905859Y-106523263D01*
X101823074Y-106589282D01*
X101743281Y-106627708D01*
X101654718Y-106627708D01*
X101574925Y-106589281D01*
X101519707Y-106520040D01*
X101500000Y-106433697D01*
X101500000Y-96106302D01*
X101519707Y-96019959D01*
X101574926Y-95950718D01*
X101654718Y-95912291D01*
X101743282Y-95912291D01*
X101823074Y-95950718D01*
X101905857Y-96016735D01*
X101905863Y-96016740D01*
X102167424Y-96181089D01*
X102167430Y-96181091D01*
X102167435Y-96181095D01*
X102445771Y-96315135D01*
X102737364Y-96417168D01*
X103038548Y-96485911D01*
X103345535Y-96520500D01*
X103345536Y-96520500D01*
X103654464Y-96520500D01*
X103654465Y-96520500D01*
X103961452Y-96485911D01*
X104262636Y-96417168D01*
X104554229Y-96315135D01*
X104832565Y-96181095D01*
X104914510Y-96129606D01*
X105094135Y-96016740D01*
X105094134Y-96016740D01*
X105094143Y-96016735D01*
X105187019Y-95942668D01*
X105223074Y-95913916D01*
X105302866Y-95875489D01*
X105347148Y-95870500D01*
X108176100Y-95870500D01*
X108262443Y-95890207D01*
G37*
G04 #@! TD.AperFunction*
G04 #@! TA.AperFunction,Conductor*
G36*
X108202294Y-80876478D02*
G01*
X108229133Y-80877697D01*
X108244937Y-80886211D01*
X108262443Y-80890207D01*
X108307101Y-80919701D01*
X108356902Y-80963253D01*
X108572938Y-81106302D01*
X108608130Y-81129604D01*
X108714402Y-81181095D01*
X108879284Y-81260984D01*
X108879289Y-81260986D01*
X109019625Y-81307102D01*
X109165531Y-81355050D01*
X109461762Y-81410123D01*
X109638979Y-81420500D01*
X111061020Y-81420499D01*
X111238238Y-81410123D01*
X111238250Y-81410120D01*
X111238257Y-81410120D01*
X111341514Y-81390922D01*
X111464128Y-81368127D01*
X111552616Y-81371720D01*
X111630784Y-81413351D01*
X111683148Y-81484776D01*
X111699500Y-81563774D01*
X111699500Y-81750783D01*
X111718600Y-81895863D01*
X111738863Y-82049773D01*
X111792719Y-82250764D01*
X111799500Y-82302269D01*
X111799500Y-89553411D01*
X111779793Y-89639754D01*
X111724574Y-89708995D01*
X111644782Y-89747422D01*
X111556218Y-89747422D01*
X111476426Y-89708995D01*
X111459786Y-89694125D01*
X111443346Y-89677685D01*
X111443342Y-89677682D01*
X111294121Y-89585642D01*
X111127700Y-89530495D01*
X111024970Y-89520000D01*
X110550000Y-89520000D01*
X110550000Y-90471000D01*
X110545011Y-90492858D01*
X110545011Y-90515282D01*
X110535282Y-90535483D01*
X110530293Y-90557343D01*
X110516311Y-90574874D01*
X110506584Y-90595074D01*
X110489053Y-90609053D01*
X110475074Y-90626584D01*
X110454874Y-90636311D01*
X110437343Y-90650293D01*
X110415483Y-90655282D01*
X110395282Y-90665011D01*
X110351000Y-90670000D01*
X110350000Y-90670000D01*
X110350000Y-90671000D01*
X110330293Y-90757343D01*
X110275074Y-90826584D01*
X110195282Y-90865011D01*
X110151000Y-90870000D01*
X108975001Y-90870000D01*
X108975001Y-91107930D01*
X108955294Y-91194273D01*
X108900075Y-91263514D01*
X108862772Y-91287016D01*
X108608135Y-91410393D01*
X108608122Y-91410400D01*
X108356902Y-91576746D01*
X108307101Y-91620299D01*
X108229133Y-91662303D01*
X108176100Y-91669500D01*
X106449500Y-91669500D01*
X106363157Y-91649793D01*
X106293916Y-91594574D01*
X106255489Y-91514782D01*
X106250500Y-91470500D01*
X106250500Y-90408563D01*
X106250500Y-90408552D01*
X106237017Y-90220029D01*
X108975000Y-90220029D01*
X108975000Y-90470000D01*
X110150000Y-90470000D01*
X110150000Y-89520000D01*
X109675023Y-89520000D01*
X109675016Y-89520001D01*
X109572304Y-89530493D01*
X109572303Y-89530493D01*
X109405879Y-89585641D01*
X109256657Y-89677682D01*
X109256653Y-89677685D01*
X109132685Y-89801653D01*
X109132682Y-89801657D01*
X109040642Y-89950878D01*
X108985495Y-90117299D01*
X108975000Y-90220029D01*
X106237017Y-90220029D01*
X106235196Y-90194572D01*
X106174369Y-89914954D01*
X106074367Y-89646839D01*
X105937226Y-89395685D01*
X105765739Y-89166605D01*
X105765733Y-89166599D01*
X105765731Y-89166596D01*
X105563403Y-88964268D01*
X105563399Y-88964265D01*
X105563395Y-88964261D01*
X105334315Y-88792774D01*
X105334311Y-88792771D01*
X105083161Y-88655633D01*
X104815048Y-88555631D01*
X104535427Y-88494803D01*
X104321448Y-88479500D01*
X102678552Y-88479500D01*
X102678551Y-88479500D01*
X102464572Y-88494803D01*
X102184951Y-88555631D01*
X101916840Y-88655632D01*
X101794370Y-88722506D01*
X101709144Y-88746588D01*
X101621908Y-88731308D01*
X101549942Y-88679691D01*
X101507499Y-88601960D01*
X101500000Y-88547847D01*
X101500000Y-81106302D01*
X101519707Y-81019959D01*
X101574926Y-80950718D01*
X101654718Y-80912291D01*
X101743282Y-80912291D01*
X101823074Y-80950718D01*
X101893893Y-81007194D01*
X101905857Y-81016735D01*
X101905863Y-81016740D01*
X102167424Y-81181089D01*
X102167430Y-81181091D01*
X102167435Y-81181095D01*
X102445771Y-81315135D01*
X102737364Y-81417168D01*
X103038548Y-81485911D01*
X103345535Y-81520500D01*
X103345536Y-81520500D01*
X103654464Y-81520500D01*
X103654465Y-81520500D01*
X103961452Y-81485911D01*
X104262636Y-81417168D01*
X104554229Y-81315135D01*
X104832565Y-81181095D01*
X104914510Y-81129606D01*
X105094135Y-81016740D01*
X105094134Y-81016740D01*
X105094143Y-81016735D01*
X105187019Y-80942668D01*
X105223074Y-80913916D01*
X105302866Y-80875489D01*
X105347148Y-80870500D01*
X108176100Y-80870500D01*
X108202294Y-80876478D01*
G37*
G04 #@! TD.AperFunction*
G04 #@! TA.AperFunction,Conductor*
G36*
X113892438Y-73720207D02*
G01*
X113946809Y-73758786D01*
X117741214Y-77553191D01*
X117788333Y-77628179D01*
X117799500Y-77693905D01*
X117799500Y-78800500D01*
X117779793Y-78886843D01*
X117724574Y-78956084D01*
X117644782Y-78994511D01*
X117600500Y-78999500D01*
X117449217Y-78999500D01*
X117150232Y-79038862D01*
X117150228Y-79038862D01*
X117150228Y-79038863D01*
X116858944Y-79116912D01*
X116580336Y-79232315D01*
X116580334Y-79232316D01*
X116580332Y-79232317D01*
X116558439Y-79244956D01*
X116319172Y-79383096D01*
X116079916Y-79566683D01*
X115866683Y-79779916D01*
X115816662Y-79845104D01*
X115748464Y-79901606D01*
X115662504Y-79922923D01*
X115575808Y-79904833D01*
X115525794Y-79870043D01*
X115524977Y-79870975D01*
X115520083Y-79866683D01*
X115280827Y-79683096D01*
X115082200Y-79568420D01*
X115019668Y-79532317D01*
X114741058Y-79416913D01*
X114741056Y-79416912D01*
X114741055Y-79416912D01*
X114523998Y-79358752D01*
X114449768Y-79338862D01*
X114150783Y-79299500D01*
X113849217Y-79299500D01*
X113550232Y-79338862D01*
X113476001Y-79358752D01*
X113387501Y-79362062D01*
X113306328Y-79326646D01*
X113248559Y-79259517D01*
X113225638Y-79173972D01*
X113225499Y-79166580D01*
X113225499Y-78283980D01*
X113215123Y-78106762D01*
X113160050Y-77810531D01*
X113093167Y-77607004D01*
X113065986Y-77524289D01*
X113065984Y-77524284D01*
X112977132Y-77340903D01*
X112934604Y-77253130D01*
X112933576Y-77251578D01*
X112768253Y-77001902D01*
X112569906Y-76775093D01*
X112343097Y-76576746D01*
X112091877Y-76410400D01*
X112091864Y-76410393D01*
X111952312Y-76342777D01*
X111837228Y-76287016D01*
X111768119Y-76231633D01*
X111729884Y-76151749D01*
X111725000Y-76107931D01*
X111725000Y-75870000D01*
X108975001Y-75870000D01*
X108975001Y-76107930D01*
X108955294Y-76194273D01*
X108900075Y-76263514D01*
X108862772Y-76287016D01*
X108608135Y-76410393D01*
X108608122Y-76410400D01*
X108356902Y-76576746D01*
X108307101Y-76620299D01*
X108229133Y-76662303D01*
X108176100Y-76669500D01*
X106449500Y-76669500D01*
X106363157Y-76649793D01*
X106293916Y-76594574D01*
X106255489Y-76514782D01*
X106250500Y-76470500D01*
X106250500Y-75408563D01*
X106250500Y-75408552D01*
X106237017Y-75220029D01*
X108975000Y-75220029D01*
X108975000Y-75470000D01*
X110150000Y-75470000D01*
X110550000Y-75470000D01*
X111724999Y-75470000D01*
X111724999Y-75220022D01*
X111724998Y-75220016D01*
X111714506Y-75117304D01*
X111714506Y-75117303D01*
X111659358Y-74950879D01*
X111567317Y-74801657D01*
X111567314Y-74801653D01*
X111443346Y-74677685D01*
X111443342Y-74677682D01*
X111294121Y-74585642D01*
X111127700Y-74530495D01*
X111024970Y-74520000D01*
X110550000Y-74520000D01*
X110550000Y-75470000D01*
X110150000Y-75470000D01*
X110150000Y-74520000D01*
X109675023Y-74520000D01*
X109675016Y-74520001D01*
X109572304Y-74530493D01*
X109572303Y-74530493D01*
X109405879Y-74585641D01*
X109256657Y-74677682D01*
X109256653Y-74677685D01*
X109132685Y-74801653D01*
X109132682Y-74801657D01*
X109040642Y-74950878D01*
X108985495Y-75117299D01*
X108975000Y-75220029D01*
X106237017Y-75220029D01*
X106235196Y-75194572D01*
X106183161Y-74955373D01*
X106182733Y-74953161D01*
X106184121Y-74911112D01*
X106184550Y-74869047D01*
X106185578Y-74866966D01*
X106185655Y-74864646D01*
X106205151Y-74827360D01*
X106223788Y-74789650D01*
X106226359Y-74786802D01*
X106226693Y-74786164D01*
X106227433Y-74785612D01*
X106237385Y-74774591D01*
X107253191Y-73758786D01*
X107328180Y-73711667D01*
X107393905Y-73700500D01*
X113806095Y-73700500D01*
X113892438Y-73720207D01*
G37*
G04 #@! TD.AperFunction*
G04 #@! TA.AperFunction,Conductor*
G36*
X164219569Y-71203329D02*
G01*
X164232225Y-71202083D01*
X164262298Y-71213081D01*
X164293516Y-71220207D01*
X164303457Y-71228135D01*
X164315400Y-71232503D01*
X164337726Y-71255464D01*
X164362757Y-71275426D01*
X164368273Y-71286879D01*
X164377140Y-71295999D01*
X164387291Y-71326371D01*
X164401184Y-71355218D01*
X164405215Y-71379995D01*
X164433211Y-71664251D01*
X164495868Y-71979246D01*
X164495868Y-71979251D01*
X164495869Y-71979251D01*
X164500310Y-72001578D01*
X164566870Y-72220996D01*
X164600151Y-72330709D01*
X164731768Y-72648461D01*
X164893899Y-72951785D01*
X164893902Y-72951791D01*
X165084979Y-73237759D01*
X165303164Y-73503618D01*
X165303182Y-73503638D01*
X167726361Y-75926817D01*
X167726381Y-75926835D01*
X167961145Y-76119501D01*
X167992240Y-76145020D01*
X168121866Y-76231633D01*
X168278211Y-76336100D01*
X168278213Y-76336101D01*
X168475882Y-76441756D01*
X168581538Y-76498231D01*
X168618145Y-76513394D01*
X168899295Y-76629851D01*
X168899298Y-76629852D01*
X169030001Y-76669500D01*
X169228422Y-76729690D01*
X169565750Y-76796789D01*
X169596433Y-76799810D01*
X169596438Y-76799812D01*
X169596439Y-76799811D01*
X169908031Y-76830501D01*
X169908033Y-76830501D01*
X170256909Y-76830501D01*
X170256949Y-76830500D01*
X171011408Y-76830500D01*
X171097751Y-76850207D01*
X171166992Y-76905426D01*
X171205419Y-76985218D01*
X171209377Y-77009273D01*
X171210492Y-77020188D01*
X171210493Y-77020196D01*
X171265641Y-77186620D01*
X171357682Y-77335842D01*
X171357685Y-77335846D01*
X171481653Y-77459814D01*
X171481657Y-77459817D01*
X171630878Y-77551857D01*
X171797299Y-77607004D01*
X171900029Y-77617499D01*
X172399999Y-77617499D01*
X172400000Y-77617498D01*
X172400000Y-77029500D01*
X172404989Y-77007641D01*
X172404989Y-76985218D01*
X172414717Y-76965016D01*
X172419707Y-76943157D01*
X172433688Y-76925625D01*
X172443416Y-76905426D01*
X172460946Y-76891446D01*
X172474926Y-76873916D01*
X172495125Y-76864188D01*
X172512657Y-76850207D01*
X172534516Y-76845217D01*
X172554718Y-76835489D01*
X172599000Y-76830500D01*
X172601000Y-76830500D01*
X172687343Y-76850207D01*
X172756584Y-76905426D01*
X172795011Y-76985218D01*
X172800000Y-77029500D01*
X172800000Y-77617499D01*
X173299977Y-77617499D01*
X173299983Y-77617498D01*
X173402695Y-77607006D01*
X173402696Y-77607006D01*
X173569120Y-77551858D01*
X173718342Y-77459817D01*
X173718346Y-77459814D01*
X173842314Y-77335846D01*
X173842317Y-77335842D01*
X173934357Y-77186621D01*
X173989504Y-77020200D01*
X174000000Y-76917470D01*
X174000000Y-76670136D01*
X174004067Y-76652317D01*
X174003298Y-76634055D01*
X174013799Y-76609673D01*
X174019707Y-76583793D01*
X174031103Y-76569502D01*
X174038334Y-76552716D01*
X174058375Y-76535305D01*
X174074926Y-76514552D01*
X174105192Y-76494634D01*
X174355199Y-76361002D01*
X174368302Y-76353997D01*
X174453739Y-76330676D01*
X174462110Y-76330500D01*
X174744073Y-76330500D01*
X174830416Y-76350207D01*
X174899657Y-76405426D01*
X174938084Y-76485218D01*
X174938084Y-76573782D01*
X174900001Y-76652859D01*
X174900001Y-76917483D01*
X174910493Y-77020195D01*
X174910493Y-77020196D01*
X174965641Y-77186620D01*
X175057682Y-77335842D01*
X175057685Y-77335846D01*
X175181653Y-77459814D01*
X175181657Y-77459817D01*
X175330878Y-77551857D01*
X175497299Y-77607004D01*
X175600029Y-77617499D01*
X176099999Y-77617499D01*
X176100000Y-77617498D01*
X176100000Y-76652859D01*
X176085859Y-76623497D01*
X176068095Y-76595226D01*
X176066827Y-76583978D01*
X176061917Y-76573782D01*
X176061917Y-76540394D01*
X176058179Y-76507219D01*
X176061917Y-76496536D01*
X176061917Y-76485218D01*
X176076403Y-76455137D01*
X176087430Y-76423626D01*
X176095433Y-76415622D01*
X176100344Y-76405426D01*
X176126446Y-76384609D01*
X176150054Y-76361002D01*
X176160735Y-76357264D01*
X176169585Y-76350207D01*
X176202134Y-76342777D01*
X176233647Y-76331751D01*
X176255928Y-76330500D01*
X176344072Y-76330500D01*
X176430415Y-76350207D01*
X176499656Y-76405426D01*
X176538083Y-76485218D01*
X176538083Y-76573782D01*
X176500000Y-76652859D01*
X176500000Y-77617499D01*
X176999977Y-77617499D01*
X176999983Y-77617498D01*
X177102695Y-77607006D01*
X177102696Y-77607006D01*
X177269120Y-77551858D01*
X177418342Y-77459817D01*
X177418346Y-77459814D01*
X177542314Y-77335846D01*
X177542317Y-77335842D01*
X177634357Y-77186621D01*
X177689504Y-77020200D01*
X177700000Y-76917470D01*
X177700000Y-76646001D01*
X177668095Y-76595226D01*
X177658179Y-76507219D01*
X177687430Y-76423626D01*
X177750054Y-76361002D01*
X177833647Y-76331751D01*
X177855928Y-76330500D01*
X180268503Y-76330500D01*
X180268504Y-76330500D01*
X180603394Y-76292767D01*
X180931954Y-76217776D01*
X181250051Y-76106469D01*
X181553686Y-75960246D01*
X181555726Y-75958963D01*
X181557591Y-75958087D01*
X181558573Y-75957545D01*
X181558608Y-75957609D01*
X181599487Y-75938401D01*
X181650736Y-75921560D01*
X181650743Y-75921557D01*
X181650750Y-75921555D01*
X181920933Y-75790646D01*
X182040135Y-75711716D01*
X182123004Y-75680479D01*
X182211222Y-75688291D01*
X182259863Y-75711715D01*
X182379067Y-75790646D01*
X182649250Y-75921555D01*
X182700523Y-75938404D01*
X182741387Y-75957606D01*
X182741423Y-75957543D01*
X182742392Y-75958078D01*
X182744265Y-75958959D01*
X182746314Y-75960246D01*
X183049949Y-76106469D01*
X183368046Y-76217776D01*
X183696606Y-76292767D01*
X184031496Y-76330500D01*
X187354073Y-76330500D01*
X187440416Y-76350207D01*
X187509657Y-76405426D01*
X187548084Y-76485218D01*
X187548084Y-76573782D01*
X187510001Y-76652859D01*
X187510001Y-76917483D01*
X187520493Y-77020195D01*
X187520493Y-77020196D01*
X187575641Y-77186620D01*
X187667682Y-77335842D01*
X187667685Y-77335846D01*
X187791653Y-77459814D01*
X187791657Y-77459817D01*
X187940878Y-77551857D01*
X188107299Y-77607004D01*
X188210029Y-77617499D01*
X188709999Y-77617499D01*
X188710000Y-77617498D01*
X188710000Y-76652859D01*
X188695859Y-76623497D01*
X188678095Y-76595226D01*
X188676827Y-76583978D01*
X188671917Y-76573782D01*
X188671917Y-76540394D01*
X188668179Y-76507219D01*
X188671917Y-76496536D01*
X188671917Y-76485218D01*
X188686403Y-76455137D01*
X188697430Y-76423626D01*
X188705433Y-76415622D01*
X188710344Y-76405426D01*
X188736446Y-76384609D01*
X188760054Y-76361002D01*
X188770735Y-76357264D01*
X188779585Y-76350207D01*
X188812134Y-76342777D01*
X188843647Y-76331751D01*
X188865928Y-76330500D01*
X188954072Y-76330500D01*
X189040415Y-76350207D01*
X189109656Y-76405426D01*
X189148083Y-76485218D01*
X189148083Y-76573782D01*
X189110000Y-76652859D01*
X189110000Y-77617499D01*
X189609977Y-77617499D01*
X189609983Y-77617498D01*
X189712695Y-77607006D01*
X189712696Y-77607006D01*
X189879120Y-77551858D01*
X190028342Y-77459817D01*
X190028346Y-77459814D01*
X190152314Y-77335846D01*
X190152317Y-77335842D01*
X190244357Y-77186621D01*
X190299504Y-77020200D01*
X190310000Y-76917470D01*
X190310000Y-76652859D01*
X190295859Y-76623497D01*
X190278095Y-76595226D01*
X190276827Y-76583978D01*
X190271917Y-76573782D01*
X190271917Y-76540394D01*
X190268179Y-76507219D01*
X190271917Y-76496536D01*
X190271917Y-76485218D01*
X190286403Y-76455137D01*
X190297430Y-76423626D01*
X190305433Y-76415622D01*
X190310344Y-76405426D01*
X190336446Y-76384609D01*
X190360054Y-76361002D01*
X190370735Y-76357264D01*
X190379585Y-76350207D01*
X190412134Y-76342777D01*
X190443647Y-76331751D01*
X190465928Y-76330500D01*
X190704073Y-76330500D01*
X190790416Y-76350207D01*
X190859657Y-76405426D01*
X190898084Y-76485218D01*
X190898084Y-76573782D01*
X190860001Y-76652859D01*
X190860001Y-76917483D01*
X190870493Y-77020195D01*
X190870493Y-77020196D01*
X190925641Y-77186620D01*
X191017682Y-77335842D01*
X191017685Y-77335846D01*
X191141653Y-77459814D01*
X191141657Y-77459817D01*
X191290878Y-77551857D01*
X191457299Y-77607004D01*
X191560029Y-77617499D01*
X192059999Y-77617499D01*
X192060000Y-77617498D01*
X192060000Y-76654000D01*
X192064989Y-76632141D01*
X192064989Y-76609718D01*
X192074717Y-76589516D01*
X192079707Y-76567657D01*
X192093688Y-76550125D01*
X192103416Y-76529926D01*
X192120946Y-76515946D01*
X192134926Y-76498416D01*
X192155125Y-76488688D01*
X192172657Y-76474707D01*
X192194516Y-76469717D01*
X192214718Y-76459989D01*
X192259000Y-76455000D01*
X192261000Y-76455000D01*
X192347343Y-76474707D01*
X192416584Y-76529926D01*
X192455011Y-76609718D01*
X192460000Y-76654000D01*
X192460000Y-77617499D01*
X192959977Y-77617499D01*
X192959983Y-77617498D01*
X193062695Y-77607006D01*
X193062696Y-77607006D01*
X193229120Y-77551858D01*
X193378342Y-77459817D01*
X193378346Y-77459814D01*
X193502314Y-77335846D01*
X193502317Y-77335842D01*
X193594357Y-77186621D01*
X193649504Y-77020200D01*
X193655824Y-76958345D01*
X193684205Y-76874452D01*
X193746174Y-76811181D01*
X193829459Y-76781063D01*
X193917564Y-76790064D01*
X193993038Y-76836401D01*
X193994508Y-76837856D01*
X195916438Y-78759786D01*
X195963557Y-78834774D01*
X195973473Y-78922781D01*
X195944222Y-79006374D01*
X195881598Y-79068998D01*
X195798005Y-79098249D01*
X195775724Y-79099500D01*
X123202270Y-79099500D01*
X123150765Y-79092719D01*
X123134396Y-79088333D01*
X122949768Y-79038862D01*
X122650783Y-78999500D01*
X122399500Y-78999500D01*
X122313157Y-78979793D01*
X122243916Y-78924574D01*
X122205489Y-78844782D01*
X122200500Y-78800500D01*
X122200500Y-76851305D01*
X122200501Y-76851276D01*
X122200501Y-76555774D01*
X122200501Y-76555772D01*
X122162850Y-76269783D01*
X122088192Y-75991155D01*
X122005138Y-75790646D01*
X121977804Y-75724655D01*
X121923047Y-75629813D01*
X121833578Y-75474848D01*
X121657975Y-75245997D01*
X121606550Y-75194572D01*
X121454004Y-75042026D01*
X121453999Y-75042022D01*
X121450110Y-75038133D01*
X121450110Y-75038132D01*
X121450100Y-75038123D01*
X120741083Y-74329106D01*
X120693964Y-74254118D01*
X120684048Y-74166111D01*
X120713299Y-74082518D01*
X120775923Y-74019894D01*
X120780271Y-74017274D01*
X120780813Y-74016910D01*
X120780832Y-74016900D01*
X121020080Y-73833319D01*
X121233319Y-73620080D01*
X121416900Y-73380832D01*
X121520948Y-73200613D01*
X121552564Y-73159411D01*
X123453191Y-71258786D01*
X123528180Y-71211667D01*
X123593905Y-71200500D01*
X164207173Y-71200500D01*
X164219569Y-71203329D01*
G37*
G04 #@! TD.AperFunction*
G04 #@! TA.AperFunction,Conductor*
G36*
X211530416Y-76350207D02*
G01*
X211599657Y-76405426D01*
X211638084Y-76485218D01*
X211638084Y-76573782D01*
X211600001Y-76652859D01*
X211600001Y-76917483D01*
X211610493Y-77020195D01*
X211610493Y-77020196D01*
X211665641Y-77186620D01*
X211757682Y-77335842D01*
X211757685Y-77335846D01*
X211881653Y-77459814D01*
X211881657Y-77459817D01*
X212030878Y-77551857D01*
X212197299Y-77607004D01*
X212300029Y-77617499D01*
X212799999Y-77617499D01*
X212800000Y-77617498D01*
X212800000Y-76652859D01*
X212785859Y-76623497D01*
X212768095Y-76595226D01*
X212766827Y-76583978D01*
X212761917Y-76573782D01*
X212761917Y-76540394D01*
X212758179Y-76507219D01*
X212761917Y-76496536D01*
X212761917Y-76485218D01*
X212776403Y-76455137D01*
X212787430Y-76423626D01*
X212795433Y-76415622D01*
X212800344Y-76405426D01*
X212826446Y-76384609D01*
X212850054Y-76361002D01*
X212860735Y-76357264D01*
X212869585Y-76350207D01*
X212902134Y-76342777D01*
X212933647Y-76331751D01*
X212955928Y-76330500D01*
X213044072Y-76330500D01*
X213130415Y-76350207D01*
X213199656Y-76405426D01*
X213238083Y-76485218D01*
X213238083Y-76573782D01*
X213200000Y-76652859D01*
X213200000Y-77617499D01*
X213699977Y-77617499D01*
X213699983Y-77617498D01*
X213802695Y-77607006D01*
X213802696Y-77607006D01*
X213969120Y-77551858D01*
X214118342Y-77459817D01*
X214118346Y-77459814D01*
X214242314Y-77335846D01*
X214242317Y-77335842D01*
X214334357Y-77186621D01*
X214389504Y-77020200D01*
X214400000Y-76917470D01*
X214400000Y-76646001D01*
X214368095Y-76595226D01*
X214358179Y-76507219D01*
X214387430Y-76423626D01*
X214450054Y-76361002D01*
X214533647Y-76331751D01*
X214555928Y-76330500D01*
X215444073Y-76330500D01*
X215530416Y-76350207D01*
X215599657Y-76405426D01*
X215638084Y-76485218D01*
X215638084Y-76573782D01*
X215600001Y-76652859D01*
X215600001Y-76917483D01*
X215610493Y-77020195D01*
X215610493Y-77020196D01*
X215665641Y-77186620D01*
X215757682Y-77335842D01*
X215757685Y-77335846D01*
X215881653Y-77459814D01*
X215881657Y-77459817D01*
X216030878Y-77551857D01*
X216197299Y-77607004D01*
X216300029Y-77617499D01*
X216799999Y-77617499D01*
X216800000Y-77617498D01*
X216800000Y-76652859D01*
X216785859Y-76623497D01*
X216768095Y-76595226D01*
X216766827Y-76583978D01*
X216761917Y-76573782D01*
X216761917Y-76540394D01*
X216758179Y-76507219D01*
X216761917Y-76496536D01*
X216761917Y-76485218D01*
X216776403Y-76455137D01*
X216787430Y-76423626D01*
X216795433Y-76415622D01*
X216800344Y-76405426D01*
X216826446Y-76384609D01*
X216850054Y-76361002D01*
X216860735Y-76357264D01*
X216869585Y-76350207D01*
X216902134Y-76342777D01*
X216933647Y-76331751D01*
X216955928Y-76330500D01*
X217044072Y-76330500D01*
X217130415Y-76350207D01*
X217199656Y-76405426D01*
X217238083Y-76485218D01*
X217238083Y-76573782D01*
X217200000Y-76652859D01*
X217200000Y-77617499D01*
X217699977Y-77617499D01*
X217699983Y-77617498D01*
X217802695Y-77607006D01*
X217802696Y-77607006D01*
X217969120Y-77551858D01*
X218118342Y-77459817D01*
X218118346Y-77459814D01*
X218242314Y-77335846D01*
X218242317Y-77335842D01*
X218334357Y-77186621D01*
X218389504Y-77020200D01*
X218400000Y-76917470D01*
X218400000Y-76646001D01*
X218368095Y-76595226D01*
X218358179Y-76507219D01*
X218387430Y-76423626D01*
X218450054Y-76361002D01*
X218533647Y-76331751D01*
X218555928Y-76330500D01*
X223238912Y-76330500D01*
X223325255Y-76350207D01*
X223379626Y-76388786D01*
X223574462Y-76583622D01*
X223574466Y-76583625D01*
X223574469Y-76583628D01*
X223705445Y-76685741D01*
X223828868Y-76781966D01*
X223880354Y-76812758D01*
X224105710Y-76947537D01*
X224400796Y-77077830D01*
X224400799Y-77077831D01*
X224400800Y-77077832D01*
X224472473Y-77099423D01*
X224709668Y-77170877D01*
X224709683Y-77170879D01*
X224709685Y-77170880D01*
X225027605Y-77225258D01*
X225027616Y-77225258D01*
X225027628Y-77225261D01*
X225217412Y-77235500D01*
X225217421Y-77235500D01*
X228412579Y-77235500D01*
X228412588Y-77235500D01*
X228602372Y-77225261D01*
X228602384Y-77225258D01*
X228602394Y-77225258D01*
X228920314Y-77170880D01*
X228920312Y-77170880D01*
X228920332Y-77170877D01*
X229229199Y-77077832D01*
X229524290Y-76947537D01*
X229801133Y-76781965D01*
X229877646Y-76722312D01*
X229957854Y-76684767D01*
X230046412Y-76685741D01*
X230122353Y-76722312D01*
X230198867Y-76781965D01*
X230475710Y-76947537D01*
X230475717Y-76947540D01*
X230671113Y-77033816D01*
X230742139Y-77086719D01*
X230783177Y-77165201D01*
X230786099Y-77253716D01*
X230750327Y-77334733D01*
X230731447Y-77356574D01*
X229046809Y-79041214D01*
X228971821Y-79088333D01*
X228906095Y-79099500D01*
X204174276Y-79099500D01*
X204087933Y-79079793D01*
X204018692Y-79024574D01*
X203980265Y-78944782D01*
X203980265Y-78856218D01*
X204018692Y-78776426D01*
X204033562Y-78759786D01*
X204383348Y-78410000D01*
X204780824Y-78012524D01*
X204939811Y-77813161D01*
X204990946Y-77749039D01*
X205170246Y-77463686D01*
X205316469Y-77160051D01*
X205427776Y-76841954D01*
X205502767Y-76513394D01*
X205502769Y-76513378D01*
X205503464Y-76507217D01*
X205532715Y-76423624D01*
X205595340Y-76361001D01*
X205678933Y-76331751D01*
X205701212Y-76330500D01*
X211444073Y-76330500D01*
X211530416Y-76350207D01*
G37*
G04 #@! TD.AperFunction*
G04 #@! TA.AperFunction,Conductor*
G36*
X251566023Y-76850207D02*
G01*
X251635264Y-76905426D01*
X251673691Y-76985218D01*
X251673691Y-77073782D01*
X251635264Y-77153574D01*
X251566023Y-77208793D01*
X251541175Y-77218760D01*
X251440171Y-77251578D01*
X251440167Y-77251579D01*
X251264857Y-77340903D01*
X251188919Y-77396075D01*
X251188919Y-77396076D01*
X251734823Y-77941980D01*
X251727007Y-77944075D01*
X251612993Y-78009901D01*
X251519901Y-78102993D01*
X251454075Y-78217007D01*
X251451980Y-78224823D01*
X250906076Y-77678919D01*
X250906075Y-77678919D01*
X250850902Y-77754860D01*
X250827310Y-77801162D01*
X250770552Y-77869147D01*
X250689917Y-77905773D01*
X250601376Y-77903786D01*
X250522466Y-77863579D01*
X250472690Y-77801162D01*
X250449097Y-77754859D01*
X250393922Y-77678919D01*
X249848019Y-78224822D01*
X249845925Y-78217007D01*
X249780099Y-78102993D01*
X249687007Y-78009901D01*
X249572993Y-77944075D01*
X249565176Y-77941980D01*
X250111079Y-77396076D01*
X250111079Y-77396075D01*
X250035143Y-77340904D01*
X249859832Y-77251579D01*
X249859828Y-77251578D01*
X249758825Y-77218760D01*
X249682798Y-77173336D01*
X249634009Y-77099423D01*
X249622121Y-77011661D01*
X249649489Y-76927432D01*
X249710692Y-76863420D01*
X249793608Y-76832301D01*
X249820320Y-76830500D01*
X251479680Y-76830500D01*
X251566023Y-76850207D01*
G37*
G04 #@! TD.AperFunction*
G04 #@! TA.AperFunction,Conductor*
G36*
X254106023Y-76850207D02*
G01*
X254175264Y-76905426D01*
X254213691Y-76985218D01*
X254213691Y-77073782D01*
X254175264Y-77153574D01*
X254106023Y-77208793D01*
X254081175Y-77218760D01*
X253980171Y-77251578D01*
X253980167Y-77251579D01*
X253804857Y-77340903D01*
X253728919Y-77396075D01*
X253728919Y-77396076D01*
X254274823Y-77941980D01*
X254267007Y-77944075D01*
X254152993Y-78009901D01*
X254059901Y-78102993D01*
X253994075Y-78217007D01*
X253991980Y-78224823D01*
X253446076Y-77678919D01*
X253446075Y-77678919D01*
X253390902Y-77754860D01*
X253367310Y-77801162D01*
X253310552Y-77869147D01*
X253229917Y-77905773D01*
X253141376Y-77903786D01*
X253062466Y-77863579D01*
X253012690Y-77801162D01*
X252989097Y-77754859D01*
X252933922Y-77678919D01*
X252388019Y-78224822D01*
X252385925Y-78217007D01*
X252320099Y-78102993D01*
X252227007Y-78009901D01*
X252112993Y-77944075D01*
X252105176Y-77941980D01*
X252651079Y-77396076D01*
X252651079Y-77396075D01*
X252575143Y-77340904D01*
X252399832Y-77251579D01*
X252399828Y-77251578D01*
X252298825Y-77218760D01*
X252222798Y-77173336D01*
X252174009Y-77099423D01*
X252162121Y-77011661D01*
X252189489Y-76927432D01*
X252250692Y-76863420D01*
X252333608Y-76832301D01*
X252360320Y-76830500D01*
X254019680Y-76830500D01*
X254106023Y-76850207D01*
G37*
G04 #@! TD.AperFunction*
G04 #@! TA.AperFunction,Conductor*
G36*
X252387343Y-52019707D02*
G01*
X252456584Y-52074926D01*
X252495011Y-52154718D01*
X252500000Y-52199000D01*
X252500000Y-59000000D01*
X254453846Y-59000000D01*
X254540189Y-59019707D01*
X254567988Y-59035989D01*
X254714032Y-59138250D01*
X254994783Y-59300341D01*
X255039228Y-59326002D01*
X255038793Y-59326754D01*
X255102662Y-59381018D01*
X255138591Y-59461966D01*
X255135839Y-59550487D01*
X255094953Y-59629047D01*
X255024029Y-59682088D01*
X254937115Y-59699103D01*
X254923793Y-59698241D01*
X254631975Y-59669500D01*
X254631969Y-59669500D01*
X249551969Y-59669500D01*
X171656949Y-59669500D01*
X171656909Y-59669499D01*
X171651969Y-59669499D01*
X171308031Y-59669499D01*
X171308024Y-59669499D01*
X170996437Y-59700188D01*
X170996436Y-59700187D01*
X170965760Y-59703209D01*
X170965755Y-59703209D01*
X170639276Y-59768151D01*
X170628431Y-59770308D01*
X170628409Y-59770313D01*
X170299299Y-59870147D01*
X170074606Y-59963218D01*
X169981548Y-60001764D01*
X169981522Y-60001776D01*
X169881474Y-60055254D01*
X169875882Y-60058243D01*
X169795027Y-60101460D01*
X169678208Y-60163901D01*
X169392240Y-60354980D01*
X169392231Y-60354986D01*
X169126381Y-60573164D01*
X169126361Y-60573182D01*
X165303182Y-64396361D01*
X165303164Y-64396381D01*
X165084979Y-64662240D01*
X164893902Y-64948208D01*
X164893899Y-64948214D01*
X164731768Y-65251538D01*
X164600151Y-65569290D01*
X164500312Y-65898415D01*
X164500308Y-65898431D01*
X164433211Y-66235748D01*
X164399500Y-66578024D01*
X164399500Y-66600500D01*
X164379793Y-66686843D01*
X164324574Y-66756084D01*
X164244782Y-66794511D01*
X164200500Y-66799500D01*
X122750434Y-66799500D01*
X122750402Y-66799499D01*
X122744229Y-66799499D01*
X122455771Y-66799499D01*
X122455765Y-66799499D01*
X122169784Y-66837150D01*
X121891160Y-66911805D01*
X121891151Y-66911809D01*
X121735042Y-66976472D01*
X121624659Y-67022193D01*
X121624657Y-67022194D01*
X121374848Y-67166421D01*
X121145997Y-67342024D01*
X121044012Y-67444010D01*
X120942026Y-67545996D01*
X120942022Y-67546000D01*
X118440593Y-70047428D01*
X118399380Y-70079052D01*
X118219176Y-70183094D01*
X118219174Y-70183095D01*
X117979916Y-70366683D01*
X117766683Y-70579916D01*
X117583095Y-70819174D01*
X117579476Y-70824591D01*
X117578296Y-70823802D01*
X117523661Y-70882654D01*
X117441210Y-70914987D01*
X117352896Y-70908344D01*
X117276211Y-70864040D01*
X117270892Y-70858915D01*
X116462974Y-70050997D01*
X116462967Y-70050989D01*
X116462967Y-70050990D01*
X116457976Y-70045999D01*
X116457974Y-70045996D01*
X116254004Y-69842026D01*
X116254003Y-69842025D01*
X116254002Y-69842024D01*
X116025151Y-69666421D01*
X115829671Y-69553561D01*
X115775345Y-69522196D01*
X115775343Y-69522195D01*
X115775341Y-69522194D01*
X115664957Y-69476472D01*
X115508849Y-69411809D01*
X115508837Y-69411805D01*
X115230215Y-69337150D01*
X115230216Y-69337150D01*
X114944234Y-69299499D01*
X114944229Y-69299499D01*
X114655771Y-69299499D01*
X114649598Y-69299499D01*
X114649566Y-69299500D01*
X106550433Y-69299500D01*
X106550401Y-69299499D01*
X106544228Y-69299499D01*
X106255771Y-69299499D01*
X106255765Y-69299499D01*
X105969786Y-69337150D01*
X105691152Y-69411809D01*
X105691149Y-69411810D01*
X105635795Y-69434739D01*
X105613098Y-69444140D01*
X105535042Y-69476472D01*
X105424659Y-69522194D01*
X105424657Y-69522194D01*
X105174848Y-69666421D01*
X104945997Y-69842024D01*
X104857714Y-69930308D01*
X104742026Y-70045996D01*
X102045997Y-72742024D01*
X102045996Y-72742025D01*
X102045996Y-72742026D01*
X101898132Y-72889890D01*
X101839714Y-72948308D01*
X101764725Y-72995426D01*
X101676719Y-73005342D01*
X101593125Y-72976091D01*
X101530502Y-72913467D01*
X101501251Y-72829873D01*
X101500000Y-72807593D01*
X101500000Y-59199000D01*
X101519707Y-59112657D01*
X101574926Y-59043416D01*
X101654718Y-59004989D01*
X101699000Y-59000000D01*
X107500000Y-59000000D01*
X107500000Y-52199000D01*
X107519707Y-52112657D01*
X107574926Y-52043416D01*
X107654718Y-52004989D01*
X107699000Y-52000000D01*
X252301000Y-52000000D01*
X252387343Y-52019707D01*
G37*
G04 #@! TD.AperFunction*
G04 #@! TA.AperFunction,Conductor*
G36*
X249026023Y-66690207D02*
G01*
X249095264Y-66745426D01*
X249133691Y-66825218D01*
X249133691Y-66913782D01*
X249095264Y-66993574D01*
X249026023Y-67048793D01*
X249001175Y-67058760D01*
X248900171Y-67091578D01*
X248900167Y-67091579D01*
X248724857Y-67180903D01*
X248648919Y-67236075D01*
X248648919Y-67236076D01*
X249194823Y-67781980D01*
X249187007Y-67784075D01*
X249072993Y-67849901D01*
X248979901Y-67942993D01*
X248914075Y-68057007D01*
X248911980Y-68064823D01*
X248366076Y-67518919D01*
X248366075Y-67518919D01*
X248310903Y-67594857D01*
X248221579Y-67770167D01*
X248221578Y-67770171D01*
X248160780Y-67957287D01*
X248160777Y-67957298D01*
X248130000Y-68151623D01*
X248130000Y-68348376D01*
X248160777Y-68542701D01*
X248160780Y-68542712D01*
X248221578Y-68729828D01*
X248221579Y-68729832D01*
X248310904Y-68905143D01*
X248366076Y-68981079D01*
X248911980Y-68435176D01*
X248914075Y-68442993D01*
X248979901Y-68557007D01*
X249072993Y-68650099D01*
X249187007Y-68715925D01*
X249194822Y-68718019D01*
X248648919Y-69263922D01*
X248648919Y-69263923D01*
X248724856Y-69319095D01*
X248900167Y-69408420D01*
X248900171Y-69408421D01*
X249001175Y-69441240D01*
X249077202Y-69486664D01*
X249125991Y-69560577D01*
X249137879Y-69648339D01*
X249110511Y-69732568D01*
X249049308Y-69796580D01*
X248966392Y-69827699D01*
X248939680Y-69829500D01*
X236144948Y-69829500D01*
X236058605Y-69809793D01*
X236042806Y-69801286D01*
X235894289Y-69712462D01*
X235894282Y-69712459D01*
X235599200Y-69582168D01*
X235599199Y-69582167D01*
X235290335Y-69489124D01*
X235290336Y-69489124D01*
X235290332Y-69489123D01*
X235290327Y-69489122D01*
X235290314Y-69489119D01*
X234972394Y-69434741D01*
X234972373Y-69434739D01*
X234972372Y-69434739D01*
X234782588Y-69424500D01*
X231587412Y-69424500D01*
X231397628Y-69434739D01*
X231397605Y-69434741D01*
X231079685Y-69489119D01*
X231079664Y-69489124D01*
X230770800Y-69582167D01*
X230770799Y-69582168D01*
X230475717Y-69712459D01*
X230475711Y-69712462D01*
X230198869Y-69878033D01*
X230122355Y-69937686D01*
X230042144Y-69975231D01*
X229953586Y-69974257D01*
X229877645Y-69937686D01*
X229801130Y-69878033D01*
X229524288Y-69712462D01*
X229524282Y-69712459D01*
X229229200Y-69582168D01*
X229229199Y-69582167D01*
X228920335Y-69489124D01*
X228920336Y-69489124D01*
X228920332Y-69489123D01*
X228920327Y-69489122D01*
X228920314Y-69489119D01*
X228602394Y-69434741D01*
X228602373Y-69434739D01*
X228602372Y-69434739D01*
X228412588Y-69424500D01*
X225217412Y-69424500D01*
X225027628Y-69434739D01*
X225027605Y-69434741D01*
X224709685Y-69489119D01*
X224709664Y-69489124D01*
X224400800Y-69582167D01*
X224400799Y-69582168D01*
X224105717Y-69712459D01*
X224105711Y-69712462D01*
X223828868Y-69878033D01*
X223574462Y-70076377D01*
X223379626Y-70271214D01*
X223304638Y-70318333D01*
X223238912Y-70329500D01*
X204911496Y-70329500D01*
X204862787Y-70334988D01*
X204576609Y-70367232D01*
X204248044Y-70442224D01*
X204248041Y-70442225D01*
X203929950Y-70553530D01*
X203896341Y-70569715D01*
X203809997Y-70589421D01*
X203723659Y-70569715D01*
X203690049Y-70553530D01*
X203371958Y-70442225D01*
X203371955Y-70442224D01*
X203043390Y-70367232D01*
X202765502Y-70335922D01*
X202708504Y-70329500D01*
X202371496Y-70329500D01*
X202322787Y-70334988D01*
X202036609Y-70367232D01*
X201708044Y-70442224D01*
X201708041Y-70442225D01*
X201389958Y-70553527D01*
X201389957Y-70553527D01*
X201086308Y-70699757D01*
X200800956Y-70879057D01*
X200800955Y-70879058D01*
X200537475Y-71089176D01*
X200299176Y-71327475D01*
X200089058Y-71590955D01*
X200089057Y-71590956D01*
X199909743Y-71876331D01*
X199909215Y-71877288D01*
X199908972Y-71877559D01*
X199906784Y-71881042D01*
X199906191Y-71880669D01*
X199850191Y-71943315D01*
X199768363Y-71977194D01*
X199735062Y-71980000D01*
X199350023Y-71980000D01*
X199350016Y-71980001D01*
X199247304Y-71990493D01*
X199247303Y-71990493D01*
X199080879Y-72045641D01*
X198931657Y-72137682D01*
X198931653Y-72137685D01*
X198807685Y-72261653D01*
X198807682Y-72261657D01*
X198715642Y-72410878D01*
X198660491Y-72577309D01*
X198659526Y-72581821D01*
X198657685Y-72585778D01*
X198657076Y-72587618D01*
X198656862Y-72587547D01*
X198622180Y-72662125D01*
X198553689Y-72718272D01*
X198467620Y-72739142D01*
X198381019Y-72720601D01*
X198324222Y-72680874D01*
X196732521Y-71089173D01*
X196730751Y-71087762D01*
X196730752Y-71087760D01*
X196730730Y-71087746D01*
X196595019Y-70979520D01*
X196469039Y-70879054D01*
X196245259Y-70738443D01*
X196183691Y-70699757D01*
X196183690Y-70699756D01*
X196183686Y-70699754D01*
X195880051Y-70553531D01*
X195880044Y-70553528D01*
X195880041Y-70553527D01*
X195561958Y-70442225D01*
X195561955Y-70442224D01*
X195233386Y-70367231D01*
X195228499Y-70366681D01*
X195228495Y-70366681D01*
X194898505Y-70329500D01*
X194898504Y-70329500D01*
X184031496Y-70329500D01*
X183982787Y-70334988D01*
X183696609Y-70367232D01*
X183368044Y-70442224D01*
X183368041Y-70442225D01*
X183049958Y-70553527D01*
X183049957Y-70553527D01*
X182746314Y-70699754D01*
X182746302Y-70699760D01*
X182744245Y-70701053D01*
X182742367Y-70701934D01*
X182741423Y-70702457D01*
X182741388Y-70702394D01*
X182700520Y-70721595D01*
X182649253Y-70738443D01*
X182649249Y-70738445D01*
X182379070Y-70869352D01*
X182259865Y-70948283D01*
X182176993Y-70979520D01*
X182088775Y-70971706D01*
X182040135Y-70948283D01*
X181979817Y-70908344D01*
X181920933Y-70869354D01*
X181909965Y-70864040D01*
X181650750Y-70738445D01*
X181650751Y-70738445D01*
X181599480Y-70721596D01*
X181558601Y-70702389D01*
X181558567Y-70702452D01*
X181557617Y-70701927D01*
X181555744Y-70701047D01*
X181553689Y-70699755D01*
X181553684Y-70699753D01*
X181540560Y-70693432D01*
X181250051Y-70553531D01*
X181250044Y-70553528D01*
X181250041Y-70553527D01*
X180931958Y-70442225D01*
X180931955Y-70442224D01*
X180603390Y-70367232D01*
X180325502Y-70335922D01*
X180268504Y-70329500D01*
X180268503Y-70329500D01*
X174462110Y-70329500D01*
X174375767Y-70309793D01*
X174368302Y-70306002D01*
X174098461Y-70161768D01*
X173780709Y-70030151D01*
X173475893Y-69937686D01*
X173451578Y-69930310D01*
X173451568Y-69930308D01*
X173114251Y-69863211D01*
X172771975Y-69829500D01*
X172771969Y-69829500D01*
X171612383Y-69829500D01*
X171579835Y-69822071D01*
X171546657Y-69818333D01*
X171537073Y-69812311D01*
X171526040Y-69809793D01*
X171471669Y-69771214D01*
X171458786Y-69758331D01*
X171411667Y-69683343D01*
X171400500Y-69617617D01*
X171400500Y-68282383D01*
X171420207Y-68196040D01*
X171458786Y-68141669D01*
X172871669Y-66728786D01*
X172946657Y-66681667D01*
X173012383Y-66670500D01*
X248939680Y-66670500D01*
X249026023Y-66690207D01*
G37*
G04 #@! TD.AperFunction*
G04 #@! TA.AperFunction,Conductor*
G36*
X251454075Y-68442993D02*
G01*
X251519901Y-68557007D01*
X251612993Y-68650099D01*
X251727007Y-68715925D01*
X251734822Y-68718019D01*
X251188919Y-69263922D01*
X251188919Y-69263923D01*
X251264856Y-69319095D01*
X251440167Y-69408420D01*
X251440171Y-69408421D01*
X251541175Y-69441240D01*
X251617202Y-69486664D01*
X251665991Y-69560577D01*
X251677879Y-69648339D01*
X251650511Y-69732568D01*
X251589308Y-69796580D01*
X251506392Y-69827699D01*
X251479680Y-69829500D01*
X249820320Y-69829500D01*
X249733977Y-69809793D01*
X249664736Y-69754574D01*
X249626309Y-69674782D01*
X249626309Y-69586218D01*
X249664736Y-69506426D01*
X249733977Y-69451207D01*
X249758825Y-69441240D01*
X249859828Y-69408421D01*
X249859832Y-69408419D01*
X250035140Y-69319097D01*
X250111079Y-69263923D01*
X250111079Y-69263921D01*
X249565177Y-68718019D01*
X249572993Y-68715925D01*
X249687007Y-68650099D01*
X249780099Y-68557007D01*
X249845925Y-68442993D01*
X249848019Y-68435177D01*
X250393921Y-68981079D01*
X250393923Y-68981079D01*
X250449095Y-68905143D01*
X250472688Y-68858839D01*
X250529446Y-68790853D01*
X250610080Y-68754226D01*
X250698621Y-68756212D01*
X250777532Y-68796418D01*
X250827311Y-68858838D01*
X250850904Y-68905143D01*
X250906076Y-68981079D01*
X251451980Y-68435176D01*
X251454075Y-68442993D01*
G37*
G04 #@! TD.AperFunction*
G04 #@! TA.AperFunction,Conductor*
G36*
X253994075Y-68442993D02*
G01*
X254059901Y-68557007D01*
X254152993Y-68650099D01*
X254267007Y-68715925D01*
X254274822Y-68718019D01*
X253728919Y-69263922D01*
X253728919Y-69263923D01*
X253804856Y-69319095D01*
X253980167Y-69408420D01*
X253980171Y-69408421D01*
X254081175Y-69441240D01*
X254157202Y-69486664D01*
X254205991Y-69560577D01*
X254217879Y-69648339D01*
X254190511Y-69732568D01*
X254129308Y-69796580D01*
X254046392Y-69827699D01*
X254019680Y-69829500D01*
X252360320Y-69829500D01*
X252273977Y-69809793D01*
X252204736Y-69754574D01*
X252166309Y-69674782D01*
X252166309Y-69586218D01*
X252204736Y-69506426D01*
X252273977Y-69451207D01*
X252298825Y-69441240D01*
X252399828Y-69408421D01*
X252399832Y-69408419D01*
X252575140Y-69319097D01*
X252651079Y-69263923D01*
X252651079Y-69263921D01*
X252105177Y-68718019D01*
X252112993Y-68715925D01*
X252227007Y-68650099D01*
X252320099Y-68557007D01*
X252385925Y-68442993D01*
X252388019Y-68435177D01*
X252933921Y-68981079D01*
X252933923Y-68981079D01*
X252989095Y-68905143D01*
X253012688Y-68858839D01*
X253069446Y-68790853D01*
X253150080Y-68754226D01*
X253238621Y-68756212D01*
X253317532Y-68796418D01*
X253367311Y-68858838D01*
X253390904Y-68905143D01*
X253446076Y-68981079D01*
X253991980Y-68435176D01*
X253994075Y-68442993D01*
G37*
G04 #@! TD.AperFunction*
G04 #@! TA.AperFunction,Conductor*
G36*
X251566023Y-66690207D02*
G01*
X251635264Y-66745426D01*
X251673691Y-66825218D01*
X251673691Y-66913782D01*
X251635264Y-66993574D01*
X251566023Y-67048793D01*
X251541175Y-67058760D01*
X251440171Y-67091578D01*
X251440167Y-67091579D01*
X251264857Y-67180903D01*
X251188919Y-67236075D01*
X251188919Y-67236076D01*
X251734823Y-67781980D01*
X251727007Y-67784075D01*
X251612993Y-67849901D01*
X251519901Y-67942993D01*
X251454075Y-68057007D01*
X251451980Y-68064823D01*
X250906076Y-67518919D01*
X250906075Y-67518919D01*
X250850902Y-67594860D01*
X250827310Y-67641162D01*
X250770552Y-67709147D01*
X250689917Y-67745773D01*
X250601376Y-67743786D01*
X250522466Y-67703579D01*
X250472690Y-67641162D01*
X250449097Y-67594859D01*
X250393922Y-67518919D01*
X249848019Y-68064822D01*
X249845925Y-68057007D01*
X249780099Y-67942993D01*
X249687007Y-67849901D01*
X249572993Y-67784075D01*
X249565176Y-67781980D01*
X250111079Y-67236076D01*
X250111079Y-67236075D01*
X250035143Y-67180904D01*
X249859832Y-67091579D01*
X249859828Y-67091578D01*
X249758825Y-67058760D01*
X249682798Y-67013336D01*
X249634009Y-66939423D01*
X249622121Y-66851661D01*
X249649489Y-66767432D01*
X249710692Y-66703420D01*
X249793608Y-66672301D01*
X249820320Y-66670500D01*
X251479680Y-66670500D01*
X251566023Y-66690207D01*
G37*
G04 #@! TD.AperFunction*
G04 #@! TA.AperFunction,Conductor*
G36*
X254106023Y-66690207D02*
G01*
X254175264Y-66745426D01*
X254213691Y-66825218D01*
X254213691Y-66913782D01*
X254175264Y-66993574D01*
X254106023Y-67048793D01*
X254081175Y-67058760D01*
X253980171Y-67091578D01*
X253980167Y-67091579D01*
X253804857Y-67180903D01*
X253728919Y-67236075D01*
X253728919Y-67236076D01*
X254274823Y-67781980D01*
X254267007Y-67784075D01*
X254152993Y-67849901D01*
X254059901Y-67942993D01*
X253994075Y-68057007D01*
X253991980Y-68064823D01*
X253446076Y-67518919D01*
X253446075Y-67518919D01*
X253390902Y-67594860D01*
X253367310Y-67641162D01*
X253310552Y-67709147D01*
X253229917Y-67745773D01*
X253141376Y-67743786D01*
X253062466Y-67703579D01*
X253012690Y-67641162D01*
X252989097Y-67594859D01*
X252933922Y-67518919D01*
X252388019Y-68064822D01*
X252385925Y-68057007D01*
X252320099Y-67942993D01*
X252227007Y-67849901D01*
X252112993Y-67784075D01*
X252105176Y-67781980D01*
X252651079Y-67236076D01*
X252651079Y-67236075D01*
X252575143Y-67180904D01*
X252399832Y-67091579D01*
X252399828Y-67091578D01*
X252298825Y-67058760D01*
X252222798Y-67013336D01*
X252174009Y-66939423D01*
X252162121Y-66851661D01*
X252189489Y-66767432D01*
X252250692Y-66703420D01*
X252333608Y-66672301D01*
X252360320Y-66670500D01*
X254019680Y-66670500D01*
X254106023Y-66690207D01*
G37*
G04 #@! TD.AperFunction*
G04 #@! TD*
D27*
X100000000Y-50500000D02*
X260000000Y-50500000D01*
X260000000Y-149500000D01*
X100000000Y-149500000D01*
X100000000Y-50500000D01*
M02*
