G04 #@! TF.GenerationSoftware,KiCad,Pcbnew,10.0.1*
G04 #@! TF.CreationDate,2026-06-16T10:50:30+08:00*
G04 #@! TF.ProjectId,powersupplies_kicadproject,706f7765-7273-4757-9070-6c6965735f6b,rev?*
G04 #@! TF.SameCoordinates,Original*
G04 #@! TF.FileFunction,Soldermask,Top*
G04 #@! TF.FilePolarity,Negative*
%FSLAX46Y46*%
G04 Gerber Fmt 4.6, Leading zero omitted, Abs format (unit mm)*
G04 Created by KiCad (PCBNEW 10.0.1) date 2026-06-16 10:50:30*
%MOMM*%
%LPD*%
G01*
G04 APERTURE LIST*
G04 Aperture macros list*
%AMRoundRect*
0 Rectangle with rounded corners*
0 $1 Rounding radius*
0 $2 $3 $4 $5 $6 $7 $8 $9 X,Y pos of 4 corners*
0 Add a 4 corners polygon primitive as box body*
4,1,4,$2,$3,$4,$5,$6,$7,$8,$9,$2,$3,0*
0 Add four circle primitives for the rounded corners*
1,1,$1+$1,$2,$3*
1,1,$1+$1,$4,$5*
1,1,$1+$1,$6,$7*
1,1,$1+$1,$8,$9*
0 Add four rect primitives between the rounded corners*
20,1,$1+$1,$2,$3,$4,$5,0*
20,1,$1+$1,$4,$5,$6,$7,0*
20,1,$1+$1,$6,$7,$8,$9,0*
20,1,$1+$1,$8,$9,$2,$3,0*%
G04 Aperture macros list end*
%ADD10RoundRect,0.250000X-0.625000X0.400000X-0.625000X-0.400000X0.625000X-0.400000X0.625000X0.400000X0*%
%ADD11RoundRect,0.250000X0.600000X-0.600000X0.600000X0.600000X-0.600000X0.600000X-0.600000X-0.600000X0*%
%ADD12C,1.700000*%
%ADD13RoundRect,0.250000X0.650000X-0.412500X0.650000X0.412500X-0.650000X0.412500X-0.650000X-0.412500X0*%
%ADD14RoundRect,0.241935X-0.708065X0.508065X-0.708065X-0.508065X0.708065X-0.508065X0.708065X0.508065X0*%
%ADD15C,1.500000*%
%ADD16R,1.500000X1.500000*%
%ADD17RoundRect,0.241935X0.708065X-0.508065X0.708065X0.508065X-0.708065X0.508065X-0.708065X-0.508065X0*%
%ADD18RoundRect,0.614515X1.505485X-1.290485X1.505485X1.290485X-1.505485X1.290485X-1.505485X-1.290485X0*%
%ADD19C,4.500000*%
%ADD20C,2.700000*%
G04 #@! TA.AperFunction,Profile*
%ADD21C,0.050000*%
G04 #@! TD*
G04 APERTURE END LIST*
D10*
G04 #@! TO.C,R4*
X110350000Y-105670000D03*
X110350000Y-108770000D03*
G04 #@! TD*
D11*
G04 #@! TO.C,U3*
X200000000Y-73330000D03*
D12*
X202540000Y-73330000D03*
X205080000Y-73330000D03*
G04 #@! TD*
D13*
G04 #@! TO.C,C5*
X188910000Y-129210000D03*
X188910000Y-126085000D03*
G04 #@! TD*
D14*
G04 #@! TO.C,L2*
X184200000Y-73330000D03*
X180100000Y-73330000D03*
G04 #@! TD*
D15*
G04 #@! TO.C,D4*
X103500000Y-108770000D03*
D16*
X103500000Y-106230000D03*
G04 #@! TD*
D13*
G04 #@! TO.C,C9*
X172600000Y-129210000D03*
X172600000Y-126085000D03*
G04 #@! TD*
G04 #@! TO.C,C6*
X192260000Y-129210000D03*
X192260000Y-126085000D03*
G04 #@! TD*
D10*
G04 #@! TO.C,R2*
X110350000Y-90670000D03*
X110350000Y-93770000D03*
G04 #@! TD*
D15*
G04 #@! TO.C,D2*
X103500000Y-123770000D03*
D16*
X103500000Y-121230000D03*
G04 #@! TD*
D11*
G04 #@! TO.C,U2*
X200000000Y-129210000D03*
D12*
X202540000Y-129210000D03*
X205080000Y-129210000D03*
G04 #@! TD*
D17*
G04 #@! TO.C,L1*
X180100000Y-129210000D03*
X184200000Y-129210000D03*
G04 #@! TD*
D15*
G04 #@! TO.C,D3*
X103500000Y-78770000D03*
D16*
X103500000Y-76230000D03*
G04 #@! TD*
D10*
G04 #@! TO.C,R3*
X110350000Y-75670000D03*
X110350000Y-78770000D03*
G04 #@! TD*
D18*
G04 #@! TO.C,F2*
X226815000Y-73330000D03*
X233185000Y-73330000D03*
G04 #@! TD*
D13*
G04 #@! TO.C,C3*
X213000000Y-76455000D03*
X213000000Y-73330000D03*
G04 #@! TD*
G04 #@! TO.C,C4*
X217000000Y-76455000D03*
X217000000Y-73330000D03*
G04 #@! TD*
G04 #@! TO.C,C2*
X217000000Y-129210000D03*
X217000000Y-126085000D03*
G04 #@! TD*
G04 #@! TO.C,C12*
X176300000Y-76455000D03*
X176300000Y-73330000D03*
G04 #@! TD*
D15*
G04 #@! TO.C,D1*
X103500000Y-93770000D03*
D16*
X103500000Y-91230000D03*
G04 #@! TD*
D19*
G04 #@! TO.C,U1*
X257000000Y-55550000D03*
X257000000Y-144450000D03*
D15*
X254460000Y-63170000D03*
X254460000Y-68250000D03*
X254460000Y-73330000D03*
X254460000Y-78410000D03*
X254460000Y-83490000D03*
X254460000Y-88570000D03*
X254460000Y-93650000D03*
X254460000Y-98730000D03*
X254460000Y-103810000D03*
X254460000Y-108890000D03*
X254460000Y-113970000D03*
X254460000Y-119050000D03*
X254460000Y-124130000D03*
X254460000Y-129210000D03*
X254460000Y-134290000D03*
X254460000Y-139370000D03*
X251920000Y-63170000D03*
X251920000Y-68250000D03*
X251920000Y-73330000D03*
X251920000Y-78410000D03*
X251920000Y-83490000D03*
X251920000Y-88570000D03*
X251920000Y-93650000D03*
X251920000Y-98730000D03*
X251920000Y-103810000D03*
X251920000Y-108890000D03*
X251920000Y-113970000D03*
X251920000Y-119050000D03*
X251920000Y-124130000D03*
X251920000Y-129210000D03*
X251920000Y-134290000D03*
X251920000Y-139370000D03*
X249380000Y-63170000D03*
X249380000Y-68250000D03*
X249380000Y-73330000D03*
X249380000Y-78410000D03*
X249380000Y-83490000D03*
X249380000Y-88570000D03*
X249380000Y-93650000D03*
X249380000Y-98730000D03*
X249380000Y-103810000D03*
X249380000Y-108890000D03*
X249380000Y-113970000D03*
X249380000Y-119050000D03*
X249380000Y-124130000D03*
X249380000Y-129210000D03*
X249380000Y-134290000D03*
X249380000Y-139370000D03*
G04 #@! TD*
D20*
G04 #@! TO.C,H1*
X103570000Y-55550000D03*
G04 #@! TD*
D13*
G04 #@! TO.C,C8*
X192260000Y-76455000D03*
X192260000Y-73330000D03*
G04 #@! TD*
G04 #@! TO.C,C11*
X172600000Y-76455000D03*
X172600000Y-73330000D03*
G04 #@! TD*
D18*
G04 #@! TO.C,F1*
X226815000Y-129210000D03*
X233185000Y-129210000D03*
G04 #@! TD*
D10*
G04 #@! TO.C,R1*
X110350000Y-120700000D03*
X110350000Y-123800000D03*
G04 #@! TD*
D13*
G04 #@! TO.C,C1*
X213000000Y-129210000D03*
X213000000Y-126085000D03*
G04 #@! TD*
D20*
G04 #@! TO.C,H2*
X103570000Y-144450000D03*
G04 #@! TD*
D13*
G04 #@! TO.C,C10*
X176300000Y-129210000D03*
X176300000Y-126085000D03*
G04 #@! TD*
G04 #@! TO.C,C7*
X188910000Y-76455000D03*
X188910000Y-73330000D03*
G04 #@! TD*
D21*
X100000000Y-50500000D02*
X260000000Y-50500000D01*
X260000000Y-149500000D01*
X100000000Y-149500000D01*
X100000000Y-50500000D01*
M02*
